<svg width="40" height="40" fill="none" xmlns="http://www.w3.org/2000/svg"><circle cx="20" cy="20" r="10.667" fill="url(#paint0_linear)"/><circle cx="20" cy="20" r="19.5" stroke="url(#paint1_linear)"/><path d="M19.474 23.94a1.24 1.24 0 01-1.825 0l-2.827-2.998a1.427 1.427 0 010-1.935 1.239 1.239 0 011.825 0l1.684 1.786a.314.314 0 00.461 0l4.561-4.837a1.239 1.239 0 011.825 0c.241.257.377.605.377.968s-.136.71-.377.967l-5.704 6.049z" fill="#FEFEFE"/><defs><linearGradient id="paint0_linear" x1="20" y1="9.333" x2="20" y2="30.666" gradientUnits="userSpaceOnUse"><stop stop-color="#EA384D"/><stop offset="1" stop-color="#D31027"/></linearGradient><linearGradient id="paint1_linear" x1="20" y1="0" x2="20" y2="40" gradientUnits="userSpaceOnUse"><stop stop-color="#EA384D"/><stop offset="1" stop-color="#D31027"/></linearGradient></defs></svg>