<svg width="25" height="25" fill="none" xmlns="http://www.w3.org/2000/svg"><path d="M1.63 1.736C-.327 3.77.074 5.93.074 12.496.073 17.948-.88 23.414 4.1 24.7c1.555.4 15.332.4 16.884-.002 2.074-.535 3.76-2.216 3.991-5.147.032-.41.032-13.693-.001-14.11-.244-3.123-2.167-4.922-4.7-5.287-.58-.084-.697-.109-3.676-.114C6.032.045 3.715-.425 1.631 1.736z" fill="url(#paint0_linear)"/><path d="M12.535 3.3c-3.772 0-7.353-.336-8.721 3.175-.565 1.45-.483 3.332-.483 6.028 0 2.365-.076 4.589.483 6.027 1.365 3.512 4.975 3.176 8.719 3.176 3.611 0 7.335.376 8.72-3.176.565-1.464.482-3.319.482-6.027 0-3.595.199-5.916-1.545-7.659C18.424 3.08 16.036 3.3 12.53 3.3h.005zm-.825 1.658c7.867-.012 8.868-.887 8.316 11.26-.197 4.297-3.468 3.825-7.49 3.825-7.333 0-7.544-.21-7.544-7.544 0-7.42.582-7.537 6.718-7.543v.002zm5.738 1.528a1.104 1.104 0 100 2.208 1.104 1.104 0 000-2.208zm-4.913 1.29a4.726 4.726 0 100 9.453 4.726 4.726 0 000-9.452zm0 1.66c4.056 0 4.061 6.134 0 6.134-4.055 0-4.061-6.135 0-6.135z" fill="#fff"/><defs><linearGradient id="paint0_linear" x1="1.679" y1="23.371" x2="24.843" y2="3.319" gradientUnits="userSpaceOnUse"><stop stop-color="#FD5"/><stop offset=".5" stop-color="#FF543E"/><stop offset="1" stop-color="#C837AB"/></linearGradient></defs></svg>