<svg width="50" height="46" fill="none" xmlns="http://www.w3.org/2000/svg"><path d="M47.184 20.217l-3.002-.232a.233.233 0 01-.207-.168 20.099 20.099 0 00-1.556-3.885.24.24 0 01.034-.268l2.021-2.315a3.125 3.125 0 00-.126-4.233l-3.098-3.14a3.032 3.032 0 00-4.14-.16l-2.285 1.987a.231.231 0 01-.264.03 19.51 19.51 0 00-3.81-1.636.236.236 0 01-.163-.212l-.184-3.083C30.306 1.275 28.97 0 27.362 0H22.98c-1.584 0-2.919 1.254-3.04 2.854l-.229 3.044a.233.233 0 01-.162.21 19.52 19.52 0 00-4.113 1.727.23.23 0 01-.262-.031L12.89 5.816a3.03 3.03 0 00-4.14.16l-3.098 3.14a3.126 3.126 0 00-.127 4.233l2.022 2.315a.24.24 0 01.034.268 20.102 20.102 0 00-1.556 3.885.233.233 0 01-.207.168l-3.003.232C1.237 20.34 0 21.693 0 23.298v4.441c0 1.63 1.257 2.985 2.863 3.084l3.04.188a.233.233 0 01.21.164 20.1 20.1 0 001.614 3.863.24.24 0 01-.03.268l-1.96 2.317a3.135 3.135 0 00.157 4.196l3.098 3.141c.277.28.598.5.955.656a.728.728 0 00.962-.39.745.745 0 00.048-.417v-3.895c0-1.753 1.098-3.305 2.732-3.863l1.54-.525c.295-.1.571-.243.824-.422a8.563 8.563 0 001.717.352l-1.636 5.866a.749.749 0 00.16.698l1.883 2.13a.73.73 0 00.528.246h.018a.728.728 0 00.52-.22l2.084-2.13a.75.75 0 00.179-.744l-1.811-5.868a8.624 8.624 0 001.781-.417c.283.22.602.394.941.509l1.538.524a4.052 4.052 0 012.37 2.166c.231.514.353 1.06.362 1.624l.002.04v4.377c0 .41.328.743.733.743a.737.737 0 00.732-.742v-4.344c0-.039 0-.076-.002-.114a5.583 5.583 0 00-.286-1.665c.244-.174.512-.312.8-.411l1.25-.427c.232-.079.45-.187.65-.322.392.119.79.204 1.194.254l-1.285 4.606a.751.751 0 00.16.698l1.53 1.73a.729.729 0 00.527.247h.018a.728.728 0 00.52-.22l1.693-1.73a.75.75 0 00.18-.745l-1.423-4.609c.42-.062.835-.162 1.24-.3.227.169.477.3.747.391l1.25.427a3.164 3.164 0 012.126 3.005v3.047a.746.746 0 00.04.45.732.732 0 00.961.394c.36-.156.685-.378.964-.66l3.097-3.141a3.135 3.135 0 00.159-4.197l-1.961-2.317a.24.24 0 01-.03-.268 20.083 20.083 0 001.614-3.862.234.234 0 01.21-.164l3.04-.188C48.744 30.724 50 29.369 50 27.739v-4.441c0-1.605-1.237-2.959-2.816-3.081zm-24.973 4.684l-4.509-1.471a.724.724 0 00-.563.049l-1.704.901v-.87c0-1.016.813-1.842 1.812-1.842h3.15c1 0 1.814.826 1.814 1.841v1.392zm-6.776 1.155l2.11-1.118 4.666 1.523v2.238c0 .52-.272 1.011-.71 1.282l-1.911 1.181a1.453 1.453 0 01-1.535 0l-1.911-1.181a1.514 1.514 0 01-.71-1.282v-2.643zm3.355 8.959a7.123 7.123 0 01-1.679-.163c.218-.45.336-.95.336-1.46v-.874a2.9 2.9 0 001.376.35 2.9 2.9 0 001.375-.35v.875c0 .482.102.95.294 1.376a7.15 7.15 0 01-1.702.246zm-.04 8.557l-1.097-1.24 1.105-3.96 1.218 3.947-1.226 1.253zm16.656-15.04l-3.483-1.137a.724.724 0 00-.563.049l-1.183.626v-.478c0-.747.599-1.356 1.335-1.356h2.559c.736 0 1.335.608 1.335 1.356v.94zm-5.23 1.213l1.59-.841 3.64 1.187v1.717c0 .374-.196.727-.51.922l-1.553.96c-.34.21-.763.21-1.104 0l-1.552-.96a1.09 1.09 0 01-.51-.922v-2.063zm2.586 7.053a5.687 5.687 0 01-1.165-.096 2.86 2.86 0 00.214-1.081v-.49a2.485 2.485 0 001.96 0v.49c0 .354.065.699.188 1.02a5.648 5.648 0 01-1.197.157zm-.025 6.887l-.743-.839.752-2.693.826 2.679-.835.853zM48.535 27.74c0 .847-.653 1.55-1.486 1.602l-3.041.188a1.709 1.709 0 00-1.523 1.214 18.585 18.585 0 01-1.493 3.575 1.746 1.746 0 00.199 1.955l1.96 2.316c.536.633.5 1.591-.082 2.18l-2.561 2.598V41.73c0-2.001-1.256-3.775-3.124-4.412l-.988-.337c2.848-2.873 4.575-6.746 4.776-10.781a.739.739 0 00-.694-.78.735.735 0 00-.769.705c-.184 3.703-1.784 7.256-4.42 9.877a1.363 1.363 0 01-.053-.38V34.26l.422-.261a2.588 2.588 0 001.213-2.19v-4.216c0-1.567-1.256-2.842-2.8-2.842h-2.56c-1.543 0-2.799 1.274-2.799 2.841v4.216c0 .888.465 1.727 1.212 2.19l.423.26v1.363c0 .37-.154.729-.422.981-.138.13-.298.228-.476.288l-1.25.427c-.353.12-.683.28-.99.478a5.509 5.509 0 00-2.787-2.152l-1.538-.525a1.755 1.755 0 01-.723-.465 1.828 1.828 0 01-.498-1.26V31.62l.6-.37a3.014 3.014 0 001.412-2.55v-5.19c0-1.835-1.47-3.327-3.277-3.327h-3.151c-1.807 0-3.278 1.492-3.278 3.326V28.7c0 1.035.541 2.012 1.412 2.55l.601.371v1.773c0 .505-.209.991-.574 1.335a1.762 1.762 0 01-.646.39l-1.54.525c-2.23.762-3.73 2.88-3.73 5.27v2.454L6.93 40.769a1.629 1.629 0 01-.081-2.18l1.96-2.316c.461-.545.54-1.33.199-1.955a18.61 18.61 0 01-1.493-3.575 1.708 1.708 0 00-1.523-1.214l-3.04-.188a1.598 1.598 0 01-1.487-1.602v-4.441c0-.834.642-1.537 1.462-1.6l3.003-.233a1.71 1.71 0 001.503-1.238c.352-1.24.836-2.45 1.44-3.595.332-.63.24-1.415-.229-1.952l-2.022-2.315a1.623 1.623 0 01.066-2.199l3.098-3.14a1.573 1.573 0 012.15-.084L14.22 8.93a1.684 1.684 0 001.927.203 18.077 18.077 0 013.805-1.598 1.72 1.72 0 001.22-1.524l.23-3.044a1.6 1.6 0 011.578-1.482h4.38c.836 0 1.53.662 1.58 1.507l.186 3.083a1.723 1.723 0 001.198 1.543c1.223.377 2.409.887 3.525 1.514a1.686 1.686 0 001.929-.201l2.285-1.988a1.574 1.574 0 012.15.083l3.098 3.14c.59.6.62 1.565.066 2.199l-2.022 2.315a1.747 1.747 0 00-.229 1.952 18.573 18.573 0 011.44 3.595 1.71 1.71 0 001.504 1.238l3.002.233c.82.064 1.462.766 1.462 1.6v4.441z" fill="#333"/><path d="M24.159 8.95c-3.981.203-7.744 1.908-10.596 4.8a16.45 16.45 0 00-4.735 10.742c-.174 3.485.715 6.863 2.572 9.769a.729.729 0 001.013.22.749.749 0 00.217-1.027c-1.69-2.643-2.498-5.716-2.34-8.887A14.959 14.959 0 0114.6 14.8c2.594-2.63 6.016-4.182 9.634-4.367 7.502-.386 14.074 4.967 15.297 12.452a.734.734 0 00.843.611.742.742 0 00.603-.854C39.63 14.412 32.399 8.525 24.159 8.95z" fill="#333"/></svg>