<svg width="50" height="50" fill="none" xmlns="http://www.w3.org/2000/svg"><path d="M38.71 38.71h8.064v1.613H38.71V38.71zm3.225 3.225h1.613v1.613h-1.613v-1.613zm3.226 0h1.613v1.613h-1.613v-1.613zm-6.451 0h1.613v1.613H38.71v-1.613zM3.226 6.452h8.064v1.613H3.226V6.452zm6.451 3.225h1.613v1.613H9.677V9.677zm-6.451 0h1.613v1.613H3.226V9.677zm3.226 0h1.613v1.613H6.452V9.677z" fill="#333"/><path d="M38.71 28.007v-5.426h8.87A2.422 2.422 0 0050 20.16V2.42A2.422 2.422 0 0047.58 0H26.614a2.422 2.422 0 00-2.42 2.42v5.645h-9.677v-4.84H0v11.291h14.516V9.677h9.678v1.613h-2.201l-.707 2.205c-.622.2-1.225.449-1.797.741l-2.056-1.058-4.253 4.253 1.058 2.056c-.292.572-.54 1.174-.741 1.798l-2.207.708v5.426H2.42A2.422 2.422 0 000 29.84v17.74A2.422 2.422 0 002.42 50h20.967a2.422 2.422 0 002.42-2.42v-5.645h9.677v4.84H50V35.483H35.484v4.839h-9.678V38.71h2.201l.707-2.205a12.135 12.135 0 001.797-.741l2.056 1.058 4.253-4.254-1.058-2.055c.292-.572.54-1.174.741-1.798l2.207-.708zM12.903 12.903H1.613V4.84h11.29v8.064zm24.194 24.194h11.29v8.064h-11.29v-8.064zM32.258 25c0 3.729-2.828 6.808-6.452 7.21v-2.37a2.422 2.422 0 00-2.419-2.42h-5.224a7.219 7.219 0 01-.421-2.42c0-3.729 2.828-6.808 6.451-7.21v2.371a2.422 2.422 0 002.42 2.42h5.224A7.22 7.22 0 0132.258 25zm-.742-4.032a5.652 5.652 0 013.161-4.287v.255a2.422 2.422 0 002.42 2.419 2.422 2.422 0 002.42-2.42v-.253a5.652 5.652 0 013.16 4.286h-11.16zm1.549-12.416a2.91 2.91 0 012.907-2.907h.318v1.921l-1.888.944a2.407 2.407 0 00-1.113 1.147 2.903 2.903 0 01-.224-1.105zm3.225 7.642c.265-.038.533-.065.807-.065s.542.027.806.064v.742a.807.807 0 01-1.613 0v-.741zm4.614-6.538a2.407 2.407 0 00-1.112-1.146l-1.889-.944v-1.92h.319a2.91 2.91 0 012.907 2.906c0 .383-.08.756-.225 1.104zm-4.614 4.86c-.89 0-1.613-.723-1.613-1.613v-2.229a.8.8 0 01.446-.72l1.974-.988 1.973.987a.801.801 0 01.446.721v2.23c0 .889-.723 1.612-1.613 1.612H36.29zM25.807 2.42c0-.444.36-.806.806-.806H47.58c.445 0 .806.362.806.806v17.742a.807.807 0 01-.806.807h-3.274a7.267 7.267 0 00-4.148-5.765 3.21 3.21 0 00.97-2.3v-.562l.854-1.28a4.508 4.508 0 00.759-2.508 4.526 4.526 0 00-4.52-4.52h-2.25a4.526 4.526 0 00-4.52 4.52c0 .895.262 1.761.759 2.507l.854 1.281v.562c0 .901.372 1.714.97 2.3a7.267 7.267 0 00-4.149 5.765h-3.273a.807.807 0 01-.806-.807V2.42zM12.902 23.17l1.9-.61.118-.416c.226-.798.539-1.556.929-2.255l.212-.378-.911-1.77 2.59-2.59 1.77.911.378-.211a10.4 10.4 0 012.255-.93l.417-.118.608-1.899h1.024v3.267c-4.514.409-8.064 4.21-8.064 8.83 0 .828.122 1.636.344 2.42h-3.57v-4.252zM8.064 41.13v-4.032a4.843 4.843 0 014.032-4.766v1.848l-1.889.944a2.406 2.406 0 00-1.337 2.164v2.23c0 .9.373 1.713.97 2.3a7.247 7.247 0 00-1.272.763 2.37 2.37 0 01-.504-1.451zm4.032 0c-.89 0-1.613-.723-1.613-1.613v-2.229c0-.307.17-.584.446-.72l1.973-.988 1.974.987a.801.801 0 01.446.721v2.23c0 .889-.724 1.612-1.613 1.612h-1.613zm.806 1.613c.647 0 1.265.114 1.845.315l-.577 1.298h-2.535l-.577-1.298a5.613 5.613 0 011.844-.315zm.551 3.226l-.55 1.24-.552-1.24h1.102zm2.728-2.167a5.638 5.638 0 012.366 4.586h-4.404l2.038-4.586zm1.56-2.672c0 .532-.183 1.035-.504 1.45a7.298 7.298 0 00-1.273-.764 3.21 3.21 0 00.97-2.299v-2.229c0-.922-.512-1.75-1.337-2.164l-1.888-.944v-1.848a4.842 4.842 0 014.032 4.766v4.032zm-8.118 2.672l2.038 4.586H7.258c0-1.89.936-3.56 2.366-4.586zm14.57 3.78a.807.807 0 01-.807.806H20.16a7.219 7.219 0 00-1.738-4.7 3.973 3.973 0 00.932-2.558v-4.032a6.46 6.46 0 00-6.452-6.452 6.46 6.46 0 00-6.451 6.452v4.032c0 .947.333 1.842.931 2.558a7.218 7.218 0 00-1.738 4.7H2.42a.807.807 0 01-.806-.806V29.839c0-.445.361-.807.806-.807h20.968c.445 0 .806.362.806.807V47.58zM35.196 27.44l-.118.418a10.494 10.494 0 01-.929 2.254l-.212.378.911 1.77-2.59 2.59-1.77-.911-.378.211c-.7.392-1.459.706-2.255.93l-.417.118-.608 1.9h-1.024V33.83c4.514-.409 8.064-4.21 8.064-8.83 0-.828-.122-1.636-.344-2.42h3.57v4.252l-1.9.607z" fill="#333"/><path d="M3.226 30.645h1.613v1.613H3.226v-1.613zm17.742 0h1.613v1.613h-1.613v-1.613zM27.42 3.226h1.612v1.613H27.42V3.226zm17.741 0h1.613v1.613h-1.613V3.226z" fill="#333"/></svg>