<svg width="50" height="50" fill="none" xmlns="http://www.w3.org/2000/svg"><path d="M15.323 4.839a.806.806 0 100-1.613.806.806 0 000 1.613zm2.419-1.613h11.29v1.613h-11.29V3.226zm6.452 6.451h8.064v1.613h-8.064V9.677zm6.451 3.226h1.613v1.613h-1.613v-1.613zm-6.451 0h4.838v1.613h-4.838v-1.613zm0 3.226h8.064v1.613h-8.064v-1.613zm0 3.226h8.064v1.613h-8.064v-1.613z" fill="#333"/><path d="M50 49.812V34.274l-3.368-2.526-1.037-2.592a7.211 7.211 0 00-1.607-2.437L38.71 21.44V4.032A4.037 4.037 0 0034.677 0H8.871a4.037 4.037 0 00-4.032 4.032v18.886l-2.226 2.226A8.863 8.863 0 000 31.451c0 .488.041.982.121 1.466l1.255 7.526a14.8 14.8 0 00.855 3.057l.995 2.488V50h11.29v-3.877l.557-1.39a15.8 15.8 0 00.41-1.185H39.56L50 49.812zm-1.613-2.85l-9.99-5.994 7.647-7.645 2.343 1.758v11.881zm-4.29-17.207l.925 2.309-8.21 8.21-3.434-.49a5.648 5.648 0 01-2.816-1.252l-1.638-1.365a7.273 7.273 0 00-3.117-1.512v-.171h-1.649a.77.77 0 01-.428-1.41l.3-.2a4.803 4.803 0 012.672-.81c1.287 0 2.497.501 3.407 1.412l.772.772 1.14-1.14-.771-.772L20.426 22.51a.905.905 0 011.279-1.279l6.451 6.452 3.532 3.531 1.14-1.14-3.531-3.531a.905.905 0 011.279-1.279l3.531 3.531 1.14-1.14-3.53-3.532a.905.905 0 011.28-1.279l1.611 1.613 1.919 1.919 1.14-1.14-1.919-1.92a.905.905 0 011.279-1.279l5.821 5.822c.544.543.964 1.18 1.25 1.895zm-19.94 7.342h.037v1.613h-4.84v-1.613h4.803zm-8.646-6.452h3.844v-4.838h-4.839v2.273a2.682 2.682 0 00-1.75-.66c-1.24 0-2.315.84-2.616 2.042l-.473 1.89V8.065h24.194v13.422a2.49 2.49 0 00-1.515-.52 2.515 2.515 0 00-2.508 2.429 2.515 2.515 0 00-2.21 1.49l-4.793-4.794c-.082-.082-.174-.148-.264-.218V9.677H11.29v11.29h7.432a2.498 2.498 0 00-.175.905c0 .245.046.48.113.709h-7.37v1.613h8.536l1.613 1.613h-.472v4.838h4.838v-.472l1.299 1.298c-.134-.008-.267-.02-.403-.02a6.394 6.394 0 00-3.084.807h-7.983l-.124-1.613zm.618-1.613V27.42h1.613v1.613h-1.613zm0-17.742h1.613v1.613h-1.613V11.29zm3.226 3.226V11.29h1.613v8.065h-8.065V11.29h1.613v3.226h4.839zM22.58 27.42h.472l1.14 1.14v.473H22.58V27.42zM6.45 4.032a2.422 2.422 0 012.42-2.42h25.806a2.422 2.422 0 012.42 2.42v16.242a2.512 2.512 0 00-.71-.113 2.49 2.49 0 00-.903.175V6.452H8.064v29.603c-.101.22-.199.443-.308.66a.69.69 0 01-1.305-.307V4.032zm6.452 44.355H4.84v-1.613h8.064v1.613zm.672-4.253l-.411 1.027H4.632l-.903-2.26a13.202 13.202 0 01-.762-2.722l-1.255-7.526c-.065-.396-.1-.8-.1-1.201 0-1.952.76-3.787 2.141-5.167l1.086-1.086v11.21a2.304 2.304 0 002.301 2.3 2.29 2.29 0 002.06-1.272 25.307 25.307 0 001.91-5.166l.605-2.418a1.08 1.08 0 011.051-.82c.563 0 1.038.439 1.08 1l.632 8.203a13.115 13.115 0 01-.903 5.898zm2.303-2.199a14.744 14.744 0 00.207-3.822l-.325-4.242h6.187a2.372 2.372 0 00-.173.843c0 .272.055.527.139.77h-4.171v4.839h8.064V37.33a5.636 5.636 0 012.085 1.076l1.638 1.364a7.253 7.253 0 003.62 1.61l3.672.524.052.031H15.878z" fill="#333"/></svg>