<svg width="21" height="28" fill="none" xmlns="http://www.w3.org/2000/svg"><path d="M10.033 0C4.501 0 0 4.5 0 10.033c0 1.821.817 3.78.851 3.863.264.626.784 1.598 1.16 2.169L8.89 26.488c.281.427.698.672 1.143.672.445 0 .862-.245 1.143-.672l6.88-10.423a16.11 16.11 0 001.16-2.17c.034-.081.85-2.04.85-3.862C20.066 4.501 15.566 0 10.033 0zm8.094 13.438a14.83 14.83 0 01-1.057 1.977l-6.88 10.424c-.135.206-.178.206-.314 0l-6.88-10.424a14.836 14.836 0 01-1.057-1.978c-.01-.024-.759-1.827-.759-3.404 0-4.881 3.972-8.853 8.853-8.853s8.853 3.972 8.853 8.853c0 1.58-.751 3.387-.759 3.405z" fill="#EA374C"/><path d="M10.033 4.722a5.318 5.318 0 00-5.312 5.312 5.318 5.318 0 005.312 5.311 5.318 5.318 0 005.312-5.311 5.318 5.318 0 00-5.312-5.312zm0 9.443a4.136 4.136 0 01-4.131-4.131 4.136 4.136 0 014.131-4.132 4.136 4.136 0 014.131 4.132 4.136 4.136 0 01-4.131 4.13z" fill="#EA374C"/></svg>