<svg width="242" height="48" fill="none" xmlns="http://www.w3.org/2000/svg"><path d="M33.022 22l-2.114-3.01a9.15 9.15 0 01-.616.028H27.87V22h-1.4v-9.8h3.822c1.27 0 2.268.303 2.996.91.728.607 1.092 1.442 1.092 2.506 0 .756-.187 1.4-.56 1.932-.373.532-.905.92-1.596 1.162L34.548 22h-1.526zm-2.772-4.172c.887 0 1.563-.191 2.03-.574.467-.383.7-.929.7-1.638 0-.71-.233-1.25-.7-1.624-.467-.383-1.143-.574-2.03-.574h-2.38v4.41h2.38zm10.452 4.284c-1.307 0-2.324-.373-3.052-1.12-.728-.747-1.092-1.82-1.092-3.22V12.2h1.4v5.516c0 2.1.92 3.15 2.758 3.15.896 0 1.582-.257 2.058-.77.476-.523.714-1.316.714-2.38V12.2h1.358v5.572c0 1.41-.364 2.487-1.092 3.234-.728.737-1.745 1.106-3.052 1.106zm62.922-9.512V35h-3.2v-9.984H87.56V35h-3.2V12.6h3.2v9.632h12.864V12.6h3.2zm15.985 22.656c-2.987 0-5.312-.853-6.976-2.56-1.664-1.707-2.496-4.16-2.496-7.36V12.6h3.2v12.608c0 4.8 2.101 7.2 6.304 7.2 2.048 0 3.616-.587 4.704-1.76 1.088-1.195 1.632-3.008 1.632-5.44V12.6h3.104v12.736c0 3.221-.832 5.685-2.496 7.392-1.664 1.685-3.99 2.528-6.976 2.528zM154.905 12.6V35h-2.624l-13.44-16.704V35h-3.2V12.6h2.624l13.44 16.704V12.6h3.2zm11.153 2.784h-7.68V12.6h18.528v2.784h-7.68V35h-3.168V15.384zm30.589 16.832V35h-16.256V12.6h15.808v2.784h-12.608v6.88h11.232v2.72h-11.232v7.232h13.056zM216.805 35l-4.832-6.88a20.77 20.77 0 01-1.408.064h-5.536V35h-3.2V12.6h8.736c2.901 0 5.184.693 6.848 2.08 1.664 1.387 2.496 3.296 2.496 5.728 0 1.728-.427 3.2-1.28 4.416-.854 1.216-2.07 2.101-3.648 2.656l5.312 7.52h-3.488zm-6.336-9.536c2.026 0 3.573-.437 4.64-1.312 1.066-.875 1.6-2.123 1.6-3.744s-.534-2.859-1.6-3.712c-1.067-.875-2.614-1.312-4.64-1.312h-5.44v10.08h5.44zm21.138 9.792c-1.686 0-3.318-.256-4.896-.768-1.558-.533-2.784-1.216-3.68-2.048l1.184-2.496c.853.768 1.941 1.397 3.264 1.888 1.344.47 2.72.704 4.128.704 1.856 0 3.242-.31 4.16-.928.917-.64 1.376-1.483 1.376-2.528 0-.768-.256-1.387-.768-1.856-.491-.49-1.11-.864-1.856-1.12-.726-.256-1.76-.544-3.104-.864-1.686-.405-3.051-.81-4.096-1.216a6.97 6.97 0 01-2.656-1.856c-.726-.853-1.088-1.995-1.088-3.424 0-1.195.309-2.272.928-3.232.64-.96 1.6-1.728 2.88-2.304 1.28-.576 2.869-.864 4.768-.864 1.322 0 2.624.17 3.904.512 1.28.341 2.378.832 3.296 1.472l-1.056 2.56a11.213 11.213 0 00-3.008-1.344 10.882 10.882 0 00-3.136-.48c-1.814 0-3.179.33-4.096.992-.896.661-1.344 1.515-1.344 2.56 0 .768.256 1.397.768 1.888.512.47 1.141.843 1.888 1.12.768.256 1.802.533 3.104.832 1.685.405 3.04.81 4.064 1.216a6.714 6.714 0 012.624 1.856c.746.832 1.12 1.952 1.12 3.36 0 1.173-.32 2.25-.96 3.232-.64.96-1.611 1.728-2.912 2.304-1.302.555-2.902.832-4.8.832z" fill="#F11508"/><path d="M3.36 37.07a5.868 5.868 0 01-1.722-.252c-.541-.177-.966-.397-1.274-.658l.448-.784c.308.243.695.443 1.162.602.467.15.952.224 1.456.224.672 0 1.167-.103 1.484-.308.327-.215.49-.513.49-.896 0-.27-.089-.48-.266-.63a1.646 1.646 0 00-.672-.35 8.48 8.48 0 00-1.078-.238 13.628 13.628 0 01-1.442-.336 2.226 2.226 0 01-.938-.602c-.252-.28-.378-.667-.378-1.162 0-.616.257-1.12.77-1.512.513-.392 1.227-.588 2.142-.588.476 0 .952.065 1.428.196.476.121.868.285 1.176.49l-.434.798c-.607-.42-1.33-.63-2.17-.63-.635 0-1.115.112-1.442.336-.317.224-.476.518-.476.882 0 .28.089.504.266.672.187.168.415.294.686.378.27.075.644.154 1.12.238.588.112 1.06.224 1.414.336.355.112.658.303.91.574.252.27.378.644.378 1.12 0 .644-.27 1.157-.812 1.54-.532.373-1.274.56-2.226.56zm8.628-7.49c.924 0 1.656.27 2.198.812.55.532.826 1.311.826 2.338V37h-.994v-4.172c0-.765-.192-1.349-.574-1.75-.383-.401-.93-.602-1.638-.602-.794 0-1.424.238-1.89.714-.458.467-.686 1.115-.686 1.946V37h-.994V26.612h.994v4.312c.27-.43.644-.76 1.12-.994.476-.233 1.022-.35 1.638-.35zm12.162 4.046h-6.16c.056.765.35 1.386.882 1.862.532.467 1.204.7 2.016.7.457 0 .877-.08 1.26-.238.382-.168.714-.41.994-.728l.56.644c-.327.392-.738.69-1.232.896a4.092 4.092 0 01-1.61.308c-.756 0-1.428-.159-2.016-.476a3.545 3.545 0 01-1.358-1.344c-.327-.57-.49-1.213-.49-1.932 0-.719.154-1.363.462-1.932a3.46 3.46 0 011.288-1.33 3.634 3.634 0 011.848-.476c.68 0 1.292.159 1.834.476.54.317.966.76 1.274 1.33.308.56.462 1.204.462 1.932l-.014.308zm-3.556-3.192c-.71 0-1.307.229-1.792.686-.476.448-.747 1.036-.812 1.764h5.222c-.066-.728-.341-1.316-.826-1.764-.476-.457-1.074-.686-1.792-.686zm9.345-.854c.924 0 1.656.27 2.198.812.55.532.826 1.311.826 2.338V37h-.994v-4.172c0-.765-.192-1.349-.574-1.75-.383-.401-.929-.602-1.638-.602-.794 0-1.424.238-1.89.714-.458.467-.686 1.115-.686 1.946V37h-.994v-7.364h.952v1.358c.27-.448.644-.793 1.12-1.036.485-.252 1.045-.378 1.68-.378zm9.6 6.972c-.186.168-.42.299-.7.392a2.86 2.86 0 01-.854.126c-.69 0-1.222-.187-1.596-.56-.373-.373-.56-.9-.56-1.582v-4.452h-1.316v-.84h1.316v-1.61h.994v1.61h2.24v.84h-2.24v4.396c0 .439.108.775.322 1.008.224.224.542.336.952.336.206 0 .402-.033.588-.098.196-.065.364-.159.504-.28l.35.714zm3.784.518a5.869 5.869 0 01-1.722-.252c-.541-.177-.966-.397-1.274-.658l.448-.784c.308.243.695.443 1.162.602.467.15.952.224 1.456.224.672 0 1.167-.103 1.484-.308.327-.215.49-.513.49-.896 0-.27-.089-.48-.266-.63a1.646 1.646 0 00-.672-.35 8.48 8.48 0 00-1.078-.238 13.63 13.63 0 01-1.442-.336 2.226 2.226 0 01-.938-.602c-.252-.28-.378-.667-.378-1.162 0-.616.257-1.12.77-1.512.513-.392 1.227-.588 2.142-.588.476 0 .952.065 1.428.196.476.121.868.285 1.176.49l-.434.798c-.607-.42-1.33-.63-2.17-.63-.635 0-1.115.112-1.442.336-.317.224-.476.518-.476.882 0 .28.089.504.266.672.187.168.415.294.686.378.27.075.644.154 1.12.238.588.112 1.06.224 1.414.336.355.112.658.303.91.574.252.27.378.644.378 1.12 0 .644-.27 1.157-.812 1.54-.532.373-1.274.56-2.226.56zm11.288-3.444h-6.16c.056.765.35 1.386.882 1.862.532.467 1.203.7 2.016.7.457 0 .877-.08 1.26-.238.382-.168.713-.41.993-.728l.56.644c-.326.392-.737.69-1.231.896a4.092 4.092 0 01-1.61.308c-.756 0-1.428-.159-2.017-.476a3.545 3.545 0 01-1.358-1.344c-.326-.57-.49-1.213-.49-1.932 0-.719.154-1.363.462-1.932a3.461 3.461 0 011.288-1.33 3.634 3.634 0 011.848-.476c.682 0 1.293.159 1.834.476.542.317.967.76 1.275 1.33.308.56.462 1.204.462 1.932l-.014.308zm-3.556-3.192c-.71 0-1.307.229-1.792.686-.477.448-.747 1.036-.813 1.764h5.222c-.065-.728-.34-1.316-.825-1.764-.477-.457-1.074-.686-1.793-.686zm11.644-.798L59.423 37h-1.022l-3.262-7.364h1.036l2.758 6.272 2.786-6.272h.98zm3.757-.056c.962 0 1.699.243 2.212.728.513.476.77 1.185.77 2.128V37h-.952v-1.148a2.272 2.272 0 01-.994.896c-.43.215-.943.322-1.54.322-.821 0-1.474-.196-1.96-.588-.485-.392-.728-.91-.728-1.554 0-.625.224-1.13.672-1.512.458-.383 1.18-.574 2.17-.574h2.338v-.448c0-.635-.177-1.115-.532-1.442-.355-.336-.873-.504-1.554-.504-.467 0-.915.08-1.344.238-.43.15-.798.36-1.106.63l-.448-.742c.373-.317.821-.56 1.344-.728a5.108 5.108 0 011.652-.266zm-.35 6.706c.56 0 1.04-.126 1.442-.378.401-.261.7-.635.896-1.12v-1.204h-2.31c-1.26 0-1.89.439-1.89 1.316 0 .43.163.77.49 1.022.327.243.784.364 1.372.364z" fill="#333"/><path stroke="#333" stroke-width="2" d="M77 12v25"/></svg>