<svg width="50" height="50" fill="none" xmlns="http://www.w3.org/2000/svg"><path d="M44.61 48.387h-1.593V38.71h-4.78v9.677h-1.593v-6.452h-4.78v6.452h-1.593v-3.226h-4.78v3.226h-1.593v-5.556c0-.416-.028-.824-.056-1.233l8.792-5.934 3.172 2.409L50 29.092l-4.115-3.124-.956 1.29 2.257 1.714-11.298 7.148-3.2-2.43-9.06 6.115a17.106 17.106 0 00-7.696-11.502v-4.11h29.475c1.317 0 2.39-1.086 2.39-2.42 0-.318-.065-.62-.176-.899a2.411 2.411 0 001.147-3.938c.383-.43.622-.992.622-1.613a2.42 2.42 0 00-.622-1.613c.383-.43.622-.992.622-1.613 0-1.334-1.072-2.42-2.39-2.42h-3.983a1.605 1.605 0 01-1.593-1.612V4.032c0-1.077-.415-2.09-1.167-2.851A3.931 3.931 0 0037.44 0c-1.318 0-2.39 1.085-2.39 2.42v1.993a4.252 4.252 0 01-2.023 3.617 5.819 5.819 0 00-2.5 3.155l-.01.034-9.827-1.17a6.352 6.352 0 00-.59-2.405 7.275 7.275 0 002.204-5.225c0-1.334-1.072-2.419-2.39-2.419h-8.287C5.216 0 0 5.28 0 11.772c0 4.487 2.463 8.522 6.427 10.529l1.54.778v3.055c-2.96 1.698-4.78 4.834-4.78 8.308V50H49.39V35.484h-4.78v12.903zM21.902 39.35l-7.11-4.798 1.726-1.747-7.617-3.428.458-1.855c6.268.993 11.166 5.748 12.543 11.828zM33.848 9.413c1.725-1.048 2.796-2.964 2.796-5V2.419c0-.445.357-.806.797-.806.639 0 1.238.252 1.69.708.45.456.7 1.064.7 1.711v4.033c0 1.778 1.429 3.225 3.186 3.225H47c.439 0 .796.362.796.807a.802.802 0 01-.797.806h-5.576v1.613H47c.44 0 .797.361.797.807a.802.802 0 01-.797.806h-5.576v1.613H47c.44 0 .797.361.797.806a.802.802 0 01-.797.807h-5.576v1.613h3.983a.8.8 0 01.796.806.802.802 0 01-.796.807H31.864V12.227l.176-.532a4.203 4.203 0 011.808-2.282zM30.27 22.58H19.896a4.025 4.025 0 00.816-2.419v-3.534l.197-.1a2.546 2.546 0 001.396-2.287c0-.507-.147-.997-.424-1.419l-.72-1.092 9.11 1.085v9.766zM19.12 10.346v.456c0 .479.138.942.401 1.342l1.035 1.572a.949.949 0 01.157.524c0 .36-.198.684-.516.845l-.196.1a1.604 1.604 0 00-.881 1.442v3.534c0 1.33-1.066 2.412-2.379 2.419h-3.994v1.613h1.593v3.23a16.726 16.726 0 00-4.78-1.497v-7.78L7.117 16.29a1.897 1.897 0 01-.744-1.505c0-1.037.834-1.882 1.858-1.882H9.56V11.39c0-.987.59-1.857 1.47-2.228a3.134 3.134 0 001.717.516h2.39a7.05 7.05 0 003.66-1.028c.206.54.323 1.112.323 1.697zM7.14 20.857c-3.421-1.731-5.547-5.213-5.547-9.085 0-5.602 4.501-10.16 10.035-10.16h8.287c.44 0 .797.363.797.807 0 3.113-2.502 5.646-5.576 5.646h-2.39a1.605 1.605 0 01-1.594-1.613c0-.89.715-1.613 1.594-1.613V3.226c-1.758 0-3.187 1.447-3.187 3.226 0 .533.141 1.03.37 1.475A4.029 4.029 0 007.966 11.3c-1.78.137-3.187 1.647-3.187 3.484 0 1.093.515 2.138 1.38 2.795l1.806 1.372v2.324l-.826-.419zm15.165 27.53H11.153V36.958a6.396 6.396 0 00-1.827-4.464l-1.127 1.14a4.762 4.762 0 011.36 3.324v11.43H4.78V34.441c0-2.349 1.012-4.5 2.708-5.986L7.03 30.3l6.722 3.024-1.46 1.478 9.952 6.718c.036.432.06.868.06 1.31v5.556zm17.526-8.064h1.593v8.064H39.83v-8.064zm-6.373 3.225h1.593v4.84h-1.593v-4.84zm-6.373 3.226h1.593v1.613h-1.593v-1.613zm19.118-9.677h1.594v11.29h-1.594v-11.29z" fill="#EA374C"/><path d="M23.898 29.032h1.593v1.613h-1.593v-1.613zm3.187 0h1.593v1.613h-1.593v-1.613zm3.186 0h1.593v1.613h-1.593v-1.613z" fill="#EA374C"/></svg>