<svg width="50" height="44" fill="none" xmlns="http://www.w3.org/2000/svg"><path d="M35.042 18.674a.732.732 0 00.55-.709v-2.647a.732.732 0 00-.55-.71l-1.82-.469a8.538 8.538 0 00-.639-1.542l.955-1.619a.732.732 0 00-.113-.89l-1.872-1.871a.732.732 0 00-.89-.113l-1.619.955a8.54 8.54 0 00-1.541-.64l-.47-1.82a.732.732 0 00-.71-.549h-2.646a.732.732 0 00-.71.55l-.47 1.82a8.538 8.538 0 00-1.541.639l-1.62-.955a.732.732 0 00-.89.113l-1.871 1.871a.732.732 0 00-.113.89l.955 1.62a8.545 8.545 0 00-.639 1.541l-1.82.47a.733.733 0 00-.55.71v2.646c0 .334.227.626.55.71l1.82.469a8.55 8.55 0 00.639 1.542l-.955 1.619a.733.733 0 00.113.89l1.872 1.872a.733.733 0 00.89.113l1.619-.955a8.536 8.536 0 001.541.638l.47 1.82c.084.324.376.55.71.55h2.646a.732.732 0 00.71-.55l.47-1.82a8.54 8.54 0 001.541-.638l1.62.955c.287.17.653.123.89-.113l1.87-1.872a.732.732 0 00.114-.89l-.955-1.62a8.539 8.539 0 00.639-1.541l1.82-.47zm-10.798 7.094l-.41-1.588.03-4.274a.732.732 0 00-.468-.687c-1.19-.463-1.872-1.58-1.872-3.064a3.23 3.23 0 011.166-2.474v2.157c0 .226.104.44.283.578l1.578 1.227a.732.732 0 00.9 0l1.577-1.227a.732.732 0 00.283-.578v-2.156a3.229 3.229 0 011.165 2.473c0 1.486-.679 2.603-1.864 3.064a.732.732 0 00-.467.686l.021 4.274-.41 1.589h-1.512zm8.201-7.937a.732.732 0 00-.527.533 7.08 7.08 0 01-.808 1.95.732.732 0 00-.004.75l.882 1.496-1.07 1.07-1.494-.882a.732.732 0 00-.75.003 7.083 7.083 0 01-1.047.518l-.015-2.9c1.468-.777 2.33-2.316 2.33-4.213 0-1.959-1.216-3.697-3.098-4.429-.572-.123-1.002.091-.998.683v3.07l-.846.657-.845-.657v-3.07c-.093-.579-.425-.807-.998-.683-1.882.731-3.098 2.47-3.098 4.428 0 1.897.863 3.435 2.336 4.214l-.02 2.901a7.073 7.073 0 01-1.048-.519.732.732 0 00-.75-.003l-1.496.881-1.069-1.069.882-1.495a.733.733 0 00-.004-.75 7.076 7.076 0 01-.808-1.95.732.732 0 00-.527-.534l-1.681-.433v-1.513l1.68-.433a.732.732 0 00.528-.533 7.078 7.078 0 01.808-1.95.732.732 0 00.004-.75l-.882-1.496 1.07-1.07 1.494.882c.232.137.52.136.75-.003a7.079 7.079 0 011.951-.808.732.732 0 00.533-.528l.434-1.68h1.512l.434 1.68c.067.26.271.463.532.528a7.08 7.08 0 011.951.808c.23.139.519.14.75.003l1.496-.881 1.069 1.069-.882 1.495a.732.732 0 00.004.75c.365.606.637 1.263.808 1.95a.732.732 0 00.527.534l1.681.433v1.513l-1.68.433z" fill="#EA374C"/><path d="M46.736 0h-20.48a.732.732 0 100 1.465h20.48c.975 0 1.8.823 1.8 1.797v29.71c0 1.202-.561 1.762-1.764 1.762H35.696a.732.732 0 100 1.465h11.076c2.021 0 3.228-1.206 3.228-3.227V3.262C50 1.494 48.505 0 46.736 0z" fill="#EA374C"/><path d="M46.234 15.778a.732.732 0 00.733-.732V3.726a.732.732 0 00-.733-.733H3.766a.732.732 0 00-.733.733V29.36c0 .405.328.733.733.733h42.468a.732.732 0 00.733-.733V18.237a.732.732 0 10-1.465 0v10.39H4.498V4.459h41.004v10.588c0 .404.328.732.732.732z" fill="#EA374C"/><path d="M34.1 39.395h-4.018l-1.04-3.196h3.462a.732.732 0 100-1.465H3.228c-.972 0-1.763-.79-1.763-1.761V3.262c0-.974.824-1.797 1.799-1.797h19.8a.732.732 0 100-1.465h-19.8C1.494 0 0 1.494 0 3.262v29.71A3.23 3.23 0 003.228 36.2h17.73l-1.04 3.196H15.9a.732.732 0 00-.732.732v3.041c0 .405.327.733.732.733h18.2a.732.732 0 00.733-.733v-3.041a.733.733 0 00-.733-.732zm-11.602-3.196h5.004l1.04 3.196h-7.084l1.04-3.196zm10.87 6.237H16.632v-1.577h16.736v1.577z" fill="#EA374C"/><path d="M25 33.282a.732.732 0 110-1.465.732.732 0 010 1.465zm3.033 0a.732.732 0 110-1.465.732.732 0 010 1.465zm-6.066 0a.732.732 0 110-1.465.732.732 0 010 1.465z" fill="#EA374C"/></svg>