<svg width="50" height="57" fill="none" xmlns="http://www.w3.org/2000/svg"><path d="M0 50.724v3.907c0 .772.628 1.4 1.4 1.4h9.159c.771 0 1.399-.628 1.399-1.4v-3.907a4.205 4.205 0 00-2.914-3.996 3.954 3.954 0 00.908-2.524 3.979 3.979 0 00-3.148-3.886v-2.712c0-.046.037-.083.081-.083h17.29v2.795a3.978 3.978 0 00-3.148 3.886c0 .958.341 1.837.907 2.524a4.204 4.204 0 00-2.913 3.996v3.907c0 .772.628 1.4 1.4 1.4h9.159c.771 0 1.399-.628 1.399-1.4v-.72a.825.825 0 10-1.65 0v.47h-.943v-3.778a.825.825 0 10-1.65 0v3.778h-3.472v-3.778a.825.825 0 10-1.65 0v3.778h-.943v-3.657a2.55 2.55 0 012.548-2.548h3.562c1.209 0 2.26.862 2.498 2.049a.824.824 0 101.618-.326 4.216 4.216 0 00-2.833-3.17 3.954 3.954 0 00.909-2.525 3.98 3.98 0 00-3.148-3.886v-2.794h17.29c.044 0 .081.036.081.081v2.713a3.98 3.98 0 00-3.148 3.886c0 .957.34 1.837.908 2.524a4.205 4.205 0 00-2.914 3.996v3.907c0 .772.628 1.4 1.4 1.4H48.6c.772 0 1.4-.628 1.4-1.4v-3.907a4.205 4.205 0 00-2.914-3.996 3.954 3.954 0 00.907-2.524 3.98 3.98 0 00-3.147-3.886v-2.712c0-.955-.777-1.732-1.731-1.732h-17.29v-2.751h10.427c1.11 0 2.012-.903 2.012-2.013v-6.012c0-3.483-2.99-4.752-3.117-4.805l-.016-.006-6.519-2.525v-1.258c1.01-.824 1.723-2 1.951-3.34A2.642 2.642 0 0032.267 8.9V6.923A7.156 7.156 0 0027.164.036a.825.825 0 00-.48 1.578 5.517 5.517 0 013.933 5.31v.894c-.056-.25-.242-.47-.472-.729-.203-.226-.7-.751-1.334-1.432a1.255 1.255 0 00-1.61-.197c-.265.173-.538.333-.817.481-1.727.919-3.7 1.364-5.539 1.233a1.259 1.259 0 00-1.257.775 3.375 3.375 0 00-.07.013V6.923a5.538 5.538 0 013.815-5.27.824.824 0 10-.515-1.568 7.185 7.185 0 00-4.95 6.838v2.03a2.5 2.5 0 00-.576 1.594c0 1.297.941 2.423 2.279 2.62a5.406 5.406 0 002.065 3.418v1.178l-6.512 2.524-.016.006-.056.025c-.433.195-3.061 1.515-3.061 4.78v6.012c0 1.11.903 2.013 2.013 2.013h10.171v2.75H6.885c-.955 0-1.73.778-1.73 1.733v2.712a3.979 3.979 0 00-3.149 3.886c0 .958.34 1.837.908 2.524A4.203 4.203 0 000 50.724zm27.323-6.52A2.326 2.326 0 0125 46.527a2.325 2.325 0 01-2.323-2.323A2.325 2.325 0 0125 41.88a2.326 2.326 0 012.323 2.323zm21.027 6.52v3.657h-.943v-3.778a.825.825 0 10-1.65 0v3.778h-3.472v-3.778a.825.825 0 10-1.65 0v3.778h-.943v-3.657a2.55 2.55 0 012.547-2.548h3.564a2.55 2.55 0 012.547 2.548zm-2.006-6.52a2.325 2.325 0 01-2.323 2.323 2.326 2.326 0 01-2.323-2.323 2.326 2.326 0 012.323-2.323 2.325 2.325 0 012.323 2.323zm-21.209-28.11c-2.44 0-3.993-1.9-3.993-3.857V8.84c2.308.074 4.7-.603 6.682-1.822.624.669.997 1.06 1.17 1.256v3.963a3.867 3.867 0 01-3.858 3.858zm5.508-4.658V9.662a.99.99 0 010 1.774zm-11.702-.889c0-.357.234-.66.551-.836v1.725a.989.989 0 01-.55-.889zm6.195 7.197c.63 0 1.263-.113 1.827-.311v.46c0 .52.282 1 .722 1.259a3.666 3.666 0 01-5.197.038c.483-.256.797-.766.797-1.32v-.414c.585.19 1.227.288 1.85.288zM13.64 31.11V25.1c0-2.33 1.962-3.222 2.09-3.278l5.101-1.977.326.346c2.148 2.282 5.672 2.282 7.82 0l.356-.379 5.19 2.01c1.169.506 2.09 1.773 2.09 3.278v6.011c0 .2-.162.363-.362.363h-2.423V26.12a.825.825 0 10-1.65 0v5.353H18.077V26.12a.824.824 0 10-1.65 0v5.353h-2.422a.363.363 0 01-.363-.363zM5.979 41.88a2.325 2.325 0 012.323 2.324 2.325 2.325 0 01-2.323 2.323 2.326 2.326 0 01-2.323-2.323 2.326 2.326 0 012.323-2.323zm-4.33 8.844a2.55 2.55 0 012.548-2.548h3.564a2.55 2.55 0 012.547 2.548v3.657h-.943v-3.778a.825.825 0 10-1.65 0v3.778H4.243v-3.778a.825.825 0 10-1.65 0v3.778H1.65v-3.657z" fill="#EA374C"/></svg>