<svg width="51" height="49" fill="none" xmlns="http://www.w3.org/2000/svg"><path d="M19.654 30.032h3.162v1.58h-3.162v-1.58zm7.904 0h3.161v1.58h-3.161v-1.58z" fill="#EA374C"/><path d="M44.05 30.032h4.055v-.79c0-2.844-1.68-5.295-4.097-6.433a5.53 5.53 0 002.517-4.632v-.79a3.164 3.164 0 003.161-3.161V7.113A7.12 7.12 0 0042.573 0H33.09c-3.921 0-7.113 3.19-7.113 7.113v7.113a3.164 3.164 0 003.162 3.161v.79c0 .267.029.53.066.79h-4.808V7.114C24.396 3.19 21.204 0 17.283 0H7.799A7.12 7.12 0 00.686 7.113V21.21c0 1.477.76 2.822 1.98 3.593a10.36 10.36 0 00-.399 2.857v2.371h4.056L0 39.516h3.848V49h1.58V37.935H2.954L7.8 30.667l4.846 7.268h-2.474V49h1.58v-9.484H15.6l-6.322-9.484h4.055v3.162a3.164 3.164 0 003.161 3.16v.791a5.53 5.53 0 002.517 4.632c-2.417 1.137-4.097 3.59-4.097 6.433V49H35.46v-.79c0-2.844-1.681-5.296-4.097-6.433a5.53 5.53 0 002.516-4.632v-.79a3.164 3.164 0 003.162-3.161v-3.162h4.055l-6.323 9.484h3.848V49h1.58V37.935h-2.474l4.846-7.268 4.845 7.268h-2.474V49h1.58v-9.484h3.849l-6.324-9.484zm2.419-1.58H40.69l-1.185-2.371 1.185-2.371h.302a5.54 5.54 0 015.477 4.742zm-9.427-4.742h1.882l-.79 1.58h-1.092v-1.58zm9.483-7.904v-3.16c.872 0 1.581.708 1.581 1.58 0 .871-.709 1.58-1.58 1.58zM33.09 1.582h9.484a5.539 5.539 0 015.532 5.532v4.39a3.131 3.131 0 00-1.58-.438h-.065a5.437 5.437 0 00-.756-2.08c.517-.76.82-1.676.82-2.662V4.742h-1.58v1.58a3.164 3.164 0 01-3.161 3.162 3.117 3.117 0 01-2.167-.882 4.707 4.707 0 00.586-2.28v-1.58h-1.58v1.58a3.165 3.165 0 01-3.162 3.162A3.164 3.164 0 0132.3 6.323V4.742h-1.581v1.58c0 .505.08.99.227 1.445a5.553 5.553 0 00-1.744 3.298h-.064a3.13 3.13 0 00-1.58.439V7.113A5.539 5.539 0 0133.09 1.58zm8.694 10.274a.791.791 0 11-1.583-.002.791.791 0 011.583.002zm-6.323 0a.791.791 0 11-1.582-.002.791.791 0 011.582.002zm-7.903 2.37c0-.87.709-1.58 1.58-1.58v3.162c-.871 0-1.58-.71-1.58-1.581zm3.161 3.952v-6.322c0-.975.367-1.907 1.004-2.625.327.42.721.783 1.17 1.073a2.351 2.351 0 00-.593 1.552 2.374 2.374 0 002.37 2.37 2.374 2.374 0 002.372-2.37 2.34 2.34 0 00-.224-.99 4.739 4.739 0 001.803-1.016c.186.168.38.325.59.46a2.352 2.352 0 00-.589 1.546 2.374 2.374 0 002.371 2.37 2.374 2.374 0 002.371-2.37c0-.355-.084-.689-.223-.99a4.715 4.715 0 001.413-.701 3.91 3.91 0 01.39 1.69v6.323a3.956 3.956 0 01-3.95 3.952h-3.952a3.164 3.164 0 00-3.162-3.161h-3.073a3.933 3.933 0 01-.088-.79zm4.742 12.295a3.13 3.13 0 00-1.58-.44v-2.37a2.374 2.374 0 00-2.372-2.372H18.864a2.374 2.374 0 00-2.37 2.371v2.371c-.58 0-1.114.168-1.581.44v-2.81c0-3.923 3.19-7.114 7.113-7.114H33.88c.872 0 1.581.71 1.581 1.581v8.343zm-21.737-21.5c-.247.374-.393.82-.393 1.301a2.374 2.374 0 002.371 2.371 2.374 2.374 0 002.371-2.37c0-.356-.084-.69-.224-.991a4.733 4.733 0 001.805-1.017v5.168a5.539 5.539 0 01-5.533 5.533h-3.16a5.539 5.539 0 01-5.533-5.533v-5.05c1.644-.873 2.945-1.874 4.074-3.129a7.938 7.938 0 004.222 3.717zm2.77 1.301a.791.791 0 11-1.583-.001.791.791 0 011.582.001zM10.96 20.548h3.161c.254 0 .504-.014.75-.04a7.123 7.123 0 01-.377 1.621H10.59a7.076 7.076 0 01-.377-1.62c.245.025.495.04.749.04zm2.738 3.162a7.15 7.15 0 01-1.157 1.349 7.078 7.078 0 01-1.157-1.35h2.314zm2.771-3.569c.083-.029.166-.058.248-.09.192.105.385.21.57.33a8.61 8.61 0 00-.907.68c.047-.303.075-.61.09-.92zm6.346-13.028v11.855h-.79c-1.121 0-2.19.22-3.174.608-.178-.138-.351-.281-.537-.407a7.1 7.1 0 002.92-5.734V7.903a2.36 2.36 0 00-.39-1.282c.25-.577.39-1.212.39-1.88h-1.58a3.164 3.164 0 01-3.162 3.162 6.33 6.33 0 01-6.322-6.322h7.113a5.539 5.539 0 015.532 5.532zM2.267 21.21V7.113A5.539 5.539 0 017.8 1.58h.79c0 .69.098 1.355.265 1.994-1.209 1.522-2.631 2.651-4.57 3.62l-.437.22v6.02a7.099 7.099 0 002.916 5.73 10.201 10.201 0 00-3.519 4.113 2.67 2.67 0 01-.978-2.067zm1.581 7.24v-.79c0-3.201 1.73-6.078 4.52-7.609.081.032.163.06.245.09a8.728 8.728 0 003.454 6.57l.475.356.474-.356c.15-.112.284-.24.425-.36-.065.428-.11.863-.11 1.308v.79l-9.483.002zm11.065 4.743c0-.872.708-1.581 1.58-1.581v3.161c-.871 0-1.58-.709-1.58-1.58zm3.16 3.951V27.66c0-.436.356-.79.791-.79h5.532v7.903h-3.16v.79a3.959 3.959 0 003.16 3.872v1.66h-2.37a3.956 3.956 0 01-3.952-3.95zm6.812 8.694h.604l.79 1.58h-2.184l.79-1.58zm.603-1.58h-.604l-.79-1.582h2.184l-.79 1.581zm-.301-6.324c-1.03 0-1.91-.66-2.236-1.58h4.47a2.374 2.374 0 01-2.234 1.58zm-3.162 4.742h.302l1.186 2.371-1.186 2.371H16.55a5.54 5.54 0 015.477-4.742zm11.798 4.742h-5.778l-1.185-2.37 1.185-2.372h.302a5.54 5.54 0 015.476 4.742zM32.3 37.145a3.956 3.956 0 01-3.952 3.952h-2.37v-1.66a3.958 3.958 0 003.16-3.872v-.79h-3.16V26.87h5.531a.79.79 0 01.79.79v9.484zm1.58-2.37v-3.162c.872 0 1.581.709 1.581 1.58 0 .872-.709 1.581-1.58 1.581zm3.162-7.904h1.092l.79 1.58h-1.882v-1.58z" fill="#EA374C"/><path d="M7.01 10.274a2.374 2.374 0 002.37 2.371 2.374 2.374 0 002.371-2.37 2.374 2.374 0 00-2.37-2.372 2.374 2.374 0 00-2.372 2.371zm2.37-.79a.791.791 0 11-.001 1.582.791.791 0 01.001-1.582zm.79 7.903h3.162a3.164 3.164 0 003.161-3.161h-1.58c0 .872-.71 1.58-1.581 1.58H10.17v1.581zm27.662 1.581c1.76 0 3.315-1.12 3.871-2.79l.04-.122-1.5-.498-.04.12a2.496 2.496 0 01-2.371 1.71 2.497 2.497 0 01-2.371-1.709l-.04-.121-1.5.498.04.123a4.073 4.073 0 003.871 2.789z" fill="#EA374C"/></svg>