<svg width="51" height="42" fill="none" xmlns="http://www.w3.org/2000/svg"><path d="M10.716 18.832c-1.165.074-2.394-.54-2.394-1.91a.737.737 0 011.474 0c0 .613 1.357.613 1.357 0a.737.737 0 011.474 0c0 1.053-.857 1.91-1.91 1.91zm29.375 0c-1.165.074-2.394-.54-2.394-1.91a.737.737 0 111.474 0c0 .613 1.357.613 1.357 0a.737.737 0 111.474 0c0 1.053-.858 1.91-1.91 1.91z" fill="#EA374C"/><path d="M48.136 24.445l-4.894-1.674v-1.473c1.265-.991 1.916-2.486 1.9-4.078h1.051a2.005 2.005 0 002.003-2.003v-.948c0-1.234-1.069-1.892-2.125-2.002v-1.735c0-2.41-1.96-4.37-4.37-4.37h-3.704a4.358 4.358 0 00-3.19 1.388v-.917c0-3.45-2.693-6.355-6.13-6.613a.737.737 0 10-.11 1.47c2.672.2 4.765 2.46 4.765 5.143v3.274h-1.236c-2.451 0-3.982-2.189-4.442-4.396-.177-.85-1.012-.776-1.33-.17-1.07 2.043-2.543 4.566-5.158 4.566h-4.163V6.633a5.165 5.165 0 015.16-5.159h3.247a.737.737 0 100-1.474h-3.247a6.64 6.64 0 00-6.634 6.633v.93a4.36 4.36 0 00-3.204-1.401H8.622c-2.41 0-4.37 1.96-4.37 4.37v1.735c-1.056.11-2.124.768-2.124 2.002v.948c0 1.104.898 2.003 2.002 2.003h1.05c-.016 1.592.636 3.088 1.902 4.079v1.472l-4.894 1.674A3.236 3.236 0 000 27.505v3.99c0 .407.33.737.737.737h8.306c-.34.765-.451 1.769-.414 2.641a.737.737 0 101.474 0c-.11-1.598.625-3.28 2.243-3.833l5.98-2.045v5.337c0 .599.673.902 1.12.629l2.401-1.467 1.002 1.783-1.294 4.64h-6.334v-2.289a.737.737 0 00-1.475 0v2.288h-3.643v-1.831a.737.737 0 10-1.474 0v2.568c0 .407.33.738.737.738H40.97c.407 0 .737-.33.737-.738v-6.475c0-.685-.147-1.345-.413-1.946h2.83a.737.737 0 100-1.474H40.27c-.5-.49-1.11-.876-1.803-1.113l-7.56-2.585a1.761 1.761 0 011.133-1.22l4.88-1.67 2.335 3.183c.396.401.792.401 1.188 0l2.336-3.183 4.88 1.67a1.761 1.761 0 011.19 1.666v3.252h-1.514a.737.737 0 000 1.475h2.252c.407 0 .737-.33.737-.737v-3.99c0-1.383-.88-2.613-2.188-3.061zM45.143 13.74h1.05c.291 0 .529.236.529.528v.948a.529.529 0 01-.529.529h-1.05V13.74zM5.18 15.745H4.13a.529.529 0 01-.528-.529v-.948c0-.291.237-.528.528-.528h1.05v2.005zm32.817-8.11h3.704a2.9 2.9 0 012.896 2.896v1.734c-1.568.076-2.628-1.024-2.946-2.51-.17-.796-1.005-.87-1.33-.17-.676 1.461-1.847 2.798-3.522 2.68a2.796 2.796 0 00-1.67-2.135 2.9 2.9 0 012.868-2.495zM33.3 11.38h.743c.726 0 1.316.59 1.316 1.317v1.538c0 .726-.59 1.317-1.316 1.317H33.3V11.38zm-14.79 0h2.656c2.587 0 4.376-1.796 5.56-3.892a5.622 5.622 0 005.1 3.885v6.413c0 8.098-13.316 8.089-13.316 0V11.38zm8.72 21.344l-.967 1.72h-2.19l-.967-1.72 2.062-1.26 2.061 1.26zm-5.637-5.738v-2.26c2.066.9 5.097.895 7.15 0v2.26l-3.575 2.692-3.575-2.692zm4.884 3.551l3.135-2.36.924.314v4.526l-4.059-2.48zM16.293 11.381h.743v4.172h-.743c-.726 0-1.317-.59-1.317-1.317v-1.538c0-.726.59-1.317 1.317-1.317zm-10.567-.85a2.9 2.9 0 012.896-2.895h3.703a2.9 2.9 0 012.87 2.497 2.803 2.803 0 00-1.594 1.83c-.693-.397-1.095-1.428-1.325-2.206-.228-.772-1.014-.944-1.33-.17-.463 1.137-1.608 2.68-2.938 2.68H5.726v-1.735zm.928 6.874V13.74h1.354c1.422 0 2.654-.905 3.375-2.063a3.734 3.734 0 002.12 1.853c-.069.906.155 1.997.79 2.651v1.224c0 4.617-7.639 4.617-7.639 0zm5.74 5.65l-1.92 2.616-1.918-2.615v-.962c1.075.361 2.762.361 3.837 0v.962zm-.526 6.59a4.78 4.78 0 00-1.802 1.113H1.474v-3.252a1.76 1.76 0 011.191-1.666l4.88-1.67 2.335 3.183c.396.401.792.401 1.189 0l2.335-3.183 4.879 1.67c.569.194.988.66 1.134 1.223l-7.549 2.582zm6.892-5.2l-4.893-1.674v-1.473c1.32-1.034 1.997-2.66 1.9-4.321.394.075.866.065 1.269.05-.17 2.629.941 5.27 3.082 6.85v1.469a3.219 3.219 0 00-1.358-.901zm1.04 8.573v-4.526l.924-.314 3.134 2.36-4.058 2.48zm3.286 6.898l1.115-3.998h1.933l1.116 3.998h-4.164zm8.924-5.584v-5.337l5.98 2.045a3.317 3.317 0 012.242 3.138v5.738h-3.643v-2.288a.737.737 0 00-1.474 0v2.288H28.78l-1.294-4.64 1.002-1.782 2.4 1.467c.618.361 1.085.115 1.122-.63zm4.446-11.561l-4.894 1.674a3.229 3.229 0 00-1.345.887v-1.454c2.162-1.596 3.194-4.214 3.083-6.85.399.013.865.024 1.256-.049-.096 1.66.582 3.286 1.9 4.32v1.472zm5.312.285l-1.919 2.615-1.918-2.615v-.962c1.075.361 2.762.361 3.837 0v.962zm-1.571-2.179c-2.039.144-4.167-1.234-4.167-3.472v-1.212c.615-.624.853-1.597.803-2.453 1.614.082 3.056-.725 3.925-2.063a3.74 3.74 0 002.91 2.035v3.693a3.476 3.476 0 01-3.471 3.472z" fill="#EA374C"/><path d="M21.985 15.147c.407 0 .737-.33.737-.737v-.967a.737.737 0 00-1.474 0v.967c0 .407.33.737.737.737zm6.351 0c.407 0 .737-.33.737-.737v-.967a.737.737 0 10-1.474 0v.967c0 .407.33.737.737.737zm-3.168 5.856a2.588 2.588 0 002.585-2.585.737.737 0 10-1.474 0 1.113 1.113 0 01-2.223 0 .737.737 0 00-1.474 0 2.588 2.588 0 002.586 2.585z" fill="#EA374C"/></svg>