<svg width="50" height="51" fill="none" xmlns="http://www.w3.org/2000/svg"><path d="M35.517 7.582a6.495 6.495 0 10.84 12.962 6.495 6.495 0 00-.84-12.962zm5.44 6.809a5.027 5.027 0 01-4.691 4.69 5.032 5.032 0 01-5.347-5.346 5.027 5.027 0 014.69-4.691 5.032 5.032 0 015.347 5.347z" fill="#EA374C"/><path d="M47.12 10.612c-1.056-.004-1.579-1.274-.832-2.02a2.856 2.856 0 00.842-2.034c0-.768-.3-1.49-.842-2.033l-.846-.846c-1.118-1.117-2.891-1.1-4.037.037-.75.743-2.017.215-2.017-.841A2.879 2.879 0 0036.513 0h-1.15a2.878 2.878 0 00-2.876 2.875c0 1.057-1.271 1.587-2.02.837a2.856 2.856 0 00-2.034-.842c-.768 0-1.49.299-2.032.842l-.814.813a2.866 2.866 0 00-.542.756 6.89 6.89 0 00-3.616-1.02h-6.395a3.409 3.409 0 00-3.215 2.282.243.243 0 01-.233.158A3.431 3.431 0 008.16 10.13a.732.732 0 001.465 0c0-1.082.88-1.963 1.962-1.963a1.71 1.71 0 001.615-1.14 1.943 1.943 0 011.833-1.3h6.395a5.474 5.474 0 015.468 5.468v3.961c-1.134.319-1.286.744-2.152.79v-3.318a3.058 3.058 0 00-3.054-3.055h-.028c-1.254 0-1.767.522-3.259.522h-.287c-1.477 0-2.015-.522-3.259-.522h-.028a3.058 3.058 0 00-3.054 3.055v2.855c-.694-.293-1.54-.404-2.152-.445v-1.443a.732.732 0 00-1.465 0v1.767a2.195 2.195 0 00-.793 1.693v1.632c0 1.171.919 2.132 2.074 2.2.22 2.123 1.209 4.068 2.776 5.418.237.204.48.394.728.571v3.08a.583.583 0 01-.506.576c-2.146.278-6.066.888-8.216 1.846A7.123 7.123 0 000 38.877v7.283a3.848 3.848 0 003.843 3.844h28.834a3.848 3.848 0 003.844-3.843v-2.474a.732.732 0 10-1.465 0v2.474a2.381 2.381 0 01-2.379 2.378h-1.882v-3.994a.732.732 0 00-1.465 0v3.994h-7.613l-1.352-9.99.686-.963a2.081 2.081 0 001.901-.43l3.293-2.827a2.06 2.06 0 00.707-1.874c1.689.306 3.561.73 4.751 1.26a5.657 5.657 0 013.353 5.163v1.386a.732.732 0 101.465 0v-1.386a7.123 7.123 0 00-4.222-6.502c-2.15-.957-6.07-1.567-8.215-1.845a.581.581 0 01-.506-.575v-3.081c.247-.177.49-.367.727-.572a7.959 7.959 0 001.78-2.207l.316.317a2.873 2.873 0 004.066 0c.747-.747 2.02-.223 2.02.837a2.878 2.878 0 002.875 2.875h1.15a2.878 2.878 0 002.876-2.875c0-1.057 1.272-1.586 2.02-.837a2.856 2.856 0 002.033.842c.769 0 1.49-.3 2.033-.842l.814-.814a2.878 2.878 0 000-4.066c-.747-.746-.224-2.016.832-2.02 1.615-.006 2.88-1.249 2.88-2.829v-1.243c0-1.58-1.265-2.823-2.88-2.829zM19.223 37.628h-1.925l-.561-.788 1.523-1.097 1.524 1.097-.561.788zm-3.933-1.551a.619.619 0 01-.767-.033l-3.293-2.826a.611.611 0 01-.192-.644.613.613 0 01.497-.44c.307-.045.588-.084.831-.116l4.581 2.865-1.657 1.194zM1.465 46.16v-7.283a5.657 5.657 0 013.352-5.163c1.19-.53 3.063-.954 4.752-1.26-.103.703.155 1.4.707 1.874l3.292 2.827a2.081 2.081 0 001.902.43l.685.964-1.351 9.99H7.19v-3.995a.732.732 0 00-1.465 0v3.994H3.843a2.382 2.382 0 01-2.378-2.379zm14.817 2.378l1.278-9.446h1.4l1.278 9.446h-3.956zm9.2-15.965a.61.61 0 01-.191.644l-3.293 2.826a.619.619 0 01-.767.033l-1.658-1.194 4.581-2.866c.244.033.525.072.832.117.358.058.47.351.496.44zm-2.89-1.307l-4.332 2.71-4.332-2.71c.3-.358.48-.816.48-1.311V27.74a8.928 8.928 0 007.705 0v2.216c0 .495.18.953.48 1.31zm.757-6.073c-3.024 2.604-7.153 2.604-10.178 0-1.426-1.229-2.269-3.07-2.311-5.052a.732.732 0 00-.733-.716h-.556a.74.74 0 01-.74-.74v-1.632c0-.226.103-.433.274-.572.843.018 2.072.188 2.436.548a.997.997 0 001.7-.71v-3.693c0-.877.713-1.59 1.59-1.59 1.346.1 1.66.522 3.286.522h.287c1.681 0 2.317-.522 3.259-.522h.028c.876 0 1.59.713 1.59 1.59v3.426c0 .75.609 1.36 1.36 1.36 1.387 0 1.761-.645 2.823-.89a.736.736 0 01.226.531v1.632a.74.74 0 01-.74.74h-.557a.732.732 0 00-.732.716c-.042 1.982-.885 3.823-2.312 5.052zm25.186-10.51c0 .762-.624 1.361-1.421 1.364-2.356.009-3.527 2.857-1.862 4.521.55.55.55 1.445 0 1.995l-.813.813c-.267.267-.62.413-.998.413a1.4 1.4 0 01-.997-.413c-1.668-1.668-4.521-.49-4.521 1.873 0 .778-.633 1.41-1.41 1.41h-1.15a1.412 1.412 0 01-1.411-1.41c0-2.36-2.851-3.543-4.521-1.873a1.41 1.41 0 01-1.995 0l-.728-.728c.183-.567.31-1.157.373-1.762a2.208 2.208 0 002.074-2.201v-1.632c0-.664-.296-1.279-.793-1.692v-4.168c0-1.95-.81-3.712-2.109-4.972.06-.249.186-.477.37-.66l.813-.814a1.4 1.4 0 01.997-.413 1.4 1.4 0 01.997.413c1.669 1.668 4.522.49 4.522-1.873 0-.777.632-1.41 1.41-1.41h1.15c.778 0 1.41.633 1.41 1.41 0 2.358 2.844 3.538 4.514 1.88.566-.56 1.43-.578 1.97-.04l.846.846c.266.267.413.621.413.998 0 .376-.147.73-.413.997-1.667 1.667-.492 4.512 1.862 4.521.797.003 1.42.602 1.42 1.364v1.243h.001z" fill="#EA374C"/></svg>