<svg width="40" height="40" viewBox="0 0 40 40" fill="none" xmlns="http://www.w3.org/2000/svg">
<circle cx="20" cy="19.9997" r="10.6667" fill="url(#paint0_linear)"/>
<circle cx="20" cy="20" r="19.5" stroke="url(#paint1_linear)"/>
<path d="M19.4739 23.9397C18.9701 24.4739 18.1527 24.4739 17.6492 23.9397L14.8222 20.9417C14.3184 20.4077 14.3184 19.5409 14.8222 19.007C15.3257 18.4727 16.1431 18.4727 16.6468 19.007L18.3312 20.7929C18.4583 20.9275 18.6648 20.9275 18.7922 20.7929L23.353 15.9563C23.8565 15.4221 24.6739 15.4221 25.1776 15.9563C25.4195 16.2129 25.5554 16.5609 25.5554 16.9237C25.5554 17.2865 25.4195 17.6345 25.1776 17.8911L19.4739 23.9397Z" fill="#FEFEFE"/>
<defs>
<linearGradient id="paint0_linear" x1="20" y1="9.33301" x2="20" y2="30.6663" gradientUnits="userSpaceOnUse">
<stop stop-color="#EA384D"/>
<stop offset="1" stop-color="#D31027"/>
</linearGradient>
<linearGradient id="paint1_linear" x1="20" y1="0" x2="20" y2="40" gradientUnits="userSpaceOnUse">
<stop stop-color="#EA384D"/>
<stop offset="1" stop-color="#D31027"/>
</linearGradient>
</defs>
</svg>
