<svg width="25" height="25" viewBox="0 0 25 25" fill="none" xmlns="http://www.w3.org/2000/svg">
<path d="M1.63074 1.73567C-0.328197 3.77004 0.0727316 5.93109 0.0727316 12.4963C0.0727316 17.9483 -0.878694 23.4137 4.10071 24.7004C5.6556 25.1002 19.4326 25.1002 20.9854 24.6983C23.0586 24.1635 24.7454 22.4822 24.976 19.5506C25.0082 19.1415 25.0082 5.8584 24.9749 5.44094C24.7298 2.31826 22.8072 0.518588 20.2739 0.154085C19.6933 0.0699685 19.577 0.0450452 16.598 0.0398528C6.0316 0.0450452 3.71536 -0.425382 1.63074 1.73567Z" fill="url(#paint0_linear)"/>
<path d="M12.5348 3.2999C8.76333 3.2999 5.18198 2.96447 3.81404 6.4745C3.24901 7.9242 3.33106 9.80695 3.33106 12.5028C3.33106 14.8685 3.25524 17.0918 3.81404 18.5301C5.17886 22.0422 8.78929 21.7057 12.5327 21.7057C16.1441 21.7057 19.8678 22.0817 21.2523 18.5301C21.8184 17.0659 21.7353 15.2112 21.7353 12.5028C21.7353 8.90764 21.9337 6.58665 20.1898 4.8441C18.424 3.0787 16.0361 3.2999 12.5306 3.2999H12.5348ZM11.71 4.95833C19.577 4.94587 20.5782 4.07148 20.0257 16.2185C19.8294 20.5146 16.5575 20.0431 12.5358 20.0431C5.20275 20.0431 4.9919 19.8334 4.9919 12.4987C4.9919 5.0788 5.57356 4.96249 11.71 4.95626V4.95833ZM17.4477 6.48592C16.838 6.48592 16.3436 6.98023 16.3436 7.58982C16.3436 8.1994 16.838 8.69371 17.4477 8.69371C18.0574 8.69371 18.5518 8.1994 18.5518 7.58982C18.5518 6.98023 18.0574 6.48592 17.4477 6.48592ZM12.5348 7.77674C9.92456 7.77674 7.80878 9.89314 7.80878 12.5028C7.80878 15.1125 9.92456 17.2279 12.5348 17.2279C15.1449 17.2279 17.2597 15.1125 17.2597 12.5028C17.2597 9.89314 15.1449 7.77674 12.5348 7.77674ZM12.5348 9.43518C16.5908 9.43518 16.596 15.5705 12.5348 15.5705C8.47977 15.5705 8.47354 9.43518 12.5348 9.43518Z" fill="white"/>
<defs>
<linearGradient id="paint0_linear" x1="1.67854" y1="23.3713" x2="24.8427" y2="3.31897" gradientUnits="userSpaceOnUse">
<stop stop-color="#FFDD55"/>
<stop offset="0.5" stop-color="#FF543E"/>
<stop offset="1" stop-color="#C837AB"/>
</linearGradient>
</defs>
</svg>
