<svg width="25" height="25" viewBox="0 0 25 25" fill="none" xmlns="http://www.w3.org/2000/svg">
<path d="M24.4849 3.91187C24.1967 2.38226 23.3523 1.17656 22.2816 0.764667C20.3252 0 12.4998 0 12.4998 0C12.4998 0 4.67451 0 2.71815 0.735518C1.66797 1.14714 0.80299 2.38253 0.514791 3.91187C0 6.70575 0 12.5 0 12.5C0 12.5 0 18.3234 0.514791 21.0881C0.803181 22.6175 1.64737 23.8234 2.71834 24.2353C4.69511 25 12.4999 25 12.4999 25C12.4999 25 20.3252 25 22.2816 24.2645C23.3525 23.8529 24.1967 22.6469 24.4851 21.1176C24.9999 18.3234 24.9999 12.5294 24.9999 12.5294C24.9999 12.5294 25.0205 6.70575 24.4849 3.91187Z" fill="#FF0000"/>
<path d="M9 17L17 12.5L9 8V17Z" fill="white"/>
</svg>
