<svg width="50" height="50" viewBox="0 0 50 50" fill="none" xmlns="http://www.w3.org/2000/svg">
<path d="M49.1671 2.18173e-08C49.167 2.18173e-08 49.1668 2.18173e-08 49.1667 2.18173e-08H0.833333C0.373229 -0.000104145 0.000104167 0.372813 0 0.832917C0 0.833021 0 0.833229 0 0.833333V17.5H1.66667V1.66667H48.3333V20H19.1667V21.6667H49.1667C49.6268 21.6668 49.9999 21.2939 50 20.8338C50 20.8336 50 20.8334 50 20.8333V0.833333C50.0001 0.373229 49.6272 0.000104188 49.1671 2.18173e-08Z" fill="#EA374C"/>
<path d="M44.1667 4.1665H27.5V5.83317H44.1667V4.1665Z" fill="#EA374C"/>
<path d="M46.6667 9.16699H30V10.8337H46.6667V9.16699Z" fill="#EA374C"/>
<path d="M43.3334 14.167H26.6667V15.8337H43.3334V14.167Z" fill="#EA374C"/>
<path d="M26.6002 7.18447C26.0297 5.81311 24.4555 5.16395 23.0843 5.73447C23.0608 5.74426 23.0375 5.75426 23.0144 5.76467L16.2573 9.26988C16.5238 8.71759 16.6636 8.1128 16.6667 7.49967C16.6667 5.19853 14.8011 3.33301 12.5 3.33301C10.1989 3.33301 8.33333 5.19853 8.33333 7.49967C8.33646 8.40415 8.63677 9.28259 9.18802 9.99967H9.15333C6.78792 10.0155 4.67635 11.486 3.84125 13.6993L1.61667 21.3669C1.08708 22.7425 1.77292 24.2871 3.14865 24.8167C3.77594 25.0581 4.47125 25.054 5.09573 24.8052C5.81323 24.5161 6.37156 23.9324 6.62854 23.2028L7.5 20.4294V32.4901C6.78292 31.9389 5.90448 31.6386 5 31.6354C2.70229 31.632 0.836771 33.4919 0.833333 35.7897C0.831667 36.915 1.28583 37.9929 2.0924 38.7777C0.812396 39.4317 0.00500002 40.7458 2.18173e-08 42.1831V49.1663C-0.000104145 49.6264 0.372813 49.9996 0.832917 49.9997C0.833021 49.9997 0.833229 49.9997 0.833333 49.9997H9.16667C9.62677 49.9998 9.9999 49.6269 10 49.1668C10 49.1667 10 49.1664 10 49.1663V42.1831C9.99594 41.002 9.44719 39.8888 8.51292 39.1663H14.8205C13.8861 39.8888 13.3374 41.002 13.3334 42.1831V49.1663C13.3333 49.6264 13.7063 49.9996 14.1664 49.9997C14.1665 49.9997 14.1667 49.9997 14.1668 49.9997H22.5001C22.9602 49.9998 23.3333 49.6269 23.3334 49.1668C23.3334 49.1667 23.3334 49.1664 23.3334 49.1663V42.1831C23.3284 40.7458 22.521 39.4317 21.241 38.7777C22.8864 37.1718 22.9183 34.536 21.3124 32.8907C20.3234 31.8775 18.8873 31.4363 17.5001 31.7197V14.6725L25.1502 10.7003C26.5215 10.1299 27.1706 8.55572 26.6002 7.18447ZM12.5 4.99967C13.8807 4.99967 15 6.11895 15 7.49967C15 8.8804 13.8807 9.99967 12.5 9.99967C11.1199 9.99822 10.0015 8.87978 10 7.49967C10 6.11895 11.1193 4.99967 12.5 4.99967ZM5 33.3021C6.38073 33.3021 7.5 34.4213 7.5 35.8021C7.5 37.1828 6.38073 38.3021 5 38.3021C3.61927 38.3021 2.5 37.1828 2.5 35.8021C2.50146 34.422 3.6199 33.3036 5 33.3021ZM8.33333 48.333H1.66667V42.1831C1.66833 40.9778 2.6451 40.0011 3.85052 39.9997H6.14948C7.35479 40.0011 8.33167 40.9778 8.33333 42.1831V48.333ZM21.6667 42.1831V48.333H15V42.1831C15.0017 40.9778 15.9784 40.0011 17.1839 39.9997H19.4828C20.6882 40.0011 21.665 40.9778 21.6667 42.1831ZM18.3333 33.3021C19.7134 33.3035 20.8319 34.422 20.8333 35.8021C20.8333 37.1828 19.7141 38.3021 18.3333 38.3021C16.9526 38.3021 15.8333 37.1828 15.8333 35.8021C15.8333 34.4213 16.9526 33.3021 18.3333 33.3021ZM25.0753 8.57467C24.9638 8.86092 24.7347 9.08561 24.4463 9.19155L16.283 13.4265C16.0068 13.5699 15.8333 13.8552 15.8333 14.1663V32.4901C14.2724 33.6443 13.7317 35.7331 14.5367 37.4997H13.3333V23.333H11.6667V37.4997H8.79667C9.03375 36.9757 9.15865 36.408 9.16354 35.833H9.16667V14.9997C9.16656 14.5394 8.79333 14.1663 8.33313 14.1664C7.96927 14.1665 7.6475 14.4027 7.53833 14.7499L5.05 22.6681C4.86146 23.1881 4.28698 23.4569 3.76698 23.2682C3.73052 23.255 3.69479 23.2397 3.66 23.2223C3.17927 22.9738 2.97521 22.3938 3.19458 21.899L5.41906 14.2314C6.01896 12.6908 7.4999 11.6735 9.15323 11.6663H15.0538C15.1873 11.6665 15.319 11.6344 15.4375 11.5728L23.72 7.27353C24.2169 7.06624 24.7896 7.27832 25.0315 7.75936C25.1597 8.0129 25.1756 8.30874 25.0753 8.57467Z" fill="#EA374C"/>
<path d="M34.5743 38.7785C36.2225 37.1727 36.2569 34.5347 34.6511 32.8865C33.0452 31.2382 30.4072 31.2039 28.759 32.8097C27.1107 34.4155 27.0764 37.0535 28.6822 38.7018C28.7075 38.7277 28.7331 38.7533 28.7591 38.7785C27.4792 39.4325 26.6717 40.7467 26.6667 42.184V49.1672C26.6666 49.6273 27.0395 50.0004 27.4996 50.0005C27.4997 50.0005 27.4999 50.0005 27.5 50.0005H35.8334C36.2935 50.0006 36.6666 49.6277 36.6667 49.1676C36.6667 49.1675 36.6667 49.1673 36.6667 49.1672V42.184C36.6617 40.7467 35.8543 39.4325 34.5743 38.7785ZM31.6667 33.3029C33.0474 33.3029 34.1667 34.4222 34.1667 35.8029C34.1667 37.1836 33.0474 38.3029 31.6667 38.3029C30.286 38.3029 29.1667 37.1836 29.1667 35.8029C29.1681 34.4228 30.2866 33.3045 31.6667 33.3029ZM35 48.3339H28.3334V42.184C28.335 40.9786 29.3118 40.002 30.5172 40.0005H32.8162C34.0215 40.002 34.9984 40.9786 35 42.184V48.3339Z" fill="#EA374C"/>
<path d="M47.9076 38.7785C49.5558 37.1727 49.5902 34.5347 47.9844 32.8865C46.3785 31.2382 43.7405 31.2039 42.0923 32.8097C40.4441 34.4155 40.4097 37.0535 42.0155 38.7018C42.0408 38.7277 42.0665 38.7533 42.0924 38.7785C40.8125 39.4325 40.005 40.7467 40 42.184V49.1672C39.9999 49.6273 40.3728 50.0004 40.8329 50.0005C40.833 50.0005 40.8332 50.0005 40.8333 50.0005H49.1667C49.6268 50.0006 49.9999 49.6277 50 49.1676C50 49.1675 50 49.1673 50 49.1672V42.184C49.995 40.7467 49.1876 39.4325 47.9076 38.7785ZM45 33.3029C46.3807 33.3029 47.5 34.4222 47.5 35.8029C47.5 37.1836 46.3807 38.3029 45 38.3029C43.6193 38.3029 42.5 37.1836 42.5 35.8029C42.5015 34.4228 43.6199 33.3045 45 33.3029ZM48.3333 48.3339H41.6667V42.184C41.6683 40.9786 42.6451 40.002 43.8505 40.0005H46.1495C47.3548 40.002 48.3317 40.9786 48.3333 42.184V48.3339Z" fill="#EA374C"/>
</svg>
