<svg width="50" height="50" viewBox="0 0 50 50" fill="none" xmlns="http://www.w3.org/2000/svg">
<path d="M38.7097 38.7097H46.7742V40.3226H38.7097V38.7097Z" fill="#333333"/>
<path d="M41.9355 41.9355H43.5484V43.5484H41.9355V41.9355Z" fill="#333333"/>
<path d="M45.1613 41.9355H46.7742V43.5484H45.1613V41.9355Z" fill="#333333"/>
<path d="M38.7097 41.9355H40.3226V43.5484H38.7097V41.9355Z" fill="#333333"/>
<path d="M3.22583 6.45163H11.2903V8.06453H3.22583V6.45163Z" fill="#333333"/>
<path d="M9.67743 9.67743H11.2903V11.2903H9.67743V9.67743Z" fill="#333333"/>
<path d="M3.22583 9.67743H4.83873V11.2903H3.22583V9.67743Z" fill="#333333"/>
<path d="M6.4516 9.67743H8.0645V11.2903H6.4516V9.67743Z" fill="#333333"/>
<path d="M38.7097 28.0073V22.5806H47.5806C48.9145 22.5806 50 21.4952 50 20.1613V2.41935C50 1.08548 48.9145 0 47.5806 0H26.6129C25.279 0 24.1935 1.08548 24.1935 2.41935V8.06452H14.5161V3.22581H0V14.5161H14.5161V9.67742H24.1935V11.2903H21.9927L21.2863 13.4952C20.6637 13.6952 20.0613 13.9435 19.4887 14.2363L17.4331 13.1782L13.1798 17.4315L14.2379 19.4871C13.946 20.0589 13.6976 20.6605 13.4968 21.2847L11.2903 21.9927V27.4194H2.41935C1.08548 27.4194 0 28.5048 0 29.8387V47.5806C0 48.9145 1.08548 50 2.41935 50H23.3871C24.721 50 25.8065 48.9145 25.8065 47.5806V41.9355H35.4839V46.7742H50V35.4839H35.4839V40.3226H25.8065V38.7097H28.0073L28.7137 36.5048C29.3371 36.304 29.9395 36.0565 30.5113 35.7637L32.5669 36.8218L36.8202 32.5685L35.7621 30.5129C36.054 29.9411 36.3024 29.3395 36.5032 28.7153L38.7097 28.0073ZM12.9032 12.9032H1.6129V4.83871H12.9032V12.9032ZM37.0968 37.0968H48.3871V45.1613H37.0968V37.0968ZM32.2581 25C32.2581 28.729 29.4298 31.8081 25.8065 32.2105V29.8387C25.8065 28.5048 24.721 27.4194 23.3871 27.4194H18.1629C17.8887 26.6452 17.7419 25.8347 17.7419 25C17.7419 21.271 20.5702 18.1919 24.1935 17.7895V20.1613C24.1935 21.4952 25.279 22.5806 26.6129 22.5806H31.8371C32.1113 23.3548 32.2581 24.1653 32.2581 25V25ZM31.5161 20.9677C31.7895 19.0702 33.0065 17.479 34.6774 16.6815V16.9355C34.6774 18.2694 35.7629 19.3548 37.0968 19.3548C38.4306 19.3548 39.5161 18.2694 39.5161 16.9355V16.6815C41.1871 17.479 42.404 19.0702 42.6774 20.9677H31.5161ZM33.0645 8.55242C33.0645 6.94919 34.3685 5.64516 35.9718 5.64516H36.2903V7.56613L34.4016 8.51048C33.8992 8.7621 33.5145 9.16936 33.2895 9.65726C33.146 9.30806 33.0645 8.93548 33.0645 8.55242ZM36.2903 16.1935C36.5548 16.1556 36.8226 16.129 37.0968 16.129C37.371 16.129 37.6387 16.1556 37.9032 16.1935V16.9355C37.9032 17.3798 37.5419 17.7419 37.0968 17.7419C36.6516 17.7419 36.2903 17.3798 36.2903 16.9355V16.1935ZM40.904 9.65645C40.679 9.16855 40.2944 8.76129 39.7919 8.50968L37.9032 7.56613V5.64516H38.2218C39.825 5.64516 41.129 6.94919 41.129 8.55242C41.129 8.93548 41.0484 9.30806 40.904 9.65645ZM36.2903 14.5161C35.4008 14.5161 34.6774 13.7927 34.6774 12.9032V10.6742C34.6774 10.3669 34.8484 10.0903 35.1234 9.95323L37.0968 8.96613L39.0702 9.95323C39.3452 10.0903 39.5161 10.3669 39.5161 10.6742V12.9032C39.5161 13.7927 38.7927 14.5161 37.9032 14.5161H36.2903ZM25.8065 2.41935C25.8065 1.975 26.1677 1.6129 26.6129 1.6129H47.5806C48.0258 1.6129 48.3871 1.975 48.3871 2.41935V20.1613C48.3871 20.6056 48.0258 20.9677 47.5806 20.9677H44.3073C44.0226 18.4081 42.4008 16.2524 40.1589 15.2032C40.7565 14.6169 41.129 13.804 41.129 12.9032V12.3411L41.9831 11.0605C42.4798 10.3153 42.7419 9.44758 42.7419 8.55323C42.7419 6.06048 40.7137 4.03226 38.2218 4.03226H35.9726C33.4798 4.03226 31.4516 6.06048 31.4516 8.55242C31.4516 9.44758 31.7137 10.3145 32.2105 11.0597L33.0645 12.3411V12.9032C33.0645 13.804 33.4371 14.6169 34.0347 15.2032C31.7927 16.2524 30.171 18.4081 29.8863 20.9677H26.6129C26.1677 20.9677 25.8065 20.6056 25.8065 20.1613V2.41935ZM12.9032 23.1685L14.8032 22.5597L14.921 22.1427C15.1468 21.3452 15.4597 20.5871 15.85 19.8879L16.0621 19.5105L15.1508 17.7403L17.7411 15.1508L19.5105 16.0613L19.8887 15.85C20.5903 15.4573 21.3492 15.1444 22.1444 14.9202L22.5613 14.8024L23.1685 12.9032H24.1935V16.1702C19.679 16.579 16.129 20.3806 16.129 25C16.129 25.8282 16.2508 26.6363 16.4726 27.4194H12.9032V23.1685ZM8.06452 41.129V37.0968C8.06452 34.704 9.8121 32.7169 12.0968 32.3306V34.179L10.2081 35.1234C9.38387 35.5355 8.87097 36.3645 8.87097 37.2871V39.5161C8.87097 40.4169 9.24355 41.2298 9.84113 41.8161C9.38952 42.0274 8.96371 42.2839 8.56855 42.5798C8.24758 42.1637 8.06452 41.6605 8.06452 41.129V41.129ZM12.0968 41.129C11.2073 41.129 10.4839 40.4056 10.4839 39.5161V37.2871C10.4839 36.9798 10.6548 36.7032 10.9298 36.5661L12.9032 35.579L14.8766 36.5661C15.1516 36.7032 15.3226 36.9798 15.3226 37.2871V39.5161C15.3226 40.4056 14.5992 41.129 13.7097 41.129H12.0968ZM12.9032 42.7419C13.55 42.7419 14.1685 42.8565 14.7476 43.0573L14.171 44.3548H11.6355L11.0589 43.0573C11.6379 42.8565 12.2565 42.7419 12.9032 42.7419ZM13.454 45.9677L12.9032 47.2073L12.3524 45.9677H13.454ZM16.1823 43.8008C17.6121 44.8266 18.5484 46.4976 18.5484 48.3871H14.1444L16.1823 43.8008ZM17.7419 41.129C17.7419 41.6605 17.5589 42.1637 17.2379 42.579C16.8427 42.2831 16.4169 42.0274 15.9653 41.8153C16.5629 41.2298 16.9355 40.4169 16.9355 39.5161V37.2871C16.9355 36.3645 16.4226 35.5363 15.5984 35.1234L13.7097 34.179V32.3306C15.9944 32.7161 17.7419 34.7032 17.7419 37.0968V41.129ZM9.62419 43.8008L11.6621 48.3871H7.25806C7.25806 46.4976 8.19435 44.8266 9.62419 43.8008V43.8008ZM24.1935 47.5806C24.1935 48.025 23.8323 48.3871 23.3871 48.3871H20.1613C20.1613 46.5944 19.5048 44.9548 18.4234 43.6871C19.0218 42.971 19.3548 42.0758 19.3548 41.129V37.0968C19.3548 33.5395 16.4605 30.6452 12.9032 30.6452C9.34597 30.6452 6.45161 33.5395 6.45161 37.0968V41.129C6.45161 42.0758 6.78468 42.971 7.38306 43.6871C6.30161 44.9548 5.64516 46.5944 5.64516 48.3871H2.41935C1.97419 48.3871 1.6129 48.025 1.6129 47.5806V29.8387C1.6129 29.3944 1.97419 29.0323 2.41935 29.0323H23.3871C23.8323 29.0323 24.1935 29.3944 24.1935 29.8387V47.5806ZM35.1968 27.4395L35.079 27.8565C34.8532 28.654 34.5403 29.4121 34.15 30.1113L33.9379 30.4887L34.8492 32.2589L32.2589 34.8484L30.4887 33.9379L30.1113 34.1492C29.4113 34.5411 28.6524 34.8548 27.8556 35.079L27.4387 35.1968L26.8315 37.0968H25.8065V33.8298C30.321 33.421 33.871 29.6194 33.871 25C33.871 24.1718 33.7492 23.3637 33.5274 22.5806H37.0968V26.8315L35.1968 27.4395Z" fill="#333333"/>
<path d="M3.22583 30.6451H4.83873V32.258H3.22583V30.6451Z" fill="#333333"/>
<path d="M20.9678 30.6451H22.5807V32.258H20.9678V30.6451Z" fill="#333333"/>
<path d="M27.4194 3.2258H29.0323V4.8387H27.4194V3.2258Z" fill="#333333"/>
<path d="M45.1613 3.2258H46.7742V4.8387H45.1613V3.2258Z" fill="#333333"/>
</svg>
