<svg width="50" height="46" viewBox="0 0 50 46" fill="none" xmlns="http://www.w3.org/2000/svg">
<path d="M47.1844 20.217L44.1822 19.9846C44.0845 19.9773 44.001 19.91 43.9751 19.8172C43.5951 18.4768 43.0717 17.1693 42.4191 15.9318C42.374 15.8464 42.3878 15.7389 42.4526 15.6642L44.4744 13.349C45.5406 12.1285 45.4849 10.2692 44.3478 9.11639L41.2498 5.9755C40.1299 4.84088 38.3118 4.7705 37.1101 5.81579L34.8248 7.8035C34.7504 7.86847 34.6439 7.88045 34.5608 7.83366C33.3538 7.15498 32.0721 6.60469 30.7507 6.19748C30.6595 6.16963 30.5946 6.08417 30.5885 5.98478L30.4039 2.9019C30.3059 1.27461 28.9696 0 27.3617 0H22.9805C21.3974 0 20.0623 1.25373 19.9417 2.85433L19.7124 5.89777C19.7052 5.99716 19.6396 6.08146 19.5496 6.10737C18.121 6.5227 16.7374 7.10355 15.4369 7.83482C15.3545 7.88123 15.2493 7.86847 15.1749 7.80389L12.8899 5.81579C11.6882 4.77012 9.86977 4.8405 8.75015 5.97589L5.65224 9.11639C4.51508 10.2696 4.45938 12.1285 5.52521 13.3494L7.547 15.6642C7.61223 15.7389 7.62558 15.8464 7.58057 15.9318C6.92825 17.1693 6.40488 18.4764 6.02493 19.8172C5.99861 19.91 5.91545 19.9773 5.81779 19.9846L2.81525 20.2174C1.23672 20.3392 0 21.6927 0 23.298V27.7394C0 29.3698 1.25732 30.7244 2.86255 30.8234L5.90324 31.011C6.00128 31.0172 6.08559 31.0829 6.11305 31.1753C6.51474 32.5149 7.05795 33.8143 7.72667 35.0378C7.77321 35.1225 7.76138 35.23 7.6973 35.3058L5.73654 37.6226C4.70543 38.8408 4.77486 40.6842 5.89409 41.8192L8.992 44.9601C9.26857 45.2401 9.58977 45.4609 9.9472 45.616C10.3195 45.7773 10.7494 45.6025 10.9085 45.2254C10.9665 45.0889 10.9798 44.945 10.957 44.8089V40.9139C10.957 39.1614 12.0552 37.6087 13.6894 37.0507L15.2283 36.5263C15.5243 36.4254 15.8001 36.2834 16.053 36.104C16.6145 36.2807 17.1886 36.3979 17.7704 36.4563L16.1339 42.3216C16.0652 42.5668 16.1255 42.8301 16.2933 43.0196L18.1774 45.1496C18.3121 45.302 18.5028 45.3909 18.7046 45.3963H18.7229C18.9178 45.3963 19.1051 45.3175 19.2429 45.1767L21.3268 43.0467C21.5179 42.851 21.587 42.5648 21.5057 42.3019L19.6949 36.4339C20.2995 36.3585 20.8954 36.2196 21.476 36.0166C21.7594 36.2366 22.0776 36.4107 22.4171 36.5259L23.9552 37.0503C25.0004 37.4072 25.8636 38.1965 26.3241 39.2163C26.556 39.7298 26.6781 40.2762 26.6872 40.8405C26.6872 40.854 26.688 40.866 26.6888 40.8795C26.6895 40.8911 26.6891 40.9023 26.6891 40.9139V45.2575C26.6891 45.6678 27.0168 46 27.4216 46C27.8263 46 28.154 45.6678 28.154 45.2575V40.9139C28.154 40.8753 28.1536 40.8378 28.1517 40.7999C28.141 40.2283 28.0449 39.6707 27.8664 39.1347C28.1101 38.9606 28.3775 38.8226 28.6659 38.724L29.9168 38.2974C30.1483 38.2182 30.3654 38.1103 30.566 37.9749C30.9578 38.094 31.3564 38.1791 31.76 38.2294L30.4749 42.8351C30.4066 43.0799 30.4668 43.3433 30.6343 43.5332L32.1651 45.2633C32.2998 45.4153 32.4905 45.5046 32.692 45.5096C32.6981 45.51 32.7045 45.51 32.7103 45.51C32.9056 45.51 33.0929 45.4311 33.2306 45.2904L34.9232 43.5598C35.1143 43.3645 35.1833 43.078 35.1021 42.8154L33.68 38.2062C34.1003 38.1439 34.5146 38.0441 34.9205 37.9069C35.1475 38.0747 35.3973 38.2062 35.667 38.2974L36.9164 38.724C38.1886 39.1583 39.043 40.366 39.043 41.7291V44.7675C39.043 44.7703 39.0434 44.773 39.0434 44.7757C39.0114 44.9215 39.0217 45.0781 39.0839 45.2262C39.2021 45.5089 39.473 45.6786 39.7583 45.6786C39.8537 45.6786 39.9509 45.6597 40.044 45.6195C40.4049 45.464 40.7291 45.242 41.0076 44.9597L44.1055 41.8188C45.2251 40.6838 45.2946 38.8404 44.2635 37.6222L42.3027 35.3054C42.2386 35.23 42.2268 35.1221 42.2729 35.0374C42.942 33.8143 43.4849 32.5145 43.8866 31.1749C43.9144 31.0825 43.9987 31.0168 44.0968 31.0106L47.1375 30.823C48.7427 30.724 50 29.3694 50 27.7394V23.2976C50 21.6927 48.7633 20.3392 47.1844 20.217V20.217ZM22.2107 24.9009L17.7021 23.4298C17.5159 23.3691 17.3126 23.3865 17.1387 23.4786L15.4346 24.3804V23.5095C15.4346 22.494 16.2479 21.668 17.2474 21.668H20.3979C21.3974 21.668 22.2107 22.494 22.2107 23.5095V24.9009ZM15.4346 26.0556L17.5449 24.9384L22.2107 26.4609V28.6988C22.2107 29.2193 21.9387 29.7105 21.5012 29.9808L19.59 31.1622C19.117 31.4545 18.5287 31.4545 18.0553 31.1622L16.1438 29.9808C15.7063 29.7105 15.4346 29.2193 15.4346 28.6988V26.0556ZM18.7901 35.0146C18.2236 35.027 17.6617 34.9721 17.1112 34.8518C17.329 34.4017 17.4469 33.9024 17.4469 33.3927V32.5184C17.8783 32.7504 18.3502 32.8676 18.8225 32.8676C19.2947 32.8676 19.7666 32.7504 20.1981 32.518V33.3927C20.1981 33.8746 20.2999 34.3421 20.4922 34.7691C19.936 34.9187 19.3665 35.0019 18.7901 35.0146V35.0146ZM18.7496 43.5722L17.6533 42.3324L18.7584 38.3721L19.9764 42.3185L18.7496 43.5722ZM35.4057 28.5314L31.9233 27.3948C31.7368 27.3341 31.5338 27.3515 31.3599 27.4435L30.1769 28.07V27.5924C30.1769 26.8445 30.7755 26.2358 31.5117 26.2358H34.071C34.8068 26.2358 35.4057 26.8445 35.4057 27.5924V28.5314ZM30.1769 29.7453L31.7661 28.9038L35.4057 30.0914V31.8076C35.4057 32.1819 35.2104 32.5354 34.8953 32.7299L33.3431 33.6894C33.0025 33.8997 32.5798 33.8997 32.2395 33.6894L30.687 32.7299C30.3722 32.5354 30.1769 32.1819 30.1769 31.8076V29.7453ZM32.7618 36.7981C32.3692 36.8063 31.9805 36.773 31.5975 36.7015C31.7364 36.3615 31.8111 35.9946 31.8111 35.6206V35.1306C32.1251 35.2652 32.4577 35.3333 32.7911 35.3333C33.1242 35.3333 33.4572 35.2652 33.7711 35.1306V35.6206C33.7711 35.9748 33.836 36.3198 33.9592 36.6419C33.5667 36.7363 33.1661 36.7892 32.7618 36.7981V36.7981ZM32.7374 43.6855L31.9942 42.846L32.7457 40.1529L33.5724 42.832L32.7374 43.6855ZM48.5352 27.7394C48.5352 28.5863 47.8821 29.2897 47.0486 29.3411L44.0079 29.5287C43.3018 29.572 42.6899 30.0604 42.485 30.7434C42.1135 31.9832 41.6111 33.1858 40.992 34.3181C40.6502 34.9427 40.7299 35.7285 41.1907 36.2726L43.1515 38.5894C43.6871 39.2225 43.6512 40.18 43.0695 40.7693L40.5079 43.3665V41.7291C40.5079 39.7279 39.2525 37.9544 37.384 37.3167L36.3964 36.9795C39.2437 34.107 40.971 30.2344 41.1724 26.1987C41.1926 25.7892 40.8817 25.4404 40.4778 25.4199C40.0726 25.3982 39.7297 25.7145 39.7095 26.1237C39.5245 29.8265 37.925 33.38 35.2898 36.0011C35.2543 35.8789 35.236 35.7509 35.236 35.6206V34.2586L35.6583 33.9976C36.4059 33.5354 36.8706 32.6963 36.8706 31.8076V29.5604C36.8706 29.5577 36.8706 29.5554 36.8706 29.5527V27.5924C36.8706 26.0255 35.6148 24.7508 34.071 24.7508H31.5117C29.9679 24.7508 28.7121 26.0255 28.7121 27.5924V29.2827V29.2858V31.8076C28.7121 32.6963 29.1767 33.5354 29.9244 33.9979L30.3467 34.2586V35.6206C30.3467 35.9918 30.1929 36.3496 29.9248 36.6025C29.7867 36.7328 29.6268 36.8295 29.4495 36.8902L28.1986 37.3167C27.8465 37.437 27.5162 37.5979 27.2087 37.7955C26.54 36.7962 25.5608 36.0317 24.4225 35.643L22.8836 35.1183C22.6055 35.0239 22.3629 34.8677 22.1611 34.653C21.8399 34.3127 21.6629 33.8653 21.6629 33.3927V31.6204L22.2637 31.2492C23.1342 30.7109 23.6752 29.7337 23.6752 28.6992V25.9303C23.6752 25.9276 23.6752 25.9253 23.6752 25.9226V23.5095C23.6752 21.6753 22.205 20.183 20.3976 20.183H17.247C15.44 20.183 13.9694 21.6753 13.9694 23.5095V25.5935V25.5966V28.6992C13.9694 29.734 14.5103 30.7109 15.3812 31.2492L15.9821 31.6204V33.3927C15.9821 33.8978 15.773 34.3843 15.4079 34.7285C15.2206 34.9052 15.0036 35.0363 14.7617 35.1186L13.2221 35.6434C10.9913 36.4052 9.49211 38.5233 9.49211 40.9139V43.3665L6.93016 40.7693C6.3488 40.1796 6.31294 39.2225 6.84853 38.5894L8.80928 36.2726C9.2701 35.7285 9.34982 34.9427 9.00803 34.3178C8.3889 33.1855 7.88651 31.9832 7.51457 30.7434C7.3101 30.0604 6.69823 29.572 5.99213 29.5287L2.95143 29.3411C2.11792 29.2897 1.46484 28.5863 1.46484 27.7394V23.298C1.46484 22.4642 2.10724 21.7612 2.92702 21.6977L5.92957 21.4653C6.63452 21.4108 7.23877 20.9131 7.43294 20.2271C7.78465 18.9865 8.26874 17.7768 8.8726 16.6318C9.20486 16.0014 9.11293 15.2172 8.6441 14.68L6.62231 12.3648C6.06842 11.731 6.09741 10.7653 6.68793 10.1663L9.78622 7.02582C10.3672 6.43608 11.3117 6.39934 11.9358 6.94229L14.2212 8.93038C14.7583 9.39753 15.5327 9.47913 16.1476 9.13302C17.3508 8.45666 18.6314 7.91913 19.9535 7.53473C20.6291 7.33867 21.1193 6.72611 21.1731 6.01069L21.4024 2.96726C21.4653 2.13621 22.1584 1.48459 22.9809 1.48459H27.3617C28.1971 1.48459 28.891 2.14665 28.9417 2.99201L29.1267 6.07489C29.1695 6.7907 29.6513 7.41098 30.3249 7.61826C31.5475 7.99492 32.7339 8.50461 33.8505 9.13225C34.4669 9.47874 35.2417 9.39792 35.7788 8.93077L38.0642 6.94267C38.6883 6.39973 39.6328 6.43647 40.2142 7.02582L43.3121 10.1667C43.9026 10.7653 43.9316 11.731 43.3781 12.3648L41.3559 14.68C40.8871 15.2172 40.7951 16.0014 41.1274 16.6318C41.7316 17.7772 42.2157 18.9869 42.5671 20.2271C42.7612 20.9131 43.3659 21.4108 44.0708 21.4653L47.073 21.6981C47.8928 21.7615 48.5352 22.4642 48.5352 23.298V27.7394Z" fill="#333333"/>
<path d="M24.1588 8.94968C20.1778 9.15348 16.4146 10.8581 13.5628 13.7496C10.7105 16.641 9.029 20.456 8.82797 24.4921C8.65363 27.9768 9.54322 31.3547 11.4002 34.2609C11.5402 34.4805 11.7756 34.6 12.0155 34.6C12.1521 34.6 12.2902 34.5614 12.413 34.4805C12.7525 34.2574 12.8494 33.798 12.6297 33.4538C10.9409 30.811 10.1322 27.7382 10.2909 24.5671C10.4736 20.8991 12.0037 17.4303 14.5985 14.7999C17.1932 12.1691 20.615 10.618 24.2329 10.4327C31.7345 10.0468 38.3072 15.4001 39.5302 22.8853C39.5962 23.2898 39.9734 23.5628 40.3725 23.4963C40.7715 23.4294 41.0416 23.0469 40.9756 22.6424C39.6305 14.412 32.3994 8.52507 24.1588 8.94968V8.94968Z" fill="#333333"/>
</svg>
