<svg width="50" height="50" viewBox="0 0 50 50" fill="none" xmlns="http://www.w3.org/2000/svg">
<path d="M34.9137 22.0105L25.4726 31.4517H21.7742V29.8388H21.7532C23.3081 28.675 24.4355 26.9702 24.8371 25H25C26.779 25 28.2258 23.5533 28.2258 21.7742C28.2258 20.9629 27.9153 20.2299 27.4194 19.6629V16.9355C27.4194 11.1549 22.7161 6.45166 16.9355 6.45166C11.1548 6.45166 6.45161 11.1549 6.45161 16.9355V19.6629C5.95565 20.2299 5.64516 20.9629 5.64516 21.7742C5.64516 23.5533 7.09194 25 8.87097 25H9.03387C9.43548 26.9702 10.5629 28.675 12.1177 29.8388H12.0968V31.4517H8.06452C3.61774 31.4517 0 35.0694 0 39.5162V49.1936C0 49.6396 0.360484 50 0.806452 50H33.0645C33.5105 50 33.871 49.6396 33.871 49.1936V39.5162C33.871 35.671 31.1637 32.4509 27.5564 31.6484L35.8177 23.3871H50V21.7742H35.4839C35.2694 21.7742 35.0645 21.8589 34.9137 22.0105ZM12.525 33.0646L15.6637 36.8307L12.5677 38.3783L10.796 33.0646H12.525ZM16.7903 41.9355H17.0815L18.3718 48.3871H15.5L16.7903 41.9355ZM17.2435 40.3226H16.6274L15.7597 38.5863L16.9355 37.9984L18.1113 38.5863L17.2435 40.3226ZM18.2073 36.8307L21.346 33.0646H23.075L21.3032 38.3791L18.2073 36.8307ZM25 23.3871V20.1613C25.8895 20.1613 26.6129 20.8847 26.6129 21.7742C26.6129 22.6638 25.8895 23.3871 25 23.3871ZM7.25806 21.7742C7.25806 20.8847 7.98145 20.1613 8.87097 20.1613V23.3871C7.98145 23.3871 7.25806 22.6638 7.25806 21.7742ZM8.87097 18.5484C8.59113 18.5484 8.32419 18.5952 8.06452 18.6629V16.9355C8.06452 12.0444 12.0444 8.06456 16.9355 8.06456C21.8266 8.06456 25.8065 12.0444 25.8065 16.9355V18.6629C25.5468 18.5952 25.2798 18.5484 25 18.5484C25 18.1025 24.6395 17.742 24.1935 17.742C22.9315 17.742 21.725 17.1388 20.9677 16.1283L20 14.8379C19.696 14.4331 19.0137 14.4331 18.7097 14.8379L17.7419 16.1291C16.9847 17.1388 15.7782 17.742 14.5161 17.742H9.67742C9.23145 17.742 8.87097 18.1025 8.87097 18.5484ZM10.4839 23.3871V19.3549H14.5161C16.2831 19.3549 17.9718 18.5105 19.0323 17.0968L19.3548 16.6662L19.6774 17.096C20.575 18.2928 21.9218 19.0823 23.3871 19.296V23.3871C23.3871 26.9444 20.4927 29.8388 16.9355 29.8388C13.3782 29.8388 10.4839 26.9444 10.4839 23.3871ZM16.9355 31.4517C18.0823 31.4517 19.1726 31.2073 20.1613 30.7734V31.9662L16.9355 35.8371L13.7097 31.9662V30.7734C14.6984 31.2073 15.7887 31.4517 16.9355 31.4517ZM1.6129 39.5162C1.6129 35.9589 4.50726 33.0646 8.06452 33.0646H9.09677L11.3323 39.771C11.4056 39.992 11.5726 40.171 11.7879 40.2605C11.8871 40.3025 11.9919 40.3226 12.0968 40.3226C12.2202 40.3226 12.3444 40.2944 12.4573 40.2379L14.3161 39.3081L15.2831 41.2428L13.8548 48.3871H6.45161V43.5484H4.83871V48.3871H1.6129V39.5162ZM32.2581 39.5162V48.3871H29.0323V43.5484H27.4194V48.3871H20.0161L18.5871 41.2428L19.554 39.3081L21.4129 40.2379C21.5266 40.2944 21.6508 40.3226 21.7742 40.3226C21.879 40.3226 21.9839 40.3025 22.0831 40.2613C22.2992 40.1718 22.4661 39.9928 22.5387 39.7718L24.7742 33.0646H25.8065C29.3637 33.0646 32.2581 35.9589 32.2581 39.5162Z" fill="#EA374C"/>
<path d="M48.3871 18.5484V7.25811C48.3871 6.81214 48.0266 6.45166 47.5806 6.45166H44.3548C43.9088 6.45166 43.5484 6.81214 43.5484 7.25811V18.5484H41.9355V12.0968C41.9355 11.6509 41.575 11.2904 41.129 11.2904H37.9032C37.4572 11.2904 37.0967 11.6509 37.0967 12.0968V18.5484H35.4838V14.5162C35.4838 14.0702 35.1234 13.7097 34.6774 13.7097H31.4516C31.0056 13.7097 30.6451 14.0702 30.6451 14.5162V18.5484H29.0322V20.1613H50V18.5484H48.3871ZM45.1613 8.06456H46.7742V18.5484H45.1613V8.06456ZM38.7096 12.9033H40.3225V18.5484H38.7096V12.9033ZM32.258 15.3226H33.8709V18.5484H32.258V15.3226Z" fill="#EA374C"/>
<path d="M36.6242 4.83871H41.1291C41.3436 4.83871 41.5484 4.75403 41.6992 4.60242L43.5484 2.75323V4.83871H45.1613V0.806452C45.1613 0.360484 44.8008 0 44.3549 0H40.3226V1.6129H42.4081L40.7952 3.22581H36.2903C36.0758 3.22581 35.871 3.31048 35.7202 3.4621L30.8815 8.30081L32.0218 9.44113L36.6242 4.83871Z" fill="#EA374C"/>
</svg>
