<svg width="50" height="50" viewBox="0 0 50 50" fill="none" xmlns="http://www.w3.org/2000/svg">
<path d="M15.3226 4.8387C15.768 4.8387 16.129 4.47764 16.129 4.03225C16.129 3.58686 15.768 3.2258 15.3226 3.2258C14.8772 3.2258 14.5161 3.58686 14.5161 4.03225C14.5161 4.47764 14.8772 4.8387 15.3226 4.8387Z" fill="#333333"/>
<path d="M17.7419 3.2258H29.0323V4.8387H17.7419V3.2258Z" fill="#333333"/>
<path d="M24.1936 9.67743H32.2581V11.2903H24.1936V9.67743Z" fill="#333333"/>
<path d="M30.6451 12.9032H32.258V14.5161H30.6451V12.9032Z" fill="#333333"/>
<path d="M24.1936 12.9032H29.0323V14.5161H24.1936V12.9032Z" fill="#333333"/>
<path d="M24.1936 16.129H32.2581V17.7419H24.1936V16.129Z" fill="#333333"/>
<path d="M24.1936 19.3548H32.2581V20.9677H24.1936V19.3548Z" fill="#333333"/>
<path d="M50 49.8121V34.2742L46.6323 31.7484L45.5952 29.1556C45.2274 28.2371 44.6871 27.4177 43.9879 26.7194L38.7097 21.4403V4.03226C38.7097 1.80887 36.9008 0 34.6774 0H8.87097C6.64758 0 4.83871 1.80887 4.83871 4.03226V22.9177L2.6129 25.1435C0.927419 26.829 0 29.0694 0 31.4516C0 31.9403 0.041129 32.4339 0.120968 32.9177L1.37581 40.4435C1.55 41.4895 1.8379 42.5177 2.23145 43.5008L3.22581 45.9887V50H14.5161V46.1234L15.0726 44.7323C15.2282 44.3427 15.3605 43.9468 15.4823 43.5484H39.5613L50 49.8121ZM48.3871 46.9621L38.3976 40.9685L46.0436 33.3226L48.3871 35.0806V46.9621ZM44.0976 29.7548L45.0218 32.0637L36.8121 40.2742L33.3782 39.7839C32.3411 39.6355 31.3677 39.2024 30.5621 38.5315L28.9242 37.1669C28.0202 36.4137 26.946 35.9016 25.8073 35.6548V35.4839H24.2782H24.1581C23.7323 35.4839 23.3871 35.1387 23.3871 34.7145C23.3871 34.4573 23.5153 34.2177 23.7298 34.0742L24.0306 33.8734C24.8242 33.3444 25.7484 33.0645 26.7024 33.0645C27.9895 33.0645 29.1992 33.5653 30.1089 34.4758L30.8815 35.2476L32.0218 34.1073L31.25 33.3355L20.4258 22.5113C20.2556 22.3403 20.1613 22.1137 20.1613 21.8718C20.1613 21.3734 20.5669 20.9677 21.0653 20.9677C21.3073 20.9677 21.5339 21.0621 21.7048 21.2323L28.1565 27.6839L31.6879 31.2153L32.8282 30.075L29.2968 26.5435C29.129 26.375 29.0323 26.1419 29.0323 25.904C29.0323 25.4056 29.4379 25 29.9363 25C30.1782 25 30.4048 25.0944 30.5758 25.2645L34.1073 28.796L35.2476 27.6556L31.7161 24.1242C31.546 23.9532 31.4516 23.7266 31.4516 23.4847C31.4516 22.9863 31.8573 22.5806 32.3556 22.5806C32.5976 22.5806 32.8242 22.675 32.9952 22.8452L34.6081 24.4581L36.5266 26.3766L37.6669 25.2363L35.7484 23.3177C35.5782 23.1468 35.4839 22.9202 35.4839 22.6782C35.4839 22.1798 35.8895 21.7742 36.3879 21.7742C36.6298 21.7742 36.8565 21.8685 37.0274 22.0387L42.8484 27.8597C43.3919 28.4032 43.8121 29.0403 44.0976 29.7548V29.7548ZM24.1565 37.0968H24.1935V38.7097H19.3548V37.0968H24.1565ZM15.5113 30.6452H19.3548V25.8065H14.5161V28.0798C14.0419 27.6718 13.4306 27.4194 12.7661 27.4194C11.5266 27.4194 10.4508 28.2597 10.15 29.4621L9.67742 31.3524V8.06452H33.871V21.4871C33.4355 21.1556 32.9121 20.9677 32.3556 20.9677C30.9976 20.9677 29.8952 22.05 29.8476 23.396C28.8613 23.4315 28.0194 24.0306 27.6387 24.8855L22.8452 20.0919C22.7629 20.0097 22.671 19.9435 22.5806 19.8742V9.67742H11.2903V20.9677H18.7234C18.6145 21.2492 18.5484 21.5524 18.5484 21.8718C18.5484 22.1169 18.5944 22.3524 18.6613 22.5806H11.2903V24.1935H19.8274L21.4403 25.8065H20.9677V30.6452H25.8065V30.1726L27.1048 31.471C26.971 31.4629 26.8379 31.4516 26.7024 31.4516C25.6153 31.4516 24.5645 31.7387 23.6185 32.2581H15.6347L15.5113 30.6452ZM16.129 29.0323V27.4194H17.7419V29.0323H16.129ZM16.129 11.2903H17.7419V12.9032H16.129V11.2903ZM19.3548 14.5161V11.2903H20.9677V19.3548H12.9032V11.2903H14.5161V14.5161H19.3548ZM22.5806 27.4194H23.0532L24.1935 28.5597V29.0323H22.5806V27.4194ZM6.45161 4.03226C6.45161 2.69839 7.5371 1.6129 8.87097 1.6129H34.6774C36.0113 1.6129 37.0968 2.69839 37.0968 4.03226V20.2742C36.8685 20.2073 36.6331 20.1613 36.3879 20.1613C36.0685 20.1613 35.7653 20.2274 35.4839 20.3363V6.45161H8.06452V36.0548C7.9629 36.275 7.86532 36.4984 7.75645 36.7153C7.63952 36.9508 7.40323 37.0968 7.14032 37.0968C6.76048 37.0968 6.45161 36.7871 6.45161 36.4081V4.03226ZM12.9032 48.3871H4.83871V46.7742H12.9032V48.3871ZM13.575 44.1339L13.1637 45.1613H4.63226L3.72903 42.9016C3.37903 42.0266 3.12258 41.1105 2.96694 40.179L1.7121 32.6532C1.64677 32.2565 1.6129 31.8524 1.6129 31.4516C1.6129 29.5 2.37258 27.6653 3.75323 26.2847L4.83871 25.1992V36.4081C4.83871 37.6774 5.87097 38.7097 7.14032 38.7097C8.01774 38.7097 8.80645 38.2226 9.19919 37.4371C10.0218 35.7927 10.6637 34.0548 11.1105 32.271L11.7153 29.8532C11.8355 29.3702 12.2677 29.0323 12.7661 29.0323C13.329 29.0323 13.804 29.4718 13.8468 30.0331L14.4782 38.2363C14.5032 38.5718 14.5161 38.9089 14.5161 39.246C14.5161 40.9274 14.1992 42.5718 13.575 44.1339ZM15.8782 41.9355C16.0419 41.0524 16.129 40.154 16.129 39.246C16.129 38.8677 16.1145 38.4895 16.0855 38.1129L15.7597 33.871H21.9468C21.8452 34.1387 21.7742 34.4194 21.7742 34.7145C21.7742 34.9855 21.829 35.2411 21.9129 35.4839H17.7419V40.3226H25.8065V37.3298C26.5637 37.5444 27.2798 37.896 27.8911 38.4056L29.529 39.7702C30.5637 40.6323 31.8153 41.1895 33.1492 41.3798L36.821 41.904L36.8734 41.9355H15.8782Z" fill="#333333"/>
</svg>
