<svg width="21" height="28" viewBox="0 0 21 28" fill="none" xmlns="http://www.w3.org/2000/svg">
<path d="M10.033 0C4.5007 0 0 4.5007 0 10.033C0 11.8543 0.816807 13.8131 0.851037 13.8957C1.11485 14.5219 1.63538 15.4945 2.01074 16.0647L8.88985 26.4878C9.17137 26.9151 9.58803 27.16 10.033 27.16C10.478 27.16 10.8947 26.9151 11.1762 26.4884L18.0559 16.0647C18.4319 15.4945 18.9518 14.5219 19.2156 13.8957C19.2498 13.8137 20.0661 11.8549 20.0661 10.033C20.0661 4.5007 15.5654 0 10.033 0ZM18.1273 13.4378C17.8918 13.999 17.4073 14.9038 17.0703 15.4149L10.1906 25.8386C10.0549 26.0446 10.0118 26.0446 9.87604 25.8386L2.99633 15.4149C2.65934 14.9038 2.17481 13.9984 1.93933 13.4372C1.92929 13.413 1.18036 11.61 1.18036 10.033C1.18036 5.15167 5.15167 1.18036 10.033 1.18036C14.9144 1.18036 18.8857 5.15167 18.8857 10.033C18.8857 11.6123 18.135 13.4201 18.1273 13.4378Z" fill="#EA374C"/>
<path d="M10.033 4.72202C7.10399 4.72202 4.72144 7.10515 4.72144 10.0336C4.72144 12.9621 7.10399 15.3452 10.033 15.3452C12.9621 15.3452 15.3446 12.9621 15.3446 10.0336C15.3446 7.10515 12.9621 4.72202 10.033 4.72202ZM10.033 14.1649C7.75554 14.1649 5.90179 12.3117 5.90179 10.0336C5.90179 7.75553 7.75554 5.90237 10.033 5.90237C12.3105 5.90237 14.1643 7.75553 14.1643 10.0336C14.1643 12.3117 12.3105 14.1649 10.033 14.1649Z" fill="#EA374C"/>
</svg>
