<svg width="242" height="48" viewBox="0 0 242 48" fill="none" xmlns="http://www.w3.org/2000/svg">
<path d="M33.022 22L30.908 18.99C30.6467 19.0087 30.4413 19.018 30.292 19.018H27.87V22H26.47V12.2H30.292C31.5613 12.2 32.56 12.5033 33.288 13.11C34.016 13.7167 34.38 14.552 34.38 15.616C34.38 16.372 34.1933 17.016 33.82 17.548C33.4467 18.08 32.9147 18.4673 32.224 18.71L34.548 22H33.022ZM30.25 17.828C31.1367 17.828 31.8133 17.6367 32.28 17.254C32.7467 16.8713 32.98 16.3253 32.98 15.616C32.98 14.9067 32.7467 14.3653 32.28 13.992C31.8133 13.6093 31.1367 13.418 30.25 13.418H27.87V17.828H30.25ZM40.7019 22.112C39.3952 22.112 38.3779 21.7387 37.6499 20.992C36.9219 20.2453 36.5579 19.172 36.5579 17.772V12.2H37.9579V17.716C37.9579 19.816 38.8772 20.866 40.7159 20.866C41.6119 20.866 42.2979 20.6093 42.7739 20.096C43.2499 19.5733 43.4879 18.78 43.4879 17.716V12.2H44.8459V17.772C44.8459 19.1813 44.4819 20.2593 43.7539 21.006C43.0259 21.7433 42.0085 22.112 40.7019 22.112Z" fill="#F11508"/>
<path d="M103.624 12.6V35H100.424V25.016H87.56V35H84.36V12.6H87.56V22.232H100.424V12.6H103.624ZM119.609 35.256C116.622 35.256 114.297 34.4027 112.633 32.696C110.969 30.9893 110.137 28.536 110.137 25.336V12.6H113.337V25.208C113.337 30.008 115.438 32.408 119.641 32.408C121.689 32.408 123.257 31.8213 124.345 30.648C125.433 29.4533 125.977 27.64 125.977 25.208V12.6H129.081V25.336C129.081 28.5573 128.249 31.0213 126.585 32.728C124.921 34.4133 122.595 35.256 119.609 35.256ZM154.905 12.6V35H152.281L138.841 18.296V35H135.641V12.6H138.265L151.705 29.304V12.6H154.905ZM166.058 15.384H158.378V12.6H176.906V15.384H169.226V35H166.058V15.384ZM196.647 32.216V35H180.391V12.6H196.199V15.384H183.591V22.264H194.823V24.984H183.591V32.216H196.647ZM216.805 35L211.973 28.12C211.375 28.1627 210.906 28.184 210.565 28.184H205.029V35H201.829V12.6H210.565C213.466 12.6 215.749 13.2933 217.413 14.68C219.077 16.0667 219.909 17.976 219.909 20.408C219.909 22.136 219.482 23.608 218.629 24.824C217.775 26.04 216.559 26.9253 214.981 27.48L220.293 35H216.805ZM210.469 25.464C212.495 25.464 214.042 25.0267 215.109 24.152C216.175 23.2773 216.709 22.0293 216.709 20.408C216.709 18.7867 216.175 17.5493 215.109 16.696C214.042 15.8213 212.495 15.384 210.469 15.384H205.029V25.464H210.469ZM231.607 35.256C229.921 35.256 228.289 35 226.711 34.488C225.153 33.9547 223.927 33.272 223.031 32.44L224.215 29.944C225.068 30.712 226.156 31.3413 227.479 31.832C228.823 32.3013 230.199 32.536 231.607 32.536C233.463 32.536 234.849 32.2267 235.767 31.608C236.684 30.968 237.143 30.1253 237.143 29.08C237.143 28.312 236.887 27.6933 236.375 27.224C235.884 26.7333 235.265 26.36 234.519 26.104C233.793 25.848 232.759 25.56 231.415 25.24C229.729 24.8347 228.364 24.4293 227.319 24.024C226.295 23.6187 225.409 23 224.663 22.168C223.937 21.3147 223.575 20.1733 223.575 18.744C223.575 17.5493 223.884 16.472 224.503 15.512C225.143 14.552 226.103 13.784 227.383 13.208C228.663 12.632 230.252 12.344 232.151 12.344C233.473 12.344 234.775 12.5147 236.055 12.856C237.335 13.1973 238.433 13.688 239.351 14.328L238.295 16.888C237.356 16.2907 236.353 15.8427 235.287 15.544C234.22 15.224 233.175 15.064 232.151 15.064C230.337 15.064 228.972 15.3947 228.055 16.056C227.159 16.7173 226.711 17.5707 226.711 18.616C226.711 19.384 226.967 20.0133 227.479 20.504C227.991 20.9733 228.62 21.3467 229.367 21.624C230.135 21.88 231.169 22.1573 232.471 22.456C234.156 22.8613 235.511 23.2667 236.535 23.672C237.559 24.0773 238.433 24.696 239.159 25.528C239.905 26.36 240.279 27.48 240.279 28.888C240.279 30.0613 239.959 31.1387 239.319 32.12C238.679 33.08 237.708 33.848 236.407 34.424C235.105 34.9787 233.505 35.256 231.607 35.256Z" fill="#F11508"/>
<path d="M3.36 37.07C2.76267 37.07 2.18867 36.986 1.638 36.818C1.09667 36.6407 0.672 36.4213 0.364 36.16L0.812 35.376C1.12 35.6187 1.50733 35.8193 1.974 35.978C2.44067 36.1273 2.926 36.202 3.43 36.202C4.102 36.202 4.59667 36.0993 4.914 35.894C5.24067 35.6793 5.404 35.3807 5.404 34.998C5.404 34.7273 5.31533 34.5173 5.138 34.368C4.96067 34.2093 4.73667 34.0927 4.466 34.018C4.19533 33.934 3.836 33.8547 3.388 33.78C2.79067 33.668 2.31 33.556 1.946 33.444C1.582 33.3227 1.26933 33.122 1.008 32.842C0.756 32.562 0.63 32.1747 0.63 31.68C0.63 31.064 0.886667 30.56 1.4 30.168C1.91333 29.776 2.62733 29.58 3.542 29.58C4.018 29.58 4.494 29.6453 4.97 29.776C5.446 29.8973 5.838 30.0607 6.146 30.266L5.712 31.064C5.10533 30.644 4.382 30.434 3.542 30.434C2.90733 30.434 2.42667 30.546 2.1 30.77C1.78267 30.994 1.624 31.288 1.624 31.652C1.624 31.932 1.71267 32.156 1.89 32.324C2.07667 32.492 2.30533 32.618 2.576 32.702C2.84667 32.7767 3.22 32.856 3.696 32.94C4.284 33.052 4.75533 33.164 5.11 33.276C5.46467 33.388 5.768 33.5793 6.02 33.85C6.272 34.1207 6.398 34.494 6.398 34.97C6.398 35.614 6.12733 36.1273 5.586 36.51C5.054 36.8833 4.312 37.07 3.36 37.07ZM11.9876 29.58C12.9116 29.58 13.6443 29.8507 14.1856 30.392C14.7363 30.924 15.0116 31.7033 15.0116 32.73V37H14.0176V32.828C14.0176 32.0627 13.8263 31.4793 13.4436 31.078C13.0609 30.6767 12.5149 30.476 11.8056 30.476C11.0123 30.476 10.3823 30.714 9.91561 31.19C9.45828 31.6567 9.22961 32.3053 9.22961 33.136V37H8.23561V26.612H9.22961V30.924C9.50028 30.4947 9.87361 30.1633 10.3496 29.93C10.8256 29.6967 11.3716 29.58 11.9876 29.58ZM24.1496 33.626H17.9896C18.0456 34.3913 18.3396 35.012 18.8716 35.488C19.4036 35.9547 20.0756 36.188 20.8876 36.188C21.3449 36.188 21.7649 36.1087 22.1476 35.95C22.5302 35.782 22.8616 35.5393 23.1416 35.222L23.7016 35.866C23.3749 36.258 22.9642 36.5567 22.4696 36.762C21.9842 36.9673 21.4476 37.07 20.8596 37.07C20.1036 37.07 19.4316 36.9113 18.8436 36.594C18.2649 36.2673 17.8122 35.8193 17.4856 35.25C17.1589 34.6807 16.9956 34.0367 16.9956 33.318C16.9956 32.5993 17.1496 31.9553 17.4576 31.386C17.7749 30.8167 18.2042 30.3733 18.7456 30.056C19.2962 29.7387 19.9122 29.58 20.5936 29.58C21.2749 29.58 21.8862 29.7387 22.4276 30.056C22.9689 30.3733 23.3936 30.8167 23.7016 31.386C24.0096 31.946 24.1636 32.59 24.1636 33.318L24.1496 33.626ZM20.5936 30.434C19.8842 30.434 19.2869 30.6627 18.8016 31.12C18.3256 31.568 18.0549 32.156 17.9896 32.884H23.2116C23.1462 32.156 22.8709 31.568 22.3856 31.12C21.9096 30.6627 21.3122 30.434 20.5936 30.434ZM29.9388 29.58C30.8628 29.58 31.5954 29.8507 32.1368 30.392C32.6874 30.924 32.9628 31.7033 32.9628 32.73V37H31.9688V32.828C31.9688 32.0627 31.7774 31.4793 31.3948 31.078C31.0121 30.6767 30.4661 30.476 29.7568 30.476C28.9634 30.476 28.3334 30.714 27.8668 31.19C27.4094 31.6567 27.1808 32.3053 27.1808 33.136V37H26.1868V29.636H27.1388V30.994C27.4094 30.546 27.7828 30.2007 28.2588 29.958C28.7441 29.706 29.3041 29.58 29.9388 29.58ZM39.5394 36.552C39.3527 36.72 39.1194 36.8507 38.8394 36.944C38.5687 37.028 38.2841 37.07 37.9854 37.07C37.2947 37.07 36.7627 36.8833 36.3894 36.51C36.0161 36.1367 35.8294 35.6093 35.8294 34.928V30.476H34.5134V29.636H35.8294V28.026H36.8234V29.636H39.0634V30.476H36.8234V34.872C36.8234 35.3107 36.9307 35.6467 37.1454 35.88C37.3694 36.104 37.6867 36.216 38.0974 36.216C38.3027 36.216 38.4987 36.1833 38.6854 36.118C38.8814 36.0527 39.0494 35.9593 39.1894 35.838L39.5394 36.552ZM43.3229 37.07C42.7256 37.07 42.1516 36.986 41.6009 36.818C41.0596 36.6407 40.6349 36.4213 40.3269 36.16L40.7749 35.376C41.0829 35.6187 41.4702 35.8193 41.9369 35.978C42.4036 36.1273 42.8889 36.202 43.3929 36.202C44.0649 36.202 44.5596 36.0993 44.8769 35.894C45.2036 35.6793 45.3669 35.3807 45.3669 34.998C45.3669 34.7273 45.2782 34.5173 45.1009 34.368C44.9236 34.2093 44.6996 34.0927 44.4289 34.018C44.1582 33.934 43.7989 33.8547 43.3509 33.78C42.7536 33.668 42.2729 33.556 41.9089 33.444C41.5449 33.3227 41.2322 33.122 40.9709 32.842C40.7189 32.562 40.5929 32.1747 40.5929 31.68C40.5929 31.064 40.8496 30.56 41.3629 30.168C41.8762 29.776 42.5902 29.58 43.5049 29.58C43.9809 29.58 44.4569 29.6453 44.9329 29.776C45.4089 29.8973 45.8009 30.0607 46.1089 30.266L45.6749 31.064C45.0682 30.644 44.3449 30.434 43.5049 30.434C42.8702 30.434 42.3896 30.546 42.0629 30.77C41.7456 30.994 41.5869 31.288 41.5869 31.652C41.5869 31.932 41.6756 32.156 41.8529 32.324C42.0396 32.492 42.2682 32.618 42.5389 32.702C42.8096 32.7767 43.1829 32.856 43.6589 32.94C44.2469 33.052 44.7182 33.164 45.0729 33.276C45.4276 33.388 45.7309 33.5793 45.9829 33.85C46.2349 34.1207 46.3609 34.494 46.3609 34.97C46.3609 35.614 46.0902 36.1273 45.5489 36.51C45.0169 36.8833 44.2749 37.07 43.3229 37.07ZM54.6105 33.626H48.4505C48.5065 34.3913 48.8005 35.012 49.3325 35.488C49.8645 35.9547 50.5365 36.188 51.3485 36.188C51.8058 36.188 52.2258 36.1087 52.6085 35.95C52.9912 35.782 53.3225 35.5393 53.6025 35.222L54.1625 35.866C53.8358 36.258 53.4252 36.5567 52.9305 36.762C52.4452 36.9673 51.9085 37.07 51.3205 37.07C50.5645 37.07 49.8925 36.9113 49.3045 36.594C48.7258 36.2673 48.2732 35.8193 47.9465 35.25C47.6198 34.6807 47.4565 34.0367 47.4565 33.318C47.4565 32.5993 47.6105 31.9553 47.9185 31.386C48.2358 30.8167 48.6652 30.3733 49.2065 30.056C49.7572 29.7387 50.3732 29.58 51.0545 29.58C51.7358 29.58 52.3472 29.7387 52.8885 30.056C53.4298 30.3733 53.8545 30.8167 54.1625 31.386C54.4705 31.946 54.6245 32.59 54.6245 33.318L54.6105 33.626ZM51.0545 30.434C50.3452 30.434 49.7478 30.6627 49.2625 31.12C48.7865 31.568 48.5158 32.156 48.4505 32.884H53.6725C53.6072 32.156 53.3318 31.568 52.8465 31.12C52.3705 30.6627 51.7732 30.434 51.0545 30.434ZM62.699 29.636L59.423 37H58.401L55.139 29.636H56.175L58.933 35.908L61.719 29.636H62.699ZM66.4561 29.58C67.4175 29.58 68.1548 29.8227 68.6681 30.308C69.1815 30.784 69.4381 31.4933 69.4381 32.436V37H68.4861V35.852C68.2621 36.2347 67.9308 36.5333 67.4921 36.748C67.0628 36.9627 66.5495 37.07 65.9521 37.07C65.1308 37.07 64.4775 36.874 63.9921 36.482C63.5068 36.09 63.2641 35.572 63.2641 34.928C63.2641 34.3027 63.4881 33.7987 63.9361 33.416C64.3935 33.0333 65.1168 32.842 66.1061 32.842H68.4441V32.394C68.4441 31.7593 68.2668 31.2787 67.9121 30.952C67.5575 30.616 67.0395 30.448 66.3581 30.448C65.8915 30.448 65.4435 30.5273 65.0141 30.686C64.5848 30.8353 64.2161 31.0453 63.9081 31.316L63.4601 30.574C63.8335 30.2567 64.2815 30.014 64.8041 29.846C65.3268 29.6687 65.8775 29.58 66.4561 29.58ZM66.1061 36.286C66.6661 36.286 67.1468 36.16 67.5481 35.908C67.9495 35.6467 68.2481 35.2733 68.4441 34.788V33.584H66.1341C64.8741 33.584 64.2441 34.0227 64.2441 34.9C64.2441 35.3293 64.4075 35.67 64.7341 35.922C65.0608 36.1647 65.5181 36.286 66.1061 36.286Z" fill="#333333"/>
<line x1="77" y1="12" x2="77" y2="37" stroke="#333333" stroke-width="2"/>
</svg>
