<svg width="50" height="50" viewBox="0 0 50 50" fill="none" xmlns="http://www.w3.org/2000/svg">
<path d="M12.8734 10.6776C11.9357 9.70843 10.6436 9.16291 9.29503 9.16677H9.03836C7.69117 9.16406 6.40097 9.70948 5.4642 10.6776C4.58295 11.5836 4.11503 12.8133 4.17086 14.0759L4.26836 16.3193C4.41607 18.8864 6.56409 20.8789 9.13503 20.8334H9.19836C11.7693 20.8789 13.9173 18.8864 14.065 16.3193L14.1667 14.0759C14.2225 12.8133 13.7546 11.5836 12.8734 10.6776ZM12.4 16.2501C12.2871 17.9233 10.8748 19.2099 9.19836 19.1668H9.13503C7.45857 19.2099 6.04628 17.9233 5.93336 16.2501L5.9042 15.5693C7.49274 15.4985 9.01805 14.9261 10.2609 13.9343C10.7734 14.6922 11.547 15.2348 12.4342 15.4584L12.4 16.2501ZM11.355 12.3109C11.3087 11.9555 11.0401 11.6696 10.6884 11.6009C10.3378 11.5284 9.98055 11.6899 9.80336 12.0009C9.79253 12.0184 8.75836 13.6543 5.84003 13.9043C5.83284 13.1322 6.12982 12.3883 6.6667 11.8334C7.28888 11.1923 8.14492 10.8314 9.03836 10.8334H9.29503C10.1885 10.8314 11.0445 11.1923 11.6667 11.8334C12.1528 12.34 12.4414 13.0041 12.48 13.7051C11.9034 13.4474 11.485 12.9291 11.355 12.3109Z" fill="#EA374C"/>
<path d="M45.3734 30.6774C44.4357 29.7082 43.1436 29.1627 41.795 29.1665H41.5384C40.1912 29.1638 38.901 29.7092 37.9642 30.6774C37.083 31.5834 36.6149 32.8131 36.6709 34.0757L36.7684 36.319C36.9161 38.8861 39.0641 40.8786 41.635 40.8332H41.6984C44.2693 40.8786 46.4173 38.8861 46.565 36.319L46.6667 34.0757C46.7225 32.8131 46.2546 31.5834 45.3734 30.6774ZM45 34.0082L44.9 36.2499C44.7871 37.9231 43.3748 39.2097 41.6984 39.1665H41.635C39.9586 39.2097 38.5463 37.9231 38.4334 36.2499L38.3334 34.004C38.3012 33.1966 38.6025 32.4116 39.1667 31.8332C39.7889 31.192 40.6449 30.8311 41.5384 30.8332H41.795C42.6885 30.8311 43.5445 31.192 44.1667 31.8332C44.7319 32.4127 45.0334 33.1994 45 34.0082Z" fill="#EA374C"/>
<path d="M25.7431 12.1191C24.849 11.2542 23.43 11.2542 22.5358 12.1191L13.2325 21.4225C13.076 21.5789 12.8638 21.6668 12.6425 21.6666H4.16667C1.86667 21.6693 0.00270833 23.5333 0 25.8333V37.5C0 38.8807 1.11927 40 2.5 40C2.78385 40 3.06563 39.9517 3.33333 39.8575V40.8333C3.33333 41.2935 3.70646 41.6666 4.16667 41.6666H14.1667C14.6269 41.6666 15 41.2935 15 40.8333V27.3216C14.9999 27.1108 15.0797 26.9077 15.2233 26.7533L25.7975 15.3808C26.6832 14.4652 26.6589 13.0049 25.7431 12.1191ZM24.6074 14.2155C24.6044 14.2184 24.6014 14.2213 24.5983 14.2241L14 25.6191C13.5708 26.0822 13.3326 26.6903 13.3333 27.3216V40H5V27.5C5 27.0398 4.62688 26.6666 4.16667 26.6666C3.70646 26.6666 3.33333 27.0398 3.33333 27.5V37.5C3.33333 37.9602 2.96021 38.3333 2.5 38.3333C2.03979 38.3333 1.66667 37.9602 1.66667 37.5V25.8333C1.66667 24.4526 2.78594 23.3333 4.16667 23.3333H12.6425C13.3061 23.3354 13.943 23.0716 14.4108 22.6008L23.7142 13.2975C23.9678 13.0568 24.3655 13.0568 24.6192 13.2975C24.8694 13.5542 24.8642 13.9653 24.6074 14.2155Z" fill="#EA374C"/>
<path d="M9.16671 24.1667C8.7065 24.1667 8.33337 24.5399 8.33337 25.0001V35.0001C8.33337 35.4603 8.7065 35.8334 9.16671 35.8334C9.62692 35.8334 10 35.4603 10 35.0001V25.0001C10 24.5399 9.62692 24.1667 9.16671 24.1667Z" fill="#EA374C"/>
<path d="M27.0358 30.6776C26.0991 29.7095 24.8089 29.164 23.4617 29.1668H23.205C21.8578 29.164 20.5676 29.7095 19.6308 30.6776C18.7496 31.5836 18.2816 32.8133 18.3375 34.0759L18.435 36.3193C18.5827 38.8863 20.7307 40.8788 23.3017 40.8334H23.365C25.9359 40.8788 28.084 38.8863 28.2317 36.3193L28.3292 34.0759C28.3851 32.8133 27.9171 31.5836 27.0358 30.6776ZM26.6667 34.0084L26.5667 36.2501C26.4538 37.9233 25.0415 39.2099 23.365 39.1668H23.3017C21.6252 39.2099 20.2129 37.9233 20.1 36.2501L20 34.0043C19.9678 33.1969 20.2692 32.4119 20.8333 31.8334C21.4555 31.1923 22.3116 30.8313 23.205 30.8334H23.4617C24.3551 30.8313 25.2112 31.1923 25.8333 31.8334C26.3985 32.4129 26.7 33.1997 26.6667 34.0084Z" fill="#EA374C"/>
<path d="M27.6393 41.6667H19.0276C16.8043 41.669 15.0024 43.4709 15.0001 45.6942V49.1667C15.0001 49.627 15.3732 50.0001 15.8335 50.0001C16.2937 50.0001 16.6668 49.627 16.6668 49.1667V45.6942C16.6681 44.3909 17.7244 43.3348 19.0276 43.3334H27.6393C28.9426 43.3348 29.9988 44.3909 30.0001 45.6942V49.1667C30.0001 49.627 30.3732 50.0001 30.8335 50.0001C31.2937 50.0001 31.6668 49.627 31.6668 49.1667V45.6942C31.6645 43.4709 29.8626 41.669 27.6393 41.6667Z" fill="#EA374C"/>
<path d="M45.9725 41.6667H37.3609C35.1375 41.669 33.3357 43.4709 33.3334 45.6942V49.1667C33.3334 49.627 33.7065 50.0001 34.1667 50.0001C34.6269 50.0001 35 49.627 35 49.1667V45.6942C35.0014 44.3909 36.0576 43.3348 37.3609 43.3334H45.9725C47.2759 43.3348 48.332 44.3909 48.3334 45.6942V49.1667C48.3334 49.627 48.7065 50.0001 49.1667 50.0001C49.6269 50.0001 50 49.627 50 49.1667V45.6942C49.9977 43.4709 48.1959 41.669 45.9725 41.6667Z" fill="#EA374C"/>
<path d="M47.5418 0H18.2918C16.9233 0.0133333 15.8238 1.13156 15.8334 2.5V15C15.8334 15.4602 16.2066 15.8333 16.6668 15.8333C17.127 15.8333 17.5001 15.4602 17.5001 15V5H48.3334V25C48.3442 25.4484 47.9902 25.821 47.5418 25.8333H19.1043C18.6441 25.8333 18.2709 26.2065 18.2709 26.6667C18.2709 27.1269 18.6441 27.5 19.1043 27.5H47.5418C48.9102 27.4867 50.0098 26.3684 50.0001 25V2.5C50.0098 1.13156 48.9102 0.0133333 47.5418 0ZM48.3334 3.33333H17.5001V2.5C17.4894 2.05156 17.8433 1.67896 18.2918 1.66667H47.5418C47.9902 1.67896 48.3442 2.05156 48.3334 2.5V3.33333Z" fill="#EA374C"/>
<path d="M45.8333 10.625C45.3731 10.625 45 10.9981 45 11.4583V23.3333C45 23.7935 45.3731 24.1667 45.8333 24.1667C46.2935 24.1667 46.6667 23.7935 46.6667 23.3333V11.4583C46.6667 10.9981 46.2935 10.625 45.8333 10.625Z" fill="#EA374C"/>
<path d="M42.5001 15.8333C42.0399 15.8333 41.6667 16.2064 41.6667 16.6666V23.3333C41.6667 23.7935 42.0399 24.1666 42.5001 24.1666C42.9603 24.1666 43.3334 23.7935 43.3334 23.3333V16.6666C43.3334 16.2064 42.9603 15.8333 42.5001 15.8333Z" fill="#EA374C"/>
<path d="M39.1667 14.1667C38.7065 14.1667 38.3334 14.5399 38.3334 15.0001V23.3334C38.3334 23.7936 38.7065 24.1667 39.1667 24.1667C39.6269 24.1667 40 23.7936 40 23.3334V15.0001C40 14.5399 39.6269 14.1667 39.1667 14.1667Z" fill="#EA374C"/>
<path d="M35.8333 19.1665C35.3731 19.1665 35 19.5396 35 19.9998V23.3332C35 23.7934 35.3731 24.1665 35.8333 24.1665C36.2935 24.1665 36.6667 23.7934 36.6667 23.3332V19.9998C36.6667 19.5396 36.2935 19.1665 35.8333 19.1665Z" fill="#EA374C"/>
<path d="M46.2959 6.80669C45.9129 6.55127 45.3954 6.65461 45.14 7.03752L42.295 11.3042L39.6667 9.33336C39.2999 9.05533 38.7772 9.12742 38.4992 9.49419C38.4675 9.53596 38.4399 9.58054 38.4167 9.62752L35.1717 16.1184L32 18.5C31.6318 18.7762 31.5572 19.2985 31.8334 19.6667C32.1095 20.0349 32.6318 20.1095 33 19.8334L36.3334 17.3334C36.4384 17.2561 36.524 17.1553 36.5834 17.0392L39.4692 11.2659L42 13.1667C42.3681 13.4428 42.8905 13.3684 43.1667 13.0001C43.176 12.9878 43.1848 12.9752 43.1934 12.9625L46.5267 7.96252C46.7821 7.57961 46.6788 7.06211 46.2959 6.80669Z" fill="#EA374C"/>
<path d="M30.0001 6.6665H20.0001C19.5399 6.6665 19.1667 7.03963 19.1667 7.49984C19.1667 7.96005 19.5399 8.33317 20.0001 8.33317H30.0001C30.4603 8.33317 30.8334 7.96005 30.8334 7.49984C30.8334 7.03963 30.4603 6.6665 30.0001 6.6665Z" fill="#EA374C"/>
<path d="M35 6.6665H33.3333C32.8731 6.6665 32.5 7.03963 32.5 7.49984C32.5 7.96005 32.8731 8.33317 33.3333 8.33317H35C35.4602 8.33317 35.8333 7.96005 35.8333 7.49984C35.8333 7.03963 35.4602 6.6665 35 6.6665Z" fill="#EA374C"/>
</svg>
