<svg width="50" height="50" viewBox="0 0 50 50" fill="none" xmlns="http://www.w3.org/2000/svg">
<path d="M17.8018 30.692L19.3082 32.1984C19.8298 32.7198 20.6735 32.7198 21.1951 32.1984L22.1378 31.2556C22.2891 31.3248 22.444 31.389 22.6006 31.4473V32.7805C22.6006 33.5162 23.1991 34.1148 23.9349 34.1148H26.065C26.8008 34.1148 27.3993 33.5162 27.3993 32.7805V31.4473C27.5559 31.389 27.7109 31.3248 27.8621 31.2556L28.8049 32.1985C29.3249 32.7182 30.1715 32.7185 30.6917 32.1984L32.1981 30.692C32.7182 30.1719 32.7182 29.3254 32.198 28.805L31.2553 27.8624C31.3245 27.7112 31.3887 27.5562 31.447 27.3996H32.7802C33.5159 27.3996 34.1145 26.8011 34.1145 26.0654V23.9352C34.1145 23.1994 33.5159 22.6009 32.7802 22.6009H31.447C31.3888 22.4444 31.3245 22.2895 31.2553 22.1381L32.1982 21.1953C32.7182 20.6751 32.7182 19.8286 32.1981 19.3085L30.6916 17.8022C30.1715 17.2819 29.325 17.2821 28.8047 17.8022L27.8621 18.7449C27.7109 18.6757 27.5559 18.6115 27.3993 18.5532V17.22C27.3993 16.4843 26.8008 15.8857 26.065 15.8857H23.9349C23.1991 15.8857 22.6006 16.4843 22.6006 17.22V18.5532C22.4438 18.6116 22.2888 18.6758 22.1378 18.7449L21.1951 17.8023C20.6738 17.2808 19.8296 17.2807 19.3082 17.8023L17.8018 19.3085C17.2817 19.8286 17.2817 20.6751 17.8019 21.1955L18.7446 22.1381C18.6754 22.2894 18.6112 22.4443 18.5529 22.6009H17.2197C16.484 22.6009 15.8854 23.1994 15.8854 23.9352V26.0654C15.8854 26.8011 16.484 27.3996 17.2197 27.3996H18.5529C18.6112 27.5563 18.6755 27.7113 18.7446 27.8624L17.8017 28.8052C17.2817 29.3254 17.2817 30.1719 17.8018 30.692ZM18.6449 25.9347H17.3503V24.0655H18.6449C19.2076 24.0655 19.712 23.7106 19.9001 23.1825C19.9609 23.0116 20.031 22.8426 20.1084 22.6796C20.349 22.1728 20.2434 21.565 19.8456 21.1672L18.9302 20.2518L20.2518 18.9302L21.1672 19.8457C21.5649 20.2434 22.1728 20.3492 22.68 20.1082C22.8423 20.0312 23.0114 19.961 23.1824 19.9001C23.7106 19.712 24.0656 19.2076 24.0656 18.645V17.3504H25.9348V18.645C25.9348 19.2076 26.2898 19.712 26.8178 19.9001C26.9887 19.9609 27.1577 20.031 27.3207 20.1084C27.8276 20.3491 28.4352 20.2433 28.8331 19.8456L29.7486 18.9302L31.0701 20.2518L30.1546 21.1672C29.7569 21.5651 29.6513 22.1729 29.8919 22.6796C29.9694 22.8426 30.0394 23.0117 30.1002 23.1823C30.2883 23.7106 30.7927 24.0655 31.3554 24.0655H32.65V25.9347H31.3553C30.7927 25.9347 30.2883 26.2897 30.1003 26.8177C30.0394 26.9886 29.9694 27.1576 29.8919 27.3206C29.6514 27.8273 29.7569 28.4351 30.1547 28.833L31.0701 29.7485L29.7486 31.0701L28.8329 30.1544C28.4353 29.7569 27.8277 29.6513 27.3204 29.8919C27.1577 29.9693 26.9887 30.0393 26.818 30.1C26.2897 30.2881 25.9347 30.7925 25.9347 31.3552V32.6499H24.0655V31.3552C24.0655 30.7926 23.7106 30.2882 23.1825 30.1002C23.0116 30.0393 22.8426 29.9693 22.6796 29.8918C22.1727 29.6511 21.5649 29.757 21.1672 30.1545L20.2518 31.0701L18.9302 29.7485L19.8458 28.8328C20.2434 28.4351 20.3489 27.8273 20.1083 27.3203C20.031 27.1576 19.9609 26.9886 19.9001 26.8178C19.712 26.2897 19.2076 25.9347 18.6449 25.9347Z" fill="#EA374C"/>
<path d="M25.0001 28.9091C27.1555 28.9091 28.9092 27.1555 28.9092 24.9999C28.9092 22.8444 27.1555 21.0908 25.0001 21.0908C22.8446 21.0908 21.0909 22.8444 21.0909 24.9999C21.0909 27.1555 22.8446 28.9091 25.0001 28.9091ZM25.0001 22.5557C26.3478 22.5557 27.4443 23.6523 27.4443 24.9999C27.4443 26.3478 26.3477 27.4443 25.0001 27.4443C23.6522 27.4443 22.5557 26.3477 22.5557 24.9999C22.5557 23.6522 23.6522 22.5557 25.0001 22.5557Z" fill="#EA374C"/>
<path d="M9.201 18.4021C14.2879 18.4021 18.4021 14.2682 18.4021 9.20109C18.4021 4.12755 14.2744 0 9.201 0C4.12755 0 0 4.12755 0 9.201C0 14.2704 4.12462 18.4021 9.201 18.4021ZM14.1036 15.1806C12.7172 16.3194 10.9912 16.9372 9.201 16.9372C7.44943 16.9372 5.71368 16.3431 4.29845 15.1807C4.29845 13.6642 5.49405 12.611 6.82365 12.611H11.5783C12.9093 12.6109 14.1036 13.6653 14.1036 15.1806ZM9.201 1.46485C13.4668 1.46485 16.9372 4.93526 16.9372 9.201C16.9372 10.9549 16.3496 12.5736 15.3623 13.8726C14.8325 12.2901 13.337 11.146 11.5783 11.146H6.82365C5.06515 11.146 3.56964 12.2901 3.03975 13.8726C2.05245 12.5736 1.46485 10.9549 1.46485 9.201C1.46485 4.93526 4.93526 1.46485 9.201 1.46485Z" fill="#EA374C"/>
<path d="M40.799 31.5979C35.7255 31.5979 31.5979 35.7255 31.5979 40.799C31.5979 45.8704 35.7181 50 40.799 50C45.8543 50 50 45.8908 50 40.799C50 35.7255 45.8724 31.5979 40.799 31.5979ZM45.7015 46.7786C42.8607 49.112 38.7596 49.1305 35.8963 46.7786C35.8963 45.2621 37.092 44.209 38.4215 44.209H43.1762C44.5074 44.2089 45.7015 45.2632 45.7015 46.7786ZM46.9602 45.4706C46.4304 43.8881 44.9349 42.744 43.1763 42.744H38.4216C36.6631 42.744 35.1677 43.8881 34.6378 45.4706C33.6504 44.1716 33.0628 42.5529 33.0628 40.799C33.0628 36.5332 36.5333 33.0627 40.7991 33.0627C45.0648 33.0627 48.5352 36.5332 48.5352 40.799C48.5351 42.5529 47.9475 44.1716 46.9602 45.4706Z" fill="#EA374C"/>
<path d="M11.7329 8.88475C13.1324 7.48534 13.1325 5.22029 11.7329 3.82088H11.733C10.3337 2.42156 8.06857 2.42117 6.66915 3.82088C5.26954 5.2202 5.26945 7.48514 6.66896 8.88475C8.06828 10.2841 10.3334 10.2844 11.7329 8.88475ZM7.7048 4.85652C8.5298 4.03152 9.87209 4.03152 10.6971 4.85652H10.6972C11.524 5.68348 11.5241 7.02186 10.6971 7.84891C9.87219 8.67382 8.5299 8.67382 7.7047 7.84891C6.87785 7.02196 6.87775 5.68358 7.7048 4.85652Z" fill="#EA374C"/>
<path d="M6.66904 40.4827C8.06485 41.8785 10.3367 41.8787 11.7329 40.4827C13.129 39.0865 13.129 36.8147 11.7329 35.4186H11.7328C10.3368 34.0226 8.06504 34.0226 6.66895 35.4186C5.27285 36.8147 5.27285 39.0865 6.66904 40.4827ZM7.70469 36.4544C8.52989 35.6294 9.87208 35.6294 10.6971 36.4544C11.5221 37.2793 11.5221 38.6218 10.6972 39.4468C9.87227 40.2719 8.52979 40.2719 7.70479 39.4468C6.87979 38.6218 6.87979 37.2793 7.70469 36.4544Z" fill="#EA374C"/>
<path d="M38.267 3.82083C36.871 5.21692 36.871 7.48861 38.267 8.8847C39.6645 10.2823 41.9364 10.2794 43.3309 8.8847C44.7305 7.48529 44.7306 5.22024 43.3309 3.82083H43.331C41.9348 2.42454 39.6631 2.42473 38.267 3.82083ZM42.2952 7.84896C41.4703 8.67396 40.128 8.67406 39.3028 7.84896C38.4778 7.02396 38.4778 5.68157 39.3028 4.85657C40.1277 4.03157 41.4703 4.03157 42.2952 4.85657H42.2953C43.1222 5.68362 43.1223 7.02201 42.2952 7.84896Z" fill="#EA374C"/>
<path d="M43.3309 35.4186C41.9349 34.0226 39.6631 34.0225 38.267 35.4187C36.871 36.8148 36.871 39.0866 38.2671 40.4827C39.6632 41.8788 41.9348 41.8787 43.331 40.4827C44.7271 39.0865 44.7271 36.8147 43.3309 35.4186ZM42.2953 39.4468C41.4704 40.2718 40.128 40.2719 39.3028 39.4469C38.4779 38.6219 38.4779 37.2794 39.3027 36.4544C40.1278 35.6295 41.4701 35.6294 42.2952 36.4544C43.1202 37.2794 43.1202 38.6218 42.2953 39.4468Z" fill="#EA374C"/>
<path d="M29.6085 9.93335C30.0131 9.93335 30.3409 9.60542 30.3409 9.20093C30.3409 8.79644 30.0131 8.46851 29.6085 8.46851H20.3915C19.9869 8.46851 19.6591 8.79644 19.6591 9.20093C19.6591 9.60542 19.9869 9.93335 20.3915 9.93335H29.6085Z" fill="#EA374C"/>
<path d="M20.3915 40.0667C19.987 40.0667 19.6591 40.3945 19.6591 40.7991C19.6591 41.2037 19.987 41.5315 20.3915 41.5315H29.6086C30.0131 41.5315 30.341 41.2037 30.341 40.7991C30.341 40.3945 30.0131 40.0667 29.6086 40.0667H20.3915Z" fill="#EA374C"/>
<path d="M9.93341 29.6086V20.3916C9.93341 19.987 9.60558 19.6592 9.20099 19.6592C8.7964 19.6592 8.46857 19.987 8.46857 20.3916V29.6086C8.46857 30.0132 8.7964 30.341 9.20099 30.341C9.60558 30.341 9.93341 30.0132 9.93341 29.6086Z" fill="#EA374C"/>
<path d="M41.5313 29.6086V20.3916C41.5313 19.987 41.2035 19.6592 40.7989 19.6592C40.3943 19.6592 40.0665 19.987 40.0665 20.3916V29.6086C40.0665 30.0132 40.3943 30.341 40.7989 30.341C41.2035 30.341 41.5313 30.0132 41.5313 29.6086Z" fill="#EA374C"/>
<path d="M48.3908 7.70822C48.4683 8.10519 48.8536 8.36437 49.2501 8.28654C49.6471 8.209 49.906 7.82423 49.8284 7.42726C48.9875 3.12364 45.19 0 40.799 0C35.7255 0 31.5979 4.12755 31.5979 9.20099C31.5979 14.299 35.7423 18.402 40.799 18.402C45.144 18.402 48.8915 15.3493 49.7946 11.1393C49.8795 10.7438 49.6276 10.3543 49.2321 10.2696C48.8371 10.185 48.4473 10.4365 48.3624 10.8321C48.1202 11.961 47.6305 12.9905 46.9593 13.8699C46.4286 12.2887 44.9339 11.146 43.1763 11.146H38.4216C36.6631 11.146 35.1676 12.2901 34.6377 13.8726C33.6503 12.5736 33.0628 10.9549 33.0628 9.20099C33.0627 4.93526 36.5333 1.46485 40.799 1.46485C44.4911 1.46485 47.6839 4.09054 48.3908 7.70822ZM38.4216 12.6109H43.1763C44.5688 12.6109 45.7015 13.7437 45.7015 15.1362V15.172C44.3512 16.2793 42.6321 16.9372 40.799 16.9372C39.0726 16.9372 37.3292 16.3576 35.8963 15.1806C35.8963 13.6641 37.092 12.6109 38.4216 12.6109Z" fill="#EA374C"/>
<path d="M9.201 49.9999C14.2786 49.9999 18.4021 45.8706 18.4021 40.7989C18.4021 36.4482 15.313 32.6575 11.0571 31.7852C10.6614 31.7046 10.2737 31.9594 10.1924 32.3557C10.1112 32.752 10.3666 33.139 10.7629 33.2204C14.3406 33.9535 16.9372 37.1408 16.9372 40.7989C16.9372 42.5527 16.3496 44.1714 15.3622 45.4705C14.8324 43.888 13.3369 42.7439 11.5783 42.7439H6.82365C5.06515 42.7439 3.56964 43.888 3.03975 45.4705C2.05245 44.1714 1.46485 42.5528 1.46485 40.7989C1.46485 37.1407 4.06143 33.9534 7.63908 33.2204C8.03537 33.1391 8.29074 32.752 8.20959 32.3557C8.12844 31.9594 7.74142 31.7044 7.34494 31.7852C3.08897 32.6575 0 36.4482 0 40.7989C0 45.8632 4.11222 49.9999 9.201 49.9999ZM6.82365 44.2088H11.5783C12.9094 44.2088 14.1036 45.2631 14.1036 46.7784C11.2677 49.1077 7.16554 49.1334 4.29845 46.7784C4.29845 45.2619 5.49405 44.2088 6.82365 44.2088Z" fill="#EA374C"/>
</svg>
