<svg width="50" height="51" viewBox="0 0 50 51" fill="none" xmlns="http://www.w3.org/2000/svg">
<path d="M35.517 7.58175C32.2673 7.78704 29.6619 10.3924 29.4565 13.6421C29.2095 17.5516 32.4375 20.7919 36.3579 20.5435C39.6075 20.3382 42.2129 17.7328 42.4183 14.4831C42.6654 10.5743 39.4384 7.33339 35.517 7.58175ZM40.9564 14.3907C40.7974 16.906 38.7809 18.9225 36.2655 19.0815C33.2147 19.2724 30.7275 16.7566 30.9185 13.7345C31.0775 11.2192 33.0941 9.20259 35.6094 9.04359C38.6439 8.85275 41.1482 11.3539 40.9564 14.3907Z" fill="#EA374C"/>
<path d="M47.1196 10.6122C46.0639 10.6082 45.5414 9.33799 46.2878 8.59154C46.8309 8.04853 47.1299 7.32649 47.1299 6.55846C47.1299 5.79043 46.8309 5.06849 46.2878 4.52548L45.4415 3.67922C44.3243 2.56203 42.551 2.57805 41.4047 3.71574C40.6555 4.45926 39.3878 3.9307 39.3878 2.87505C39.3877 1.28976 38.0979 0 36.5125 0H35.3622C33.7769 0 32.4871 1.28976 32.4871 2.87514C32.4871 3.93178 31.2158 4.46151 30.4664 3.71213C29.9234 3.16902 29.2014 2.86997 28.4334 2.86997C27.6654 2.86997 26.9435 3.16902 26.4005 3.71213L25.5871 4.52548C25.3638 4.74884 25.1818 5.00413 25.0448 5.28091C23.9913 4.63418 22.7529 4.26051 21.4288 4.26051H15.034C13.5876 4.26051 12.2955 5.17768 11.8187 6.54283C11.7856 6.63767 11.6922 6.70144 11.5862 6.70144C9.69652 6.70144 8.15908 8.23888 8.15908 10.1286C8.15908 10.5331 8.48704 10.861 8.89147 10.861C9.296 10.861 9.62386 10.533 9.62386 10.1286C9.62386 9.04656 10.5041 8.16631 11.5861 8.16631C12.314 8.16631 12.9632 7.70807 13.2015 7.02588C13.4732 6.24799 14.2095 5.72538 15.0339 5.72538H21.4287C24.4439 5.72538 26.8969 8.17842 26.8969 11.1935V15.1552C25.7626 15.4739 25.6111 15.8988 24.7453 15.9443V12.627C24.7453 10.9427 23.375 9.57239 21.6907 9.57239H21.6628C20.4086 9.57239 19.8963 10.0942 18.404 10.0942H18.1171C16.6403 10.0942 16.1025 9.57239 14.8583 9.57239H14.8303C13.146 9.57239 11.7757 10.9427 11.7757 12.627V15.4825C11.0823 15.1891 10.2356 15.0781 9.62415 15.0373V13.5939C9.62415 13.1894 9.29619 12.8615 8.89176 12.8615C8.48724 12.8615 8.15938 13.1895 8.15938 13.5939V15.3613C7.66158 15.7749 7.36595 16.3897 7.36595 17.054V18.6856C7.36595 19.8573 8.28478 20.8184 9.43976 20.8865C9.65931 23.0093 10.6487 24.9541 12.2158 26.3035C12.4531 26.5078 12.696 26.6976 12.9435 26.875V29.9557C12.9435 30.246 12.7261 30.4931 12.4377 30.5306C12.4376 30.5306 12.4376 30.5306 12.4375 30.5306C10.2923 30.8089 6.37241 31.4189 4.22174 32.3765C1.65707 33.5184 1.65939e-08 36.0702 1.65939e-08 38.8776V46.1604C-0.000195312 48.2799 1.72407 50.0042 3.84349 50.0042H32.6771C34.7965 50.0042 36.5207 48.2799 36.5207 46.1605V43.6871C36.5207 43.2825 36.1928 42.9547 35.7884 42.9547C35.3839 42.9547 35.056 43.2826 35.056 43.6871V46.1605C35.056 47.4723 33.9888 48.5393 32.6772 48.5393H30.7953V44.5453C30.7953 44.1408 30.4673 43.813 30.0629 43.813C29.6584 43.813 29.3305 44.1409 29.3305 44.5453V48.5393H21.7169L20.3653 38.5494L21.0511 37.5861C21.2293 37.6344 21.4118 37.66 21.5944 37.66C22.079 37.66 22.5621 37.4905 22.9524 37.1554L26.245 34.3293C26.7972 33.8553 27.0544 33.1574 26.952 32.4553C28.6408 32.7607 30.5134 33.1849 31.7034 33.7147C33.7401 34.6216 35.0562 36.6481 35.0562 38.8776V40.2643C35.0562 40.6688 35.3841 40.9967 35.7886 40.9967C36.193 40.9967 36.5209 40.6687 36.5209 40.2643V38.8776C36.5209 36.0702 34.8638 33.5184 32.2992 32.3765C30.1485 31.419 26.2287 30.809 24.0835 30.5306H24.0834C23.795 30.4931 23.5776 30.2461 23.5776 29.9557V26.875C23.825 26.6976 24.0679 26.5078 24.3053 26.3035C25.028 25.6812 25.626 24.9311 26.0841 24.0965L26.4005 24.4128C27.5241 25.5364 29.3428 25.5366 30.4665 24.4128C31.2138 23.6656 32.4872 24.1899 32.4872 25.2498C32.4872 26.8352 33.777 28.1249 35.3623 28.1249H36.5126C38.098 28.1249 39.3878 26.8352 39.3878 25.2498C39.3878 24.1927 40.6596 23.6638 41.4085 24.4128C41.9515 24.9559 42.6735 25.255 43.4415 25.255C44.2096 25.255 44.9315 24.9559 45.4745 24.4129L46.2879 23.5995C47.4089 22.4785 47.4089 20.6545 46.2879 19.5335C45.5414 18.787 46.0641 17.5168 47.1197 17.5128C48.7349 17.5067 50 16.2642 50 14.6842V13.4409C49.9999 11.8609 48.7348 10.6184 47.1196 10.6122ZM19.2229 37.6282H17.2978L16.7366 36.8397L18.2604 35.7426L19.7843 36.8397L19.2229 37.6282ZM15.2895 36.0767C15.0561 36.2448 14.7408 36.2313 14.5225 36.0439L11.2298 33.2178C10.9489 32.9766 11.0122 32.6644 11.0382 32.5744C11.0641 32.4851 11.1762 32.1923 11.535 32.1345C11.8421 32.0894 12.123 32.0503 12.3664 32.0176L16.9474 34.8829L15.2895 36.0767ZM1.46467 46.1605V38.8777C1.46467 36.6482 2.7807 34.6218 4.8174 33.7148C6.00744 33.185 7.88006 32.7608 9.56887 32.4554C9.46632 33.1575 9.72367 33.8554 10.2758 34.3293L13.5684 37.1555C13.9588 37.4906 14.4417 37.6601 14.9264 37.6601C15.1089 37.6601 15.2914 37.6345 15.4697 37.5862L16.1555 38.5495L14.8039 48.5394H7.19025V44.5454C7.19025 44.1409 6.8623 43.8131 6.45787 43.8131C6.05344 43.8131 5.72548 44.141 5.72548 44.5454V48.5394H3.84349C2.53185 48.5393 1.46467 47.4722 1.46467 46.1605ZM16.282 48.5393L17.5601 39.093H18.9605L20.2385 48.5393H16.282ZM25.4824 32.5743C25.5085 32.6643 25.5717 32.9766 25.2907 33.2177L21.9981 36.0438C21.7799 36.2311 21.4645 36.2446 21.2313 36.0766L19.5732 34.8827L24.1543 32.0174C24.3977 32.0501 24.6786 32.0892 24.9859 32.1343C25.3444 32.1923 25.4565 32.4851 25.4824 32.5743ZM22.5924 31.2666L18.2603 33.9762L13.9281 31.2666C14.2279 30.9091 14.408 30.4508 14.408 29.9558V27.7403C16.8661 28.9054 19.6542 28.9055 22.1126 27.7403V29.9558C22.1126 30.4508 22.2928 30.9092 22.5924 31.2666ZM23.3494 25.1935C20.325 27.7976 16.1962 27.7981 13.1713 25.1935C11.7447 23.9652 10.9022 22.124 10.8596 20.1423C10.8511 19.744 10.5258 19.4257 10.1274 19.4257H9.57053C9.16249 19.4257 8.83053 19.0937 8.83053 18.6857V17.0541C8.83053 16.8284 8.93376 16.6206 9.10545 16.4816C9.948 16.5005 11.1773 16.6704 11.5415 17.0297C11.8294 17.3136 12.2561 17.3964 12.6287 17.2405C13.0003 17.085 13.2405 16.7241 13.2405 16.3209V12.6271C13.2405 11.7505 13.9536 11.0374 14.8302 11.0374C16.177 11.1363 16.4918 11.5592 18.117 11.5592H18.4039C20.0851 11.5592 20.7207 11.0374 21.6627 11.0374H21.6906C22.5672 11.0374 23.2804 11.7505 23.2804 12.6271V16.0534C23.2804 16.8026 23.8899 17.4121 24.6417 17.4121C26.0279 17.4121 26.4022 16.7681 27.4637 16.523C27.6064 16.6603 27.6902 16.8502 27.6902 17.0542V18.6857C27.6902 19.0938 27.3583 19.4258 26.9502 19.4258H26.3933C25.995 19.4258 25.6696 19.7441 25.6611 20.1424C25.6186 22.1241 24.776 23.9652 23.3494 25.1935ZM48.535 14.6842C48.535 15.4459 47.9109 16.045 47.114 16.048C44.7577 16.0569 43.5873 18.9047 45.2519 20.5694C45.8018 21.1193 45.8018 22.014 45.2519 22.5639L44.4386 23.3773C44.1723 23.6436 43.8181 23.7904 43.4413 23.7904C43.0647 23.7904 42.7105 23.6437 42.4441 23.3773C40.7762 21.7093 37.9228 22.8878 37.9228 25.2501C37.9228 26.0277 37.2901 26.6603 36.5125 26.6603H35.3622C34.5846 26.6603 33.952 26.0277 33.952 25.2501C33.952 22.8907 31.1008 21.7072 29.4306 23.3773C28.8794 23.9285 27.9874 23.9285 27.4362 23.3773L26.7079 22.6491C26.8913 22.0823 27.0186 21.4922 27.0812 20.8868C28.2362 20.8187 29.155 19.8576 29.155 18.6858V17.0543C29.155 16.39 28.8594 15.7752 28.3616 15.3615V11.1938C28.3616 9.24492 27.552 7.48246 26.253 6.22162C26.3134 5.97296 26.4392 5.74492 26.6226 5.5615L27.4361 4.74815C27.7024 4.48182 28.0566 4.33503 28.4332 4.33503C28.8099 4.33503 29.1642 4.48172 29.4305 4.74815C31.0985 6.41607 33.9518 5.23765 33.9518 2.87534C33.9518 2.09773 34.5844 1.46506 35.3621 1.46506H36.5123C37.2899 1.46506 37.9226 2.09773 37.9226 2.87534C37.9226 5.23257 40.7661 6.41333 42.4363 4.75567C43.0019 4.19449 43.8669 4.17662 44.4054 4.71514L45.2517 5.5615C45.518 5.82783 45.6648 6.18196 45.6648 6.55866C45.6648 6.93535 45.5181 7.28958 45.2517 7.55591C43.5847 9.22275 44.7605 12.0683 47.1137 12.0772C47.9106 12.0802 48.5347 12.6793 48.5347 13.441V14.6842H48.535Z" fill="#EA374C"/>
</svg>
