<svg width="50" height="50" viewBox="0 0 50 50" fill="none" xmlns="http://www.w3.org/2000/svg">
<path d="M35.8333 28.3333C43.6667 28.3333 50 22 50 14.1667C50 6.3334 43.6667 0 35.8333 0C29.9854 0 24.974 3.53018 22.8091 8.57871C22.1228 8.42686 21.4363 8.3333 20.75 8.3333C14.75 8.3333 9.9167 13.5833 9.9167 20V36.842C7.95869 37.3623 6.03174 38.0882 4.1667 39C3.5 39.3333 2.8334 39.6667 2.1667 40C0.833301 40.6667 0 42 0 43.5V49.1667C0 49.6667 0.333301 50 0.833301 50H20.8333H20.9166H40.8333C41.0833 50 41.5 49.9167 41.6666 49.75C41.8333 49.5833 41.9166 49.4167 41.9166 49.1667V43.5C41.9166 42 41.0833 40.6667 39.7499 40C39.0832 39.6667 38.4166 39.3333 37.7499 39C35.6907 38.0151 33.6072 37.2491 31.4999 36.7229V27.6593C32.8655 28.0965 34.3213 28.3333 35.8333 28.3333ZM12.6667 38.75L17.9167 46.4167L11.0834 42.1667L12.6667 38.75ZM30.5833 42.1667L23.75 46.3333L29 38.75L30.5833 42.1667ZM20.8333 47.7L13.963 37.7381C14.5923 37.6569 15.2166 37.5945 15.8333 37.5502V38.3333C15.8333 38.8333 16.1666 39.1666 16.6666 39.1666C17.1666 39.1666 17.4999 38.8333 17.4999 38.3333V36.6666V36.5833V34.1666C19.5832 35.3333 22.0832 35.3333 24.1666 34.1666V36.5833V36.6666V38.3333C24.1666 38.8333 24.4999 39.1666 24.9999 39.1666C25.4999 39.1666 25.8332 38.8333 25.8332 38.3333V37.5502C26.4499 37.5945 27.0742 37.6569 27.7035 37.7381L20.8333 47.7ZM20.8333 33.3333C20.1292 33.3333 19.4545 33.1923 18.8229 32.9289C18.3016 32.7041 17.8 32.3948 17.3333 31.9999C17.271 31.9376 17.2034 31.8856 17.132 31.8453C15.3302 30.2267 14.1666 27.4296 14.1666 24.1666V20.6666C15.2499 20.4166 15.9999 19.7499 16.5833 18.6666C17.1666 19.9166 18.0833 20.8333 20 20.8333H23.3271C23.4533 21.0699 23.5854 21.3028 23.7245 21.5312C24.6888 23.1376 25.9568 24.4884 27.4167 25.5833C26.9167 30.0833 24.25 33.3333 20.8333 33.3333ZM35.8333 1.6667C42.75 1.6667 48.3333 7.25 48.3333 14.1667C48.3333 21.0834 42.75 26.6667 35.8333 26.6667C33.3123 26.6667 30.9688 25.9243 29.0078 24.6466C28.9571 24.5922 28.898 24.5433 28.8333 24.5C27.0833 23.25 25.5833 21.5833 24.6666 19.6667C24.6104 19.5543 24.5438 19.4625 24.4688 19.388C23.7399 17.8 23.3333 16.032 23.3333 14.1667C23.3333 7.25 28.9167 1.6667 35.8333 1.6667ZM11.6667 20C11.6667 14.5 15.75 10 20.8334 10C21.3297 10 21.7441 10.0821 22.2392 10.1648C22.2001 10.2981 22.1626 10.432 22.1273 10.5669C21.8346 11.5955 21.697 12.714 21.6716 13.7941C21.6715 13.799 21.6714 13.8038 21.6712 13.8087C21.6685 13.9285 21.6667 14.0479 21.6667 14.1666C21.6667 14.3236 21.6702 14.4798 21.6752 14.6356C21.6765 14.674 21.678 14.7123 21.6796 14.7506C21.6854 14.8936 21.693 15.0359 21.7029 15.1778C21.7038 15.1902 21.7044 15.2026 21.7053 15.2149C21.7173 15.3799 21.7325 15.544 21.7501 15.7073C21.7513 15.7185 21.7526 15.7295 21.7539 15.7406C21.8854 16.9339 22.1646 18.0819 22.5729 19.1666H20.0834C18.4167 19.1666 18.0834 18.2499 17.5834 15.7499V15.6666C17.5001 15.2499 17.1667 14.9999 16.7501 14.9999C16.3335 14.9999 16.0001 15.2499 15.9168 15.6666C15.4168 18.5833 14.1668 19.0833 13.2501 19.1666C12.8334 19.2499 12.5001 19.5833 12.5001 19.9999V24.1666C12.5001 27.8576 13.7842 31.0107 15.8334 32.9479V35.9166C14.7858 35.9166 13.6869 36.0711 12.577 36.2584C12.5256 36.2533 12.4729 36.2499 12.4168 36.2499C12.3663 36.2667 12.3159 36.2879 12.2661 36.3115C12.0665 36.3461 11.8666 36.3812 11.6668 36.4165V20H11.6667ZM1.6667 43.5C1.6667 42.6667 2.1667 41.8333 2.9167 41.4167C3.5 41.0834 4.1667 40.75 4.8334 40.4167C6.72178 39.4726 8.65059 38.752 10.5999 38.2526C10.7333 38.2904 10.8667 38.2945 11 38.25C11.0213 38.2454 11.0425 38.2414 11.0638 38.2368L9.25 42.1667C9.0833 42.5834 9.25 43 9.5833 43.25L17.8438 48.3333H11.6667V46.6666C11.6667 46.1666 11.3334 45.8333 10.8334 45.8333C10.3334 45.8333 10.0001 46.1666 10.0001 46.6666V48.3333H1.6667V43.5ZM38.75 41.4167C39.5 41.8334 40 42.6667 40 43.5V48.3333H31.6667V46.6666C31.6667 46.1666 31.3334 45.8333 30.8334 45.8333C30.3334 45.8333 30.0001 46.1666 30.0001 46.6666V48.3333H23.823L32.0835 43.25C32.4168 43 32.5835 42.5833 32.4168 42.1667L30.603 38.2368C30.6243 38.2414 30.6455 38.2454 30.6668 38.25C30.6668 38.25 30.7501 38.25 30.8335 38.25C30.8986 38.25 30.9635 38.2496 31.0187 38.2397C32.9845 38.7394 34.9296 39.4646 36.8335 40.4166C37.4167 40.75 38.0833 41.0833 38.75 41.4167ZM30 36.3333C28.6419 36.0937 27.2847 35.9314 26 35.8449V32.7877C27.5017 31.2984 28.5809 29.143 29.0069 26.5864C29.3306 26.7645 29.6615 26.9308 30 27.0836V36.3333Z" fill="#EA374C"/>
<path d="M28.75 14.5833L35.3333 21.1666C35.8333 21.7499 36.4166 22.1666 37 22.4999C38 23.0832 39 23.3332 39.9167 23.3332C41.25 23.3332 42.5 22.7499 43.5834 21.7499L44.4167 20.9166C45 20.2499 45.1667 19.2499 44.75 18.4166C44.0833 17.0833 41.8333 15.7499 41.5833 15.5833C41.0833 15.25 40.5 15.1666 40 15.3333C39.5833 15.4166 39.3333 15.6666 39.0833 16C38.8333 16.3334 38.5 16.75 38.4166 16.8333C37.9166 17.1666 37.5833 17.1666 37.0833 16.6666L33.4166 12.9999C32.9166 12.4999 32.9166 12.1666 33.2499 11.6666C33.3332 11.5833 33.7499 11.1666 34.0832 10.9166C34.4165 10.6666 34.6665 10.4166 34.7499 9.99994C34.9166 9.49994 34.8332 8.91664 34.4999 8.41664C34.3332 8.16664 32.9999 5.91664 31.6666 5.24994C30.8333 4.74994 29.8333 4.91664 29.1666 5.58324L28.3333 6.41655C26.5833 8.16674 26.25 10.25 27.25 12.5C27.5833 13.25 28.0833 13.9167 28.75 14.5833ZM29.4167 7.66674L30.25 6.83344C30.3333 6.75014 30.5 6.66674 30.5833 6.66674C30.6666 6.66674 30.75 6.66674 30.8333 6.75004C31.5833 7.08334 32.5 8.50004 33 9.25004C33.0833 9.41674 33.0833 9.50004 33.0833 9.50004L33 9.58334C32 10.4166 31.9167 10.5833 31.8333 10.6666C31 11.9166 31.1666 13.1666 32.1666 14.1666L35.7499 17.8333C36.8332 18.8333 38.0832 19 39.2499 18.1666C39.3332 18.0833 39.4999 17.9999 40.3332 16.9999L40.4165 16.9166C40.4998 16.9166 40.5832 16.9166 40.7498 16.9999C41.4998 17.4999 42.9165 18.4999 43.2498 19.1666C43.3331 19.3333 43.3331 19.4999 43.1665 19.6666L42.3332 20.4999C40.9165 21.8332 39.4999 22.0832 37.7499 21.0832C37.2499 20.8332 36.8332 20.4999 36.4166 20.0832L29.8333 13.4999C29.3333 12.9166 28.9166 12.4166 28.6666 11.8332C27.9167 10.25 28.1667 8.91674 29.4167 7.66674Z" fill="#EA374C"/>
</svg>
