<svg width="51" height="42" viewBox="0 0 51 42" fill="none" xmlns="http://www.w3.org/2000/svg">
<path d="M10.7163 18.8319C9.55078 18.9059 8.32178 18.2918 8.32178 16.9216C8.32178 16.5146 8.65178 16.1846 9.05882 16.1846C9.46587 16.1846 9.79587 16.5146 9.79587 16.9216C9.79587 17.5349 11.1525 17.5348 11.1525 16.9216C11.1525 16.5146 11.4825 16.1846 11.8896 16.1846C12.2966 16.1846 12.6266 16.5146 12.6266 16.9216C12.6266 17.9749 11.7697 18.8319 10.7163 18.8319Z" fill="#EA374C"/>
<path d="M40.0912 18.8319C38.9257 18.9059 37.6967 18.2918 37.6967 16.9216C37.6967 16.5146 38.0266 16.1846 38.4337 16.1846C38.8408 16.1846 39.1707 16.5146 39.1707 16.9216C39.1707 17.5348 40.5275 17.5348 40.5275 16.9216C40.5275 16.5146 40.8574 16.1846 41.2645 16.1846C41.6717 16.1846 42.0016 16.5146 42.0016 16.9216C42.0015 17.9749 41.1445 18.8319 40.0912 18.8319Z" fill="#EA374C"/>
<path d="M48.1358 24.4447L43.242 22.7707V21.298C44.5065 20.3066 45.1585 18.8116 45.1426 17.2198H46.193C47.2972 17.2198 48.1955 16.3215 48.1955 15.2173V14.269C48.1955 13.0352 47.1271 12.3767 46.0713 12.2665V10.5319C46.0713 8.12216 44.1109 6.16171 41.7011 6.16171H37.9972C36.7392 6.16171 35.6045 6.69671 34.8063 7.55031V6.63342C34.8063 3.18316 32.114 0.278112 28.6773 0.0197529C28.2706 -0.0105152 27.9177 0.293639 27.8871 0.699506C27.8565 1.10537 28.1609 1.45916 28.5667 1.48972C31.239 1.69059 33.3322 3.94998 33.3322 6.63342V9.90689H32.0959C29.6449 9.90689 28.1136 7.71825 27.6542 5.51144C27.4771 4.66108 26.6418 4.73479 26.3243 5.34143C25.2549 7.38403 23.7814 9.90689 21.166 9.90689H17.0032V6.63342C17.0032 3.78852 19.3176 1.47409 22.1625 1.47409H25.4104C25.8176 1.47409 26.1475 1.14409 26.1475 0.737047C26.1475 0.33 25.8176 0 25.4104 0H22.1625C18.5048 0 15.5291 2.9757 15.5291 6.63342V7.56298C14.7302 6.70192 13.59 6.16171 12.3254 6.16171H8.62246C6.21271 6.16171 4.25227 8.12216 4.25227 10.5319V12.2665C3.19642 12.3767 2.1279 13.0352 2.1279 14.269V15.2173C2.1279 16.3215 3.02622 17.2198 4.13041 17.2198H5.17996C5.16414 18.8121 5.81648 20.3075 7.08154 21.2988V22.7707L2.18755 24.4448C0.879149 24.8928 0 26.1229 0 27.5055V31.4954C0 31.9024 0.33 32.2324 0.737047 32.2324H9.04278C8.70255 32.9972 8.592 34.0007 8.62934 34.873C8.62934 35.2801 8.95934 35.6101 9.36639 35.6101C9.77343 35.6101 10.1034 35.2801 10.1034 34.873C9.99317 33.275 10.7279 31.5938 12.3457 31.04L18.3254 28.9946V34.3318C18.3254 34.931 18.9989 35.2344 19.4467 34.9608L21.8471 33.4942L22.8494 35.2766L21.5554 39.9164H15.2206V37.628C15.2206 37.221 14.8906 36.891 14.4836 36.891C14.0765 36.891 13.7465 37.221 13.7465 37.628V39.9164H10.1034V38.0846C10.1034 37.6775 9.77343 37.3475 9.36639 37.3475C8.95934 37.3475 8.62934 37.6775 8.62934 38.0846V40.6534C8.62934 41.0605 8.95934 41.3905 9.36639 41.3905H40.969C41.3761 41.3905 41.706 41.0605 41.706 40.6534V34.1782C41.706 33.4925 41.5594 32.8325 41.2926 32.2324H44.1226C44.5297 32.2324 44.8596 31.9024 44.8596 31.4954C44.8596 31.0883 44.5297 30.7583 44.1226 30.7583H40.2695C39.7699 30.268 39.1592 29.8823 38.4668 29.6453L30.9071 27.0595C31.0542 26.4983 31.4724 26.0337 32.0396 25.8395L36.9195 24.1701L39.2548 27.3527C39.6509 27.754 40.0472 27.754 40.4433 27.3527L42.7786 24.1701L47.6584 25.8395C48.3708 26.0834 48.8495 26.7529 48.8495 27.5056V30.7584H47.3351C46.928 30.7584 46.5981 31.0884 46.5981 31.4955C46.5981 31.9025 46.928 32.2325 47.3351 32.2325H49.5865C49.9937 32.2325 50.3236 31.9025 50.3236 31.4955V27.5056C50.3237 26.1229 49.4444 24.8928 48.1358 24.4447ZM45.1429 13.7405H46.1931C46.4845 13.7405 46.7215 13.9775 46.7215 14.2689V15.2172C46.7215 15.5085 46.4845 15.7456 46.1931 15.7456H45.1429V13.7405ZM5.17996 15.7457H4.13041C3.83903 15.7457 3.602 15.5086 3.602 15.2173V14.269C3.602 13.9776 3.83903 13.7406 4.13041 13.7406H5.17996V15.7457ZM37.9972 7.6357H41.7011C43.298 7.6357 44.5972 8.93487 44.5972 10.5318V12.2663C43.029 12.3416 41.9687 11.2422 41.6512 9.75692C41.481 8.96042 40.6457 8.88672 40.3213 9.58672C39.6446 11.047 38.4736 12.3841 36.7987 12.2664C36.6482 11.302 36.0019 10.5016 35.1295 10.1309C35.3255 8.72309 36.5364 7.6357 37.9972 7.6357ZM33.2998 11.3811H34.0426C34.7687 11.3811 35.3592 11.9717 35.3592 12.6976V14.2365C35.3592 14.9624 34.7686 15.5531 34.0426 15.5531H33.2998V11.3811ZM18.5099 11.3809H21.166C23.7527 11.3809 25.5421 9.58475 26.7259 7.48869C27.4605 9.73452 29.4796 11.2642 31.8256 11.3739L31.8258 17.7873C31.8258 25.8852 18.5098 25.8757 18.5098 17.7873L18.5099 11.3809ZM27.2294 32.7253L26.2629 34.4441H24.0725L23.106 32.7253L25.1677 31.4659L27.2294 32.7253ZM21.5925 26.9872V24.7279C23.6588 25.6276 26.6903 25.6216 28.7429 24.7279V26.9872L25.1677 29.6792L21.5925 26.9872ZM26.4774 30.5383L29.6119 28.1781L30.5356 28.4917V33.0178L26.4774 30.5383ZM16.2929 11.3811H17.0357V15.5531H16.2929C15.5669 15.5531 14.9763 14.9624 14.9763 14.2365V12.6977C14.9762 11.9717 15.5668 11.3811 16.2929 11.3811ZM5.72636 10.5319C5.72636 8.93497 7.02553 7.6358 8.62246 7.6358H12.3254C13.7873 7.6358 14.9991 8.72408 15.1943 10.1327C14.4203 10.4655 13.8263 11.1387 13.6011 11.9628C12.9078 11.5662 12.5065 10.5351 12.2765 9.75702C12.0484 8.98509 11.2622 8.81311 10.9466 9.58681C10.4827 10.7242 9.33789 12.2665 8.00836 12.2665H5.72636V10.5319ZM6.65406 17.4051L6.65455 13.7405H8.00826C9.42977 13.7405 10.6621 12.8347 11.3834 11.6771C11.8221 12.5489 12.5794 13.2104 13.5021 13.5301C13.4343 14.4356 13.6577 15.5273 14.2938 16.181V17.4051C14.2938 22.0219 6.65406 22.0219 6.65406 17.4051ZM12.3932 23.0556L10.4743 25.6708L8.55564 23.056V22.0941C9.63123 22.4553 11.3177 22.4552 12.3932 22.0938V23.0556ZM11.8685 29.6454C11.1761 29.8824 10.5655 30.268 10.0659 30.7584H1.47409V27.5056C1.47409 26.7529 1.95278 26.0834 2.66496 25.8395L7.5448 24.1701L9.88006 27.3527C10.2762 27.754 10.6724 27.754 11.0686 27.3527L13.4038 24.1701L18.283 25.8395C18.852 26.0342 19.2711 26.5004 19.4174 27.0633L11.8685 29.6454ZM18.7601 24.4447L13.8673 22.7707V21.2981C15.1863 20.264 15.864 18.6384 15.7679 16.977C16.1612 17.0522 16.6332 17.0417 17.0356 17.0273C16.8668 19.6557 17.9775 22.2971 20.1184 23.8777V25.346C19.758 24.9434 19.2959 24.628 18.7601 24.4447ZM19.7996 33.0178V28.4917L20.7235 28.1781L23.858 30.5383L19.7996 33.0178ZM23.0859 39.9162L24.201 35.9181H26.1344L27.2496 39.9162H23.0859ZM32.0098 34.3318V28.9946L37.9895 31.04C39.3308 31.4991 40.2319 32.7603 40.2319 34.1782V39.9164H36.5888V37.628C36.5888 37.221 36.2589 36.891 35.8517 36.891C35.4446 36.891 35.1147 37.221 35.1147 37.628V39.9164H28.78L27.4858 35.2765L28.4881 33.4942L30.8885 34.9608C31.5063 35.3221 31.9731 35.0764 32.0098 34.3318ZM36.4563 22.7707L31.5623 24.4448C31.0331 24.626 30.5759 24.9366 30.2169 25.3321V23.8776C32.3788 22.2817 33.4111 19.6641 33.2998 17.0273C33.699 17.0414 34.1649 17.0521 34.5557 16.9791C34.46 18.6398 35.1379 20.2647 36.4563 21.2983V22.7707ZM41.7679 23.0557L39.8492 25.6707L37.9305 23.0558V22.0939C39.0061 22.4553 40.6925 22.4551 41.768 22.0937V23.0557H41.7679ZM40.1966 20.877C38.1585 21.0208 36.0299 19.6429 36.0299 17.405V16.1933C36.6446 15.5692 36.8832 14.5962 36.8334 13.7404C38.4468 13.8221 39.8886 13.0153 40.7584 11.6767C41.3238 12.8002 42.4111 13.5633 43.6685 13.712V17.405C43.6685 19.3196 42.111 20.877 40.1966 20.877Z" fill="#EA374C"/>
<path d="M21.9853 15.1471C22.3924 15.1471 22.7224 14.8171 22.7224 14.41V13.4426C22.7224 13.0356 22.3924 12.7056 21.9853 12.7056C21.5783 12.7056 21.2483 13.0356 21.2483 13.4426V14.41C21.2483 14.8172 21.5783 15.1471 21.9853 15.1471Z" fill="#EA374C"/>
<path d="M28.3356 15.1471C28.7427 15.1471 29.0726 14.8171 29.0726 14.41V13.4426C29.0726 13.0356 28.7427 12.7056 28.3356 12.7056C27.9284 12.7056 27.5985 13.0356 27.5985 13.4426V14.41C27.5985 14.8172 27.9285 15.1471 28.3356 15.1471Z" fill="#EA374C"/>
<path d="M25.1677 21.0033C26.5934 21.0033 27.7532 19.8435 27.7532 18.4178C27.7532 18.0108 27.4233 17.6808 27.0162 17.6808C26.609 17.6808 26.2791 18.0108 26.2791 18.4178C26.2791 19.0307 25.7806 19.5292 25.1677 19.5292C24.5549 19.5292 24.0564 19.0307 24.0564 18.4178C24.0564 18.0108 23.7264 17.6808 23.3193 17.6808C22.9123 17.6808 22.5823 18.0108 22.5823 18.4178C22.5824 19.8435 23.7421 21.0033 25.1677 21.0033Z" fill="#EA374C"/>
</svg>
