<svg width="50" height="44" viewBox="0 0 50 44" fill="none" xmlns="http://www.w3.org/2000/svg">
<path d="M35.0417 18.6742C35.3652 18.5907 35.5911 18.299 35.5911 17.965V15.3181C35.5911 14.9841 35.3652 14.6924 35.0417 14.6089L33.2216 14.1392C33.0594 13.6051 32.8457 13.0891 32.5831 12.5974L33.5378 10.9782C33.7074 10.6905 33.6611 10.3245 33.4249 10.0883L31.5532 8.2166C31.3169 7.98047 30.9508 7.93389 30.6633 8.10361L29.0443 9.0585C28.5525 8.7958 28.0364 8.58213 27.5025 8.41992L27.0326 6.59971C26.9492 6.27627 26.6574 6.05029 26.3235 6.05029H23.6765C23.3425 6.05029 23.0508 6.27627 22.9673 6.59971L22.4975 8.41992C21.9635 8.58213 21.4475 8.7958 20.9557 9.0585L19.3366 8.10361C19.0489 7.93389 18.6827 7.98047 18.4467 8.2166L16.575 10.0883C16.3389 10.3244 16.2924 10.6905 16.4621 10.9782L17.4168 12.5974C17.1542 13.0891 16.9406 13.6051 16.7783 14.1392L14.9582 14.6089C14.6348 14.6924 14.4088 14.9841 14.4088 15.3181V17.965C14.4088 18.299 14.6348 18.5907 14.9582 18.6742L16.7783 19.1439C16.9406 19.678 17.1542 20.194 17.4168 20.6858L16.4621 22.305C16.2925 22.5927 16.3389 22.9587 16.575 23.1949L18.4467 25.0666C18.6829 25.3026 19.049 25.3492 19.3366 25.1796L20.9558 24.2247C21.4476 24.4874 21.9635 24.7011 22.4975 24.8633L22.9673 26.6834C23.0507 27.0068 23.3425 27.2328 23.6765 27.2328H26.3235C26.6574 27.2328 26.9491 27.0068 27.0326 26.6834L27.5025 24.8633C28.0364 24.7011 28.5524 24.4874 29.0442 24.2247L30.6633 25.1796C30.9511 25.3492 31.317 25.3026 31.5532 25.0666L33.4249 23.1949C33.6611 22.9588 33.7075 22.5927 33.5378 22.305L32.5831 20.6858C32.8457 20.194 33.0594 19.6781 33.2216 19.1439L35.0417 18.6742ZM24.244 25.7679L23.8341 24.1797L23.8635 19.9063C23.8656 19.6024 23.6797 19.3287 23.3965 19.2187C22.2063 18.756 21.5237 17.6395 21.5237 16.1554C21.5237 15.1883 21.9596 14.297 22.69 13.6813V15.838C22.69 16.0641 22.7943 16.2774 22.9728 16.4162L24.551 17.6434C24.8154 17.849 25.1858 17.849 25.4501 17.6434L27.0284 16.4161C27.2069 16.2773 27.3113 16.064 27.3113 15.8379V13.6822C28.041 14.2979 28.4764 15.1888 28.4764 16.1553C28.4764 17.6415 27.797 18.758 26.6123 19.2186C26.3295 19.3284 26.1439 19.6014 26.1453 19.9048L26.1661 24.1788L25.7561 25.7677H24.244V25.7679ZM32.4454 17.8313C32.185 17.8985 31.9823 18.1031 31.9176 18.3642C31.7468 19.0524 31.475 19.7088 31.1098 20.3148C30.9709 20.5452 30.9696 20.8332 31.1063 21.0649L31.9879 22.5603L30.9187 23.6295L29.4235 22.7477C29.1918 22.611 28.9039 22.6124 28.6734 22.7513C28.3387 22.9529 27.9887 23.126 27.6266 23.2694L27.6124 20.3696C29.0803 19.5919 29.9412 18.0532 29.9412 16.1555C29.9412 14.1971 28.7256 12.4589 26.8444 11.7272C26.2716 11.6038 25.8422 11.8184 25.8464 12.4099V15.4798L25.0005 16.1375L24.1547 15.4798V12.4094C24.0621 11.831 23.7296 11.6034 23.157 11.7267C21.2748 12.458 20.0586 14.1965 20.0586 16.1555C20.0586 18.0516 20.9224 19.59 22.3952 20.3693L22.3753 23.2702C22.0125 23.1267 21.6619 22.9533 21.3266 22.7513C21.0962 22.6124 20.8082 22.6109 20.5765 22.7477L19.0813 23.6295L18.012 22.5603L18.8937 21.0649C19.0303 20.8332 19.029 20.5453 18.8902 20.3148C18.5249 19.7088 18.2531 19.0524 18.0823 18.3642C18.0176 18.1031 17.815 17.8985 17.5545 17.8313L15.8737 17.3977V15.8854L17.5545 15.4517C17.815 15.3845 18.0176 15.1799 18.0823 14.9188C18.2531 14.2306 18.5249 13.5742 18.8902 12.9683C19.029 12.7379 19.0304 12.4498 18.8937 12.2182L18.012 10.7229L19.0813 9.65361L20.5765 10.5354C20.8081 10.6721 21.096 10.6707 21.3266 10.5318C21.9327 10.1665 22.5892 9.89473 23.2774 9.72393C23.5384 9.65908 23.743 9.45654 23.8101 9.19609L24.2439 7.51523H25.756L26.1898 9.19609C26.257 9.45654 26.4614 9.65918 26.7225 9.72393C27.4107 9.89473 28.0671 10.1665 28.6733 10.5318C28.9036 10.6706 29.1916 10.672 29.4234 10.5354L30.9186 9.65361L31.9878 10.7229L31.1062 12.2182C30.9696 12.4499 30.9708 12.7379 31.1097 12.9683C31.4749 13.5742 31.7467 14.2306 31.9175 14.9188C31.9823 15.1799 32.1849 15.3845 32.4453 15.4517L34.1262 15.8854V17.3977L32.4454 17.8313Z" fill="#EA374C"/>
<path d="M46.7363 0H26.2559C25.8513 0 25.5234 0.32793 25.5234 0.732422C25.5234 1.13691 25.8513 1.46484 26.2559 1.46484H46.7363C47.7113 1.46484 48.5352 2.2877 48.5352 3.26172V32.9717C48.5352 34.1743 47.9748 34.7344 46.7715 34.7344H35.6963C35.2917 34.7344 34.9639 35.0623 34.9639 35.4668C34.9639 35.8713 35.2917 36.1992 35.6963 36.1992H46.7715C48.7931 36.1992 50 34.9927 50 32.9717V3.26172C50 1.49375 48.5054 0 46.7363 0Z" fill="#EA374C"/>
<path d="M46.2344 15.7783C46.639 15.7783 46.9668 15.4504 46.9668 15.0459V3.72559C46.9668 3.32109 46.639 2.99316 46.2344 2.99316H3.76563C3.36104 2.99316 3.0332 3.32109 3.0332 3.72559V29.3604C3.0332 29.7648 3.36104 30.0928 3.76563 30.0928H46.2344C46.639 30.0928 46.9668 29.7648 46.9668 29.3604V18.2373C46.9668 17.8328 46.639 17.5049 46.2344 17.5049C45.8298 17.5049 45.502 17.8328 45.502 18.2373V28.6279H4.49805V4.45801H45.502V15.0459C45.502 15.4504 45.8299 15.7783 46.2344 15.7783Z" fill="#EA374C"/>
<path d="M34.1003 39.3946H30.082L29.0421 36.1993H32.5039C32.9085 36.1993 33.2363 35.8714 33.2363 35.4669C33.2363 35.0624 32.9085 34.7345 32.5039 34.7345H3.22754C2.25557 34.7345 1.46484 33.9441 1.46484 32.9728V3.26172C1.46484 2.2877 2.28867 1.46484 3.26367 1.46484H23.0635C23.4681 1.46484 23.7959 1.13691 23.7959 0.732422C23.7959 0.32793 23.4681 0 23.0635 0H3.26367C1.49463 0 0 1.49375 0 3.26172V32.9727C0 34.7518 1.44785 36.1992 3.22754 36.1992H20.958L19.9181 39.3945H15.8999C15.4953 39.3945 15.1675 39.7225 15.1675 40.127V43.1683C15.1675 43.5728 15.4953 43.9007 15.8999 43.9007H34.1004C34.505 43.9007 34.8328 43.5728 34.8328 43.1683V40.127C34.8327 39.7226 34.5048 39.3946 34.1003 39.3946ZM22.4984 36.1993H27.5016L28.5415 39.3945H21.4584L22.4984 36.1993ZM33.3679 42.4359H16.6321V40.8595H33.3678V42.4359H33.3679Z" fill="#EA374C"/>
<path d="M25 33.2817C24.5955 33.2817 24.2676 32.9538 24.2676 32.5493C24.2676 32.1448 24.5955 31.8169 25 31.8169C25.4045 31.8169 25.7324 32.1448 25.7324 32.5493C25.7324 32.9538 25.4045 33.2817 25 33.2817Z" fill="#EA374C"/>
<path d="M28.0334 33.2817C27.6289 33.2817 27.301 32.9538 27.301 32.5493C27.301 32.1448 27.6289 31.8169 28.0334 31.8169C28.4379 31.8169 28.7658 32.1448 28.7658 32.5493C28.7658 32.9538 28.4379 33.2817 28.0334 33.2817Z" fill="#EA374C"/>
<path d="M21.9666 33.2817C21.5621 33.2817 21.2342 32.9538 21.2342 32.5493C21.2342 32.1448 21.5621 31.8169 21.9666 31.8169C22.3711 31.8169 22.699 32.1448 22.699 32.5493C22.699 32.9538 22.3711 33.2817 21.9666 33.2817Z" fill="#EA374C"/>
</svg>
