<svg width="50" height="50" viewBox="0 0 50 50" fill="none" xmlns="http://www.w3.org/2000/svg">
<path d="M44.6101 48.3871H43.0169V38.7097H38.2373V48.3871H36.644V41.9355H31.8644V48.3871H30.2712V45.1613H25.4915V48.3871H23.8983V42.8306C23.8983 42.4153 23.8704 42.0073 23.8417 41.5984L32.6339 35.6645L35.806 38.0726L50 29.0919L45.8847 25.9677L44.9288 27.2581L47.1856 28.9718L35.8881 36.1202L32.6873 33.6895L23.6274 39.8048C22.7775 34.9774 19.9312 30.8274 15.9322 28.3032V24.1927H16.7288V24.1935C16.7328 24.1935 16.7368 24.1927 16.74 24.1927H45.4067C46.7243 24.1927 47.7966 23.1073 47.7966 21.7734C47.7966 21.4548 47.7321 21.1524 47.6213 20.8742C48.637 20.5952 49.3898 19.6629 49.3898 18.5484C49.3898 17.9266 49.15 17.3645 48.7684 16.9355C49.1508 16.5065 49.3898 15.9444 49.3898 15.3226C49.3898 14.7008 49.15 14.1387 48.7684 13.7097C49.1508 13.2806 49.3898 12.7185 49.3898 12.0968C49.3898 10.7629 48.3176 9.67742 47.0008 9.67742H43.0169C42.1383 9.67742 41.4237 8.95323 41.4237 8.06452V4.03226C41.4237 2.95484 41.0087 1.94274 40.2567 1.18065C39.5047 0.419355 38.5049 0 37.4414 0H37.4407C36.1231 0 35.0508 1.08548 35.0508 2.41935V4.4129C35.0508 5.88548 34.2757 7.27177 33.0282 8.02984C31.85 8.74597 30.9618 9.86694 30.5285 11.1855L30.5173 11.2194L20.6911 10.0492C20.6521 9.2129 20.4537 8.39758 20.1001 7.64355C21.4567 6.32177 22.3051 4.47016 22.3051 2.41935C22.3051 1.08548 21.2328 0 19.9152 0H11.6281C5.2162 0 0 5.28065 0 11.7718C0 16.2589 2.46312 20.2935 6.42705 22.3008L7.9661 23.079V26.1339C5.00669 27.8323 3.18644 30.9677 3.18644 34.4419V50H49.3898V35.4839H44.6101V48.3871ZM21.902 39.35L14.7922 34.5524L16.5185 32.8048L8.90052 29.3774L9.35857 27.5218C15.6271 28.5145 20.5246 33.2702 21.902 39.35ZM33.8479 9.4129C35.5726 8.36532 36.644 6.44919 36.644 4.4129V2.41935C36.644 1.97419 37.0009 1.6129 37.4407 1.6129H37.4414C38.0795 1.6129 38.6794 1.86452 39.1303 2.32097C39.5811 2.77742 39.8305 3.38548 39.8305 4.03226V8.06452C39.8305 9.84274 41.2596 11.2903 43.0169 11.2903H47.0008C47.4397 11.2903 47.7966 11.6516 47.7966 12.0968C47.7966 12.5419 47.4397 12.9032 47 12.9032H41.4237V14.5161H47C47.4397 14.5161 47.7966 14.8774 47.7966 15.3226C47.7966 15.7677 47.4397 16.129 47 16.129H41.4237V17.7419H47C47.4397 17.7419 47.7966 18.1032 47.7966 18.5484C47.7966 18.9935 47.4397 19.3548 47 19.3548H41.4237V20.9677H45.4067C45.8465 20.9677 46.2034 21.329 46.2034 21.7742C46.2034 22.2194 45.8465 22.5806 45.4067 22.5806H31.8644V12.2274L32.0404 11.6952C32.3535 10.7411 32.9956 9.93064 33.8479 9.4129ZM30.2712 22.5798H19.8961C20.4012 21.904 20.7119 21.0718 20.7119 20.1613V16.6274L20.9086 16.5274C21.7697 16.0919 22.3051 15.2153 22.3051 14.2403C22.3051 13.7331 22.1577 13.2427 21.8805 12.821L21.1611 11.729L30.2712 12.8137V22.5798ZM19.1186 10.346V10.8024C19.1186 11.2806 19.2572 11.7444 19.5201 12.1444L20.5549 13.7161C20.6577 13.8718 20.7119 14.0532 20.7119 14.2403C20.7119 14.6008 20.5143 14.9242 20.1964 15.0855L19.9997 15.1855C19.4564 15.4597 19.1186 16.0121 19.1186 16.6274V20.1613C19.1186 21.4911 18.0528 22.5726 16.74 22.5798H12.7458V24.1927H14.339V27.4226C12.8581 26.6992 11.2545 26.1895 9.55932 25.9258V18.1452L7.11691 16.2903C6.65089 15.9371 6.37288 15.3742 6.37288 14.7847C6.37288 13.7476 7.20693 12.9032 8.23137 12.9032H9.55932V11.3895C9.55932 10.4024 10.1496 9.53226 11.0291 9.16129C11.5261 9.48468 12.1124 9.67742 12.7458 9.67742H15.1356C16.4739 9.67742 17.7222 9.29758 18.7952 8.64919C19.0023 9.18871 19.1186 9.76129 19.1186 10.346ZM7.14001 20.8573C3.71857 19.1258 1.59322 15.6444 1.59322 11.7718C1.59322 6.17016 6.09406 1.6129 11.6281 1.6129H19.9152C20.355 1.6129 20.7119 1.975 20.7119 2.41935C20.7119 5.53226 18.2097 8.06452 15.1356 8.06452H12.7458C11.8671 8.06452 11.1525 7.34113 11.1525 6.45161C11.1525 5.5621 11.8671 4.83871 12.7458 4.83871V3.22581C10.9884 3.22581 9.55932 4.67258 9.55932 6.45161C9.55932 6.98548 9.70032 7.48226 9.92815 7.92661C8.76271 8.62339 7.99716 9.88226 7.96689 11.3008C6.18727 11.4379 4.77966 12.9484 4.77966 14.7847C4.77966 15.8782 5.29506 16.9234 6.16018 17.5798L7.9661 18.9516V21.2758L7.14001 20.8573ZM22.3051 48.3871H11.1525V36.9581C11.1525 35.296 10.4866 33.6694 9.32591 32.4944L8.1995 33.6347C9.06382 34.5097 9.55932 35.721 9.55932 36.9581V48.3871H4.77966V34.4419C4.77966 32.0935 5.79056 29.9411 7.48654 28.4556L7.03088 30.3008L13.7527 33.325L12.2925 34.8032L22.2453 41.521C22.2812 41.9532 22.3051 42.3895 22.3051 42.8306V48.3871ZM39.8305 40.3226H41.4237V48.3871H39.8305V40.3226ZM33.4576 43.5484H35.0508V48.3871H33.4576V43.5484ZM27.0847 46.7742H28.6779V48.3871H27.0847V46.7742ZM46.2034 37.0968H47.7966V48.3871H46.2034V37.0968Z" fill="#EA374C"/>
<path d="M23.8983 29.0322H25.4915V30.6451H23.8983V29.0322Z" fill="#EA374C"/>
<path d="M27.0847 29.0322H28.6779V30.6451H27.0847V29.0322Z" fill="#EA374C"/>
<path d="M30.2712 29.0322H31.8644V30.6451H30.2712V29.0322Z" fill="#EA374C"/>
</svg>
