<svg width="51" height="49" viewBox="0 0 51 49" fill="none" xmlns="http://www.w3.org/2000/svg">
<path d="M19.6545 30.0322H22.8158V31.6129H19.6545V30.0322Z" fill="#EA374C"/>
<path d="M27.5578 30.0322H30.7191V31.6129H27.5578V30.0322Z" fill="#EA374C"/>
<path d="M44.0502 30.0323H48.1054V29.2419C48.1054 26.3984 46.4243 23.9468 44.0083 22.8095C45.521 21.8208 46.5247 20.1153 46.5247 18.1774V17.3871C48.2682 17.3871 49.686 15.9693 49.686 14.2258V7.1129C49.686 3.19053 46.4947 0 42.5731 0H33.0892C29.1676 0 25.9763 3.19053 25.9763 7.1129V14.2258C25.9763 15.9693 27.3942 17.3871 29.1376 17.3871V18.1774C29.1376 18.4438 29.1669 18.7069 29.204 18.9677H24.3957V7.1129C24.3957 3.19053 21.2044 0 17.2828 0H7.7989C3.87732 0 0.686 3.19053 0.686 7.1129V21.2107C0.686 22.6878 1.44629 24.0329 2.66655 24.8043C2.40495 25.7171 2.26744 26.6765 2.26744 27.6613V30.0323H6.32258L0 39.5161H3.84808V49H5.42873V37.9355H2.95344L7.7989 30.6669L12.6452 37.9355H10.1707V49H11.7513V39.5161H15.5994L9.2768 30.0323H13.3319V33.1936C13.3319 34.937 14.7498 36.3548 16.4932 36.3548V37.1452C16.4932 39.083 17.4969 40.7886 19.0096 41.7772C16.5928 42.9145 14.9126 45.3661 14.9126 48.2097V49H35.461V48.2097C35.461 45.3661 33.78 42.9145 31.3639 41.7772C32.8766 40.7886 33.8803 39.083 33.8803 37.1452V36.3548C35.6238 36.3548 37.0416 34.937 37.0416 33.1936V30.0323H41.0968L34.7742 39.5161H38.6223V49H40.2029V37.9355H37.7284L42.5739 30.6669L47.4193 37.9355H44.9448V49H46.5255V39.5161H50.3736L44.0502 30.0323ZM46.4686 28.4516H40.6905L39.5051 26.0806L40.6905 23.7097H40.9924C43.7752 23.7097 46.0845 25.774 46.4686 28.4516ZM37.0416 23.7097H38.9242L38.1339 25.2903H37.0416V23.7097ZM46.5255 15.8065V12.6452C47.3972 12.6452 48.1061 13.3541 48.1061 14.2258C48.1061 15.0975 47.3972 15.8065 46.5255 15.8065ZM33.09 1.58065H42.5739C45.6245 1.58065 48.1061 4.06305 48.1061 7.1129V11.5039C47.6391 11.2321 47.1032 11.0645 46.5255 11.0645H46.4607C46.3556 10.324 46.0963 9.62376 45.7051 8.98439C46.222 8.22489 46.5255 7.3089 46.5255 6.32258V4.74194H44.9448V6.32258C44.9448 8.06603 43.527 9.48387 41.7836 9.48387C40.9585 9.48387 40.2005 9.15905 39.6173 8.60187C39.9903 7.92536 40.2029 7.14847 40.2029 6.32258V4.74194H38.6223V6.32258C38.6223 8.06603 37.2044 9.48387 35.461 9.48387C33.7175 9.48387 32.2997 8.06603 32.2997 6.32258V4.74194H30.719V6.32258C30.719 6.82681 30.7997 7.31127 30.9459 7.76729C30.0006 8.63111 29.3858 9.80158 29.2024 11.0645H29.1384C28.5599 11.0645 28.0248 11.2321 27.5578 11.5039V7.1129C27.5578 4.06305 30.0394 1.58065 33.09 1.58065ZM41.7836 11.8548C41.7836 12.2911 41.4287 12.6452 40.9932 12.6452C40.5578 12.6452 40.2029 12.2911 40.2029 11.8548C40.2029 11.4186 40.5578 11.0645 40.9932 11.0645C41.4287 11.0645 41.7836 11.4186 41.7836 11.8548ZM35.461 11.8548C35.461 12.2911 35.1061 12.6452 34.6707 12.6452C34.2352 12.6452 33.8803 12.2911 33.8803 11.8548C33.8803 11.4186 34.2352 11.0645 34.6707 11.0645C35.1061 11.0645 35.461 11.4186 35.461 11.8548ZM27.5578 14.2258C27.5578 13.3541 28.2667 12.6452 29.1384 12.6452V15.8065C28.2667 15.8065 27.5578 15.0975 27.5578 14.2258ZM30.719 18.1774V11.8548C30.719 10.8804 31.0858 9.94779 31.7228 9.23018C32.0499 9.64984 32.4443 10.0126 32.8924 10.3026C32.5281 10.7199 32.2997 11.2581 32.2997 11.8548C32.2997 13.162 33.3635 14.2258 34.6707 14.2258C35.9779 14.2258 37.0416 13.162 37.0416 11.8548C37.0416 11.5 36.9579 11.1665 36.818 10.8646C37.4953 10.6615 38.107 10.3098 38.6207 9.849C38.8072 10.0173 39.0016 10.1738 39.2103 10.309C38.8491 10.7255 38.6223 11.2621 38.6223 11.8548C38.6223 13.162 39.686 14.2258 40.9932 14.2258C42.3004 14.2258 43.3642 13.162 43.3642 11.8548C43.3642 11.5 43.2804 11.1665 43.1405 10.8646C43.6543 10.7105 44.1292 10.471 44.5536 10.1635C44.8042 10.6883 44.9448 11.2589 44.9448 11.8548V18.1774C44.9448 20.3563 43.1722 22.129 40.9932 22.129H37.0416C37.0416 20.3856 35.6238 18.9677 33.8803 18.9677H30.8068C30.7538 18.7085 30.719 18.4461 30.719 18.1774ZM35.461 30.4717C34.9939 30.1998 34.4581 30.0323 33.8803 30.0323V27.6613C33.8803 26.3541 32.8166 25.2903 31.5094 25.2903H18.8642C17.557 25.2903 16.4932 26.3541 16.4932 27.6613V30.0323C15.9147 30.0323 15.3797 30.1998 14.9126 30.4717V27.6613C14.9126 23.7389 18.1039 20.5484 22.0255 20.5484H33.8803C34.7521 20.5484 35.461 21.2573 35.461 22.129V30.4717ZM13.7239 8.97332C13.4774 9.34715 13.3312 9.79368 13.3312 10.2742C13.3312 11.5814 14.3949 12.6452 15.7021 12.6452C17.0093 12.6452 18.0731 11.5814 18.0731 10.2742C18.0731 9.91934 17.9893 9.58582 17.8494 9.28392C18.5275 9.08081 19.14 8.72832 19.6537 8.26677V13.4355C19.6537 16.4853 17.1721 18.9677 14.1215 18.9677H10.9602C7.90955 18.9677 5.42793 16.4853 5.42793 13.4355V8.38453C7.07181 7.51202 8.37347 6.51147 9.50205 5.25644C10.4014 6.95958 11.9046 8.28969 13.7239 8.97332ZM16.4932 10.2742C16.4932 10.7105 16.1384 11.0645 15.7029 11.0645C15.2674 11.0645 14.9126 10.7105 14.9126 10.2742C14.9126 9.83794 15.2674 9.48387 15.7029 9.48387C16.1384 9.48387 16.4932 9.83794 16.4932 10.2742ZM10.961 20.5484H14.1223C14.376 20.5484 14.6257 20.5342 14.8723 20.5081C14.8122 21.0645 14.681 21.6066 14.4953 22.129H10.5887C10.403 21.6066 10.271 21.0645 10.2118 20.5081C10.4575 20.5342 10.7073 20.5484 10.961 20.5484ZM13.6987 23.7097C13.3699 24.202 12.9874 24.6596 12.5416 25.0588C12.0959 24.6596 11.7134 24.202 11.3846 23.7097H13.6987ZM16.4703 20.1414C16.5533 20.1121 16.6363 20.0829 16.7177 20.0505C16.9105 20.1564 17.1034 20.2607 17.2875 20.3808C16.9698 20.5879 16.6679 20.8155 16.381 21.0613C16.4276 20.7578 16.4561 20.4512 16.4703 20.1414ZM22.8158 7.1129V18.9677H22.0255C20.9048 18.9677 19.8363 19.1882 18.8516 19.5763C18.6745 19.438 18.5007 19.2949 18.3149 19.1685C20.0813 17.8731 21.2352 15.7891 21.2352 13.4355V7.90323C21.2352 7.44089 21.0913 7.00068 20.8455 6.62053C21.0945 6.04439 21.2352 5.40897 21.2352 4.74194H19.6545C19.6545 6.48539 18.2367 7.90323 16.4932 7.90323C13.0071 7.90323 10.1707 5.06676 10.1707 1.58065H17.2836C20.3342 1.58065 22.8158 4.06305 22.8158 7.1129ZM2.26744 21.2107V7.1129C2.26744 4.06305 4.74905 1.58065 7.79969 1.58065H8.59002C8.59002 2.2706 8.68802 2.93605 8.85477 3.57463C7.64637 5.09679 6.22379 6.22616 4.28434 7.19589L3.84808 7.41481V13.4355C3.84808 15.7867 4.99958 17.8692 6.76358 19.1645C5.22087 20.2093 4.018 21.6335 3.24506 23.2782C2.63573 22.7787 2.26744 22.0263 2.26744 21.2107ZM3.84808 28.4516V27.6613C3.84808 24.4597 5.5781 21.5829 8.36872 20.0521C8.44934 20.0837 8.53074 20.1129 8.61293 20.1414C8.72911 22.721 9.99363 25.1568 12.0674 26.7121L12.5416 27.0678L13.0158 26.7121C13.1652 26.5999 13.3003 26.4726 13.441 26.3517C13.3762 26.7801 13.3319 27.2148 13.3319 27.6605V28.4508L3.84808 28.4516ZM14.9126 33.1936C14.9126 32.3218 15.6215 31.6129 16.4932 31.6129V34.7742C15.6215 34.7742 14.9126 34.0653 14.9126 33.1936ZM18.0739 37.1452V27.6613C18.0739 27.225 18.4287 26.871 18.8642 26.871H24.3965V34.7742H21.2352V35.5645C21.2352 37.4724 22.5953 39.0688 24.3965 39.4363V41.0968H22.0255C19.8466 41.0968 18.0739 39.3241 18.0739 37.1452ZM24.8849 45.8387H25.4887L26.279 47.4194H24.0946L24.8849 45.8387ZM25.4879 44.2581H24.8841L24.0938 42.6774H26.2782L25.4879 44.2581ZM25.1868 37.9355C24.1562 37.9355 23.2774 37.2748 22.951 36.3548H27.4218C27.0962 37.2748 26.2166 37.9355 25.1868 37.9355ZM22.0255 42.6774H22.3274L23.5129 45.0484L22.3274 47.4194H16.5494C16.9342 44.7417 19.2428 42.6774 22.0255 42.6774ZM33.8234 47.4194H28.0454L26.8599 45.0484L28.0454 42.6774H28.3473C31.13 42.6774 33.4393 44.7417 33.8234 47.4194ZM32.2997 37.1452C32.2997 39.3241 30.527 41.0968 28.3481 41.0968H25.9771V39.4363C27.7783 39.0688 29.1384 37.4731 29.1384 35.5645V34.7742H25.9771V26.871H31.5094C31.9448 26.871 32.2997 27.225 32.2997 27.6613V37.1452ZM33.8803 34.7742V31.6129C34.7521 31.6129 35.461 32.3218 35.461 33.1936C35.461 34.0653 34.7521 34.7742 33.8803 34.7742ZM37.0416 26.871H38.1339L38.9242 28.4516H37.0416V26.871Z" fill="#EA374C"/>
<path d="M7.00934 10.2743C7.00934 11.5815 8.07311 12.6453 9.38031 12.6453C10.6875 12.6453 11.7513 11.5815 11.7513 10.2743C11.7513 8.96709 10.6875 7.90332 9.38031 7.90332C8.07311 7.90332 7.00934 8.96709 7.00934 10.2743ZM9.38031 9.48397C9.81577 9.48397 10.1706 9.83803 10.1706 10.2743C10.1706 10.7105 9.81577 11.0646 9.38031 11.0646C8.94484 11.0646 8.58998 10.7105 8.58998 10.2743C8.58998 9.83803 8.94405 9.48397 9.38031 9.48397Z" fill="#EA374C"/>
<path d="M10.1707 17.3871H13.3319C15.0754 17.3871 16.4932 15.9693 16.4932 14.2258H14.9126C14.9126 15.0976 14.2037 15.8065 13.3319 15.8065H10.1707V17.3871Z" fill="#EA374C"/>
<path d="M37.832 18.9679C39.5912 18.9679 41.1466 17.8472 41.703 16.178L41.7433 16.0563L40.2432 15.5576L40.2029 15.6785C39.8623 16.7004 38.9092 17.3872 37.832 17.3872C36.7548 17.3872 35.8016 16.7004 35.461 15.6793L35.4207 15.5576L33.9207 16.0563L33.9618 16.1788C34.5173 17.8472 36.0727 18.9679 37.832 18.9679Z" fill="#EA374C"/>
</svg>
