<svg width="50" height="57" viewBox="0 0 50 57" fill="none" xmlns="http://www.w3.org/2000/svg">
<path d="M0 50.7241V54.6313C0 55.4029 0.627544 56.0309 1.39915 56.0309H10.5588C11.3304 56.0309 11.958 55.4029 11.958 54.6313V50.7241C11.958 48.8573 10.7328 47.2718 9.04424 46.728C9.61065 46.0415 9.95178 45.1617 9.95178 44.2038C9.95178 42.2959 8.59965 40.6984 6.8038 40.318V37.6056C6.8038 37.5603 6.84057 37.5235 6.88545 37.5235H24.175V40.318C22.3791 40.6984 21.0274 42.2959 21.0274 44.2038C21.0274 45.1617 21.3681 46.0415 21.9345 46.7285C20.2464 47.2718 19.0208 48.8573 19.0208 50.7241V54.6313C19.0208 55.4029 19.6488 56.0309 20.4204 56.0309H29.5796C30.3512 56.0309 30.9788 55.4029 30.9788 54.6313V53.9114C30.9788 53.4558 30.6098 53.0864 30.1542 53.0864C29.6985 53.0864 29.3291 53.4558 29.3291 53.9114V54.3808H28.3861V50.6032C28.3861 50.1475 28.0167 49.7781 27.561 49.7781C27.1053 49.7781 26.7364 50.1475 26.7364 50.6032V54.3808H23.2636V50.6032C23.2636 50.1475 22.8947 49.7781 22.439 49.7781C21.9833 49.7781 21.6139 50.1475 21.6139 50.6032V54.3808H20.6709V50.7241C20.6709 49.3194 21.8135 48.1763 23.2187 48.1763H26.7813C27.9898 48.1763 29.0406 49.0377 29.2795 50.2248C29.3693 50.6711 29.804 50.9605 30.2508 50.8703C30.6975 50.781 30.9865 50.3458 30.8967 49.8991C30.5915 48.3815 29.4787 47.1872 28.0642 46.7293C28.6315 46.0424 28.9726 45.1622 28.9726 44.2038C28.9726 42.2959 27.6209 40.6984 25.825 40.3175V37.5235H43.1145C43.1594 37.5235 43.1962 37.5603 43.1962 37.6051V40.3175C41.3999 40.6984 40.0482 42.2959 40.0482 44.2038C40.0482 45.1613 40.3889 46.0415 40.9558 46.728C39.2672 47.2718 38.042 48.8573 38.042 50.7241V54.6313C38.042 55.4029 38.6696 56.0309 39.4412 56.0309H48.6004C49.372 56.0309 50 55.4029 50 54.6313V50.7241C50 48.8573 48.7744 47.2718 47.0863 46.728C47.6527 46.0415 47.9934 45.1617 47.9934 44.2038C47.9934 42.2959 46.6417 40.6984 44.8458 40.3175V37.6056C44.8458 36.6506 44.0691 35.8738 43.1145 35.8738H25.8246V33.123H36.2518C37.3615 33.123 38.2643 32.2202 38.2643 31.1104V25.0983C38.2643 21.6148 35.2745 20.3456 35.1471 20.2934C35.142 20.2913 35.1365 20.2891 35.1313 20.287L28.6122 17.7623V16.5042C29.6228 15.6796 30.3354 14.5036 30.5632 13.1647C31.9278 12.9582 32.8439 11.8258 32.8439 10.5473C32.8439 9.94279 32.637 9.36398 32.2668 8.90016V6.92349C32.2668 3.73148 30.2161 0.963961 27.1643 0.0358973C26.7296 -0.096622 26.2679 0.14918 26.1354 0.585212C26.0029 1.02082 26.2487 1.48164 26.6847 1.61416C29.0367 2.32934 30.6167 4.4629 30.6167 6.92349V7.81821C30.5607 7.56856 30.3752 7.34712 30.1447 7.08935C29.9425 6.86278 29.4445 6.33784 28.811 5.65686C28.6259 5.45765 28.3818 5.32214 28.1031 5.27383C27.7987 5.22125 27.4764 5.28025 27.2007 5.46022C26.9361 5.63335 26.6629 5.7928 26.3838 5.94113C24.6572 6.85979 22.6839 7.30523 20.8453 7.17356C20.3024 7.1321 19.7967 7.4463 19.5881 7.94859C19.5646 7.95286 19.5415 7.95714 19.5184 7.96184V6.92349C19.5184 4.52104 21.0513 2.40286 23.3328 1.65221C23.7659 1.50986 24.001 1.0439 23.8586 0.61086C23.7163 0.178249 23.2499 -0.0568663 22.8177 0.0850578C19.8574 1.05886 17.8687 3.80672 17.8687 6.92349V8.95232C17.4943 9.40972 17.2916 9.96246 17.2916 10.5473C17.2916 11.8438 18.2334 12.9698 19.5706 13.1673C19.8044 14.5617 20.5568 15.7634 21.6357 16.5854V17.7627L15.1239 20.2874C15.1188 20.2891 15.1136 20.2913 15.1081 20.2934C15.1004 20.2968 15.0811 20.305 15.0521 20.3178C14.619 20.5131 11.9909 21.8328 11.9909 25.0983V31.1104C11.9909 32.2202 12.8937 33.123 14.0035 33.123H24.175V35.8738H6.88545C5.93046 35.8738 5.15415 36.6506 5.15415 37.6056V40.318C3.3583 40.6984 2.00617 42.2959 2.00617 44.2038C2.00617 45.1617 2.34688 46.0415 2.91372 46.7285C1.22516 47.2718 0 48.8573 0 50.7241ZM27.3229 44.2038C27.3229 45.4845 26.2807 46.5267 25 46.5267C23.7188 46.5267 22.6771 45.4845 22.6771 44.2038C22.6771 42.923 23.7188 41.8808 25 41.8808C26.2807 41.8808 27.3229 42.923 27.3229 44.2038ZM48.3503 50.7241V54.3813H47.4069V50.6032C47.4069 50.1475 47.0375 49.7781 46.5819 49.7781C46.1266 49.7781 45.7572 50.1475 45.7572 50.6032V54.3813H42.2848V50.6032C42.2848 50.1475 41.9155 49.7781 41.4598 49.7781C41.0041 49.7781 40.6352 50.1475 40.6352 50.6032V54.3813H39.6917V50.7241C39.6917 49.3194 40.8348 48.1763 42.2395 48.1763H45.8026C47.2073 48.1763 48.3503 49.3194 48.3503 50.7241ZM46.3437 44.2038C46.3437 45.4845 45.302 46.5267 44.0208 46.5267C42.7401 46.5267 41.6979 45.4845 41.6979 44.2038C41.6979 42.923 42.7401 41.8808 44.0208 41.8808C45.302 41.8808 46.3437 42.923 46.3437 44.2038ZM25.1355 16.0947C22.695 16.0947 21.142 14.1941 21.142 12.2367V8.84032C23.4504 8.91384 25.8413 8.23671 27.8244 7.01796C28.4481 7.68654 28.8208 8.07769 28.9935 8.2739V12.2367C28.9935 14.3476 27.2729 16.0947 25.1355 16.0947ZM30.6432 11.4356V9.66151C30.9877 9.83464 31.1938 10.1762 31.1938 10.5473C31.1938 10.9149 30.9912 11.2616 30.6432 11.4356ZM18.9413 10.5473C18.9413 10.1899 19.1747 9.88722 19.4923 9.7111V11.4356C19.1473 11.2637 18.9413 10.9187 18.9413 10.5473ZM25.1355 17.7443C25.766 17.7443 26.3991 17.6315 26.9626 17.4327V17.8931C26.9626 18.4121 27.2451 18.8926 27.685 19.1516C26.2243 20.6068 23.9582 20.6153 22.4881 19.1897C22.9707 18.934 23.2854 18.424 23.2854 17.87V17.4562C23.8697 17.646 24.5118 17.7443 25.1355 17.7443ZM13.6409 31.1104V25.0987C13.6409 22.769 15.6031 21.8768 15.7313 21.8212C21.3147 19.6565 18.6066 20.7064 20.8321 19.8437L21.1578 20.19C23.3059 22.4719 26.83 22.4719 28.9777 20.1895L29.3338 19.8112C32.6306 21.0877 31.4926 20.6469 34.5243 21.8212C35.693 22.3274 36.6147 23.594 36.6147 25.0987V31.1104C36.6147 31.3105 36.4518 31.4733 36.2518 31.4733H33.8292V26.1196C33.8292 25.6639 33.4599 25.295 33.0042 25.295C32.5485 25.295 32.1796 25.6639 32.1796 26.1196V31.4733H18.0761V26.1196C18.0761 25.6639 17.7072 25.295 17.2515 25.295C16.7958 25.295 16.4264 25.6639 16.4264 26.1196V31.4733H14.0039C13.8038 31.4733 13.6409 31.3105 13.6409 31.1104ZM5.97876 41.8808C7.25993 41.8808 8.3017 42.923 8.3017 44.2038C8.3017 45.4845 7.25993 46.5267 5.97876 46.5267C4.69803 46.5267 3.65583 45.4845 3.65583 44.2038C3.65583 42.923 4.69803 41.8808 5.97876 41.8808ZM1.64965 50.7241C1.64965 49.3194 2.79274 48.1763 4.19745 48.1763H7.76051C9.16521 48.1763 10.3083 49.3194 10.3083 50.7241V54.3813H9.36485V50.6032C9.36485 50.1475 8.9955 49.7781 8.54023 49.7781C8.08454 49.7781 7.71519 50.1475 7.71519 50.6032V54.3813H4.24276V50.6032C4.24276 50.1475 3.87341 49.7781 3.41772 49.7781C2.96202 49.7781 2.59311 50.1475 2.59311 50.6032V54.3813H1.64965V50.7241Z" fill="#EA374C"/>
</svg>
