<svg width="11" height="14" viewBox="0 0 11 14" fill="none" xmlns="http://www.w3.org/2000/svg">
<path d="M1.16309 4.05152V5.4599H1.06938C0.479567 5.4599 0 5.93947 0 6.52928V12.4191C0 13.009 0.479567 13.4885 1.06938 13.4885H9.28817C9.87798 13.4885 10.3575 13.009 10.3575 12.4191V6.52652C10.3575 5.93671 9.87798 5.45714 9.28817 5.45714H9.26061V4.04876C9.26061 1.81629 7.44432 0 5.21185 0C2.97938 0.00275613 1.16309 1.81905 1.16309 4.05152ZM5.81269 9.73466C5.73 9.7953 5.70795 9.85318 5.70795 9.94964C5.71071 10.3824 5.71071 10.8123 5.71071 11.245C5.71898 11.4242 5.62802 11.6006 5.46817 11.6805C5.09058 11.8734 4.71299 11.6033 4.71299 11.245V11.2423C4.71299 10.8096 4.71299 10.3768 4.71574 9.94413C4.71574 9.85593 4.69645 9.79805 4.61928 9.74018C4.22791 9.45078 4.09837 8.95743 4.29406 8.52472C4.48423 8.10303 4.95002 7.85498 5.38824 7.94318C5.87608 8.0424 6.21508 8.43377 6.22059 8.92161C6.22059 9.26061 6.08554 9.53622 5.81269 9.73466ZM2.93528 4.05152C2.93528 2.79472 3.95781 1.77495 5.21185 1.77495C6.46864 1.77495 7.48841 2.79748 7.48841 4.05152V5.4599H2.93528V4.05152Z" fill="#FEFEFE"/>
</svg>
