<svg width="11" height="19" viewBox="0 0 11 19" fill="none" xmlns="http://www.w3.org/2000/svg">
<path d="M7.26655 9.35676L0.317142 1.98762C0.199343 1.86264 0.140381 1.71881 0.140381 1.55633C0.140381 1.39385 0.199281 1.25002 0.317142 1.1253L1.20138 0.187637C1.3193 0.0627208 1.45488 0 1.60773 0C1.76102 0 1.89659 0.0627208 2.01445 0.187637L10.2548 8.92539C10.3726 9.05038 10.4314 9.19421 10.4314 9.35669C10.4314 9.51924 10.3726 9.663 10.2548 9.78798L2.01489 18.5257C1.89684 18.6509 1.76114 18.7134 1.60792 18.7134C1.45488 18.7134 1.3193 18.6509 1.20144 18.5257L0.317204 17.5887C0.199405 17.4638 0.140628 17.3199 0.140628 17.1572C0.140628 16.9949 0.199343 16.8511 0.317204 16.7261L7.26655 9.35676Z" fill="#FEFEFE"/>
</svg>
