<svg width="50" height="50" fill="none" xmlns="http://www.w3.org/2000/svg"><path d="M34.914 22.01l-9.441 9.442h-3.699v-1.613h-.02A8.069 8.069 0 0024.836 25H25a3.229 3.229 0 003.226-3.226 3.19 3.19 0 00-.807-2.111v-2.727c0-5.781-4.703-10.484-10.483-10.484-5.781 0-10.484 4.703-10.484 10.484v2.727a3.195 3.195 0 00-.807 2.111A3.229 3.229 0 008.871 25h.163a8.07 8.07 0 003.084 4.839h-.021v1.613H8.065C3.618 31.452 0 35.069 0 39.516v9.678c0 .446.36.806.806.806h32.259c.446 0 .806-.36.806-.806v-9.678c0-3.845-2.707-7.065-6.315-7.868l8.262-8.26H50v-1.614H35.484a.803.803 0 00-.57.236zM12.525 33.066l3.139 3.766-3.096 1.547-1.772-5.313h1.729zm4.265 8.87h.291l1.29 6.452H15.5l1.29-6.452zm.454-1.612h-.617l-.867-1.737 1.176-.588 1.175.588-.867 1.737zm.963-3.492l3.139-3.766h1.729l-1.772 5.314-3.096-1.548zM25 23.387v-3.226a1.614 1.614 0 010 3.226zM7.258 21.774c0-.89.723-1.613 1.613-1.613v3.226c-.89 0-1.613-.723-1.613-1.613zm1.613-3.226c-.28 0-.547.047-.806.115v-1.727c0-4.892 3.98-8.871 8.87-8.871 4.892 0 8.872 3.98 8.872 8.87v1.728a3.18 3.18 0 00-.807-.115.806.806 0 00-.806-.806 4.051 4.051 0 01-3.226-1.614L20 14.838c-.304-.405-.986-.405-1.29 0l-.968 1.291a4.052 4.052 0 01-3.226 1.613H9.677a.806.806 0 00-.806.806zm1.613 4.84v-4.033h4.032a5.674 5.674 0 004.516-2.258l.323-.43.322.429a5.675 5.675 0 003.71 2.2v4.091a6.46 6.46 0 01-6.451 6.452 6.46 6.46 0 01-6.452-6.452zm6.452 8.064a8.007 8.007 0 003.225-.679v1.193l-3.226 3.871-3.225-3.87v-1.194a8.007 8.007 0 003.226.679zM1.613 39.516a6.46 6.46 0 016.452-6.451h1.032l2.235 6.706a.806.806 0 001.125.467l1.86-.93.966 1.935-1.428 7.144H6.452v-4.839H4.839v4.84H1.613v-8.872zm30.645 0v8.871h-3.226v-4.839H27.42v4.84h-7.403l-1.429-7.145.967-1.935 1.859.93a.813.813 0 00.67.023.802.802 0 00.456-.49l2.235-6.706h1.032a6.46 6.46 0 016.452 6.451z" fill="#EA374C"/><path d="M48.387 18.548V7.258a.806.806 0 00-.806-.806h-3.226a.806.806 0 00-.807.806v11.29h-1.613v-6.451a.806.806 0 00-.806-.807h-3.226a.806.806 0 00-.806.807v6.451h-1.613v-4.032a.806.806 0 00-.807-.806h-3.225a.806.806 0 00-.807.806v4.032h-1.613v1.613H50v-1.613h-1.613zM45.161 8.065h1.613v10.483h-1.613V8.065zm-6.451 4.838h1.612v5.645H38.71v-5.645zm-6.452 2.42h1.613v3.225h-1.613v-3.225zm4.366-10.484h4.505a.8.8 0 00.57-.237l1.85-1.849V4.84h1.612V.806A.806.806 0 0044.355 0h-4.032v1.613h2.085l-1.613 1.613H36.29a.803.803 0 00-.57.236l-4.838 4.839 1.14 1.14 4.602-4.602z" fill="#EA374C"/></svg>