<svg width="50" height="50" fill="none" xmlns="http://www.w3.org/2000/svg"><path d="M49.167 0H.833A.833.833 0 000 .833V17.5h1.667V1.667h46.666V20H19.167v1.667h30c.46 0 .833-.373.833-.833v-20A.833.833 0 0049.167 0z" fill="#EA374C"/><path d="M44.167 4.167H27.5v1.666h16.667V4.166zm2.5 5H30v1.667h16.667V9.167zm-3.334 5H26.667v1.667h16.666v-1.667zM26.6 7.184a2.69 2.69 0 00-3.586-1.42L16.257 9.27a4.121 4.121 0 00.41-1.77 4.167 4.167 0 00-8.334 0c.003.904.304 1.783.855 2.5h-.035a5.718 5.718 0 00-5.312 3.7l-2.224 7.667a2.67 2.67 0 105.012 1.836l.871-2.774V32.49a4.126 4.126 0 00-2.5-.855 4.16 4.16 0 00-2.908 7.143A3.84 3.84 0 000 42.183v6.983c0 .46.373.834.833.834h8.334c.46 0 .833-.373.833-.833v-6.984a3.83 3.83 0 00-1.487-3.017h6.307a3.83 3.83 0 00-1.487 3.017v6.983c0 .46.373.834.833.834H22.5c.46 0 .833-.373.833-.833v-6.984a3.84 3.84 0 00-2.092-3.405 4.163 4.163 0 00-3.74-7.058V14.673l7.65-3.973a2.69 2.69 0 001.45-3.516zM12.5 5a2.5 2.5 0 110 5 2.5 2.5 0 010-5zM5 33.302a2.5 2.5 0 110 5 2.5 2.5 0 010-5zm3.333 15.031H1.667v-6.15A2.186 2.186 0 013.85 40h2.298a2.186 2.186 0 012.184 2.183v6.15zm13.334-6.15v6.15H15v-6.15A2.186 2.186 0 0117.184 40h2.299a2.186 2.186 0 012.184 2.183zm-3.334-8.88a2.5 2.5 0 110 5 2.5 2.5 0 010-5zm6.742-24.728c-.111.286-.34.51-.629.617l-8.163 4.235a.834.834 0 00-.45.74V32.49a4.11 4.11 0 00-1.296 5.01h-1.204V23.333h-1.666V37.5h-2.87a4.128 4.128 0 00.367-1.667h.003V15a.833.833 0 00-1.629-.25L5.05 22.668a1.001 1.001 0 01-1.39.554 1.023 1.023 0 01-.465-1.323l2.224-7.668a4.026 4.026 0 013.734-2.565h5.9a.83.83 0 00.384-.093l8.283-4.3a1.026 1.026 0 011.355 1.302zm9.499 30.204a4.167 4.167 0 10-5.815 0 3.84 3.84 0 00-2.092 3.405v6.983c0 .46.372.833.833.834h8.333c.46 0 .834-.373.834-.833v-6.984a3.84 3.84 0 00-2.093-3.405zm-2.907-5.476a2.5 2.5 0 110 5 2.5 2.5 0 010-5zM35 48.333h-6.667v-6.149a2.186 2.186 0 012.184-2.183h2.3A2.186 2.186 0 0135 42.184v6.15zm12.908-9.554a4.167 4.167 0 10-5.816 0A3.84 3.84 0 0040 42.184v6.983c0 .46.373.833.833.834h8.334c.46 0 .833-.373.833-.833v-6.984a3.84 3.84 0 00-2.092-3.405zM45 33.303a2.5 2.5 0 110 5 2.5 2.5 0 010-5zm3.333 15.03h-6.666v-6.149a2.186 2.186 0 012.183-2.183h2.3a2.186 2.186 0 012.183 2.183v6.15z" fill="#EA374C"/></svg>