<svg width="50" height="50" fill="none" xmlns="http://www.w3.org/2000/svg"><path d="M17.802 30.692l1.506 1.506a1.334 1.334 0 001.887 0l.943-.942c.151.069.306.133.463.191v1.334c0 .735.598 1.334 1.334 1.334h2.13c.736 0 1.334-.599 1.334-1.334v-1.334c.157-.058.312-.122.463-.191l.943.943c.52.52 1.367.52 1.887 0l1.506-1.507c.52-.52.52-1.367 0-1.887l-.943-.943c.07-.15.134-.306.192-.462h1.333c.736 0 1.334-.599 1.334-1.335v-2.13c0-.736-.598-1.334-1.334-1.334h-1.333a6.907 6.907 0 00-.192-.463l.943-.943c.52-.52.52-1.366 0-1.887l-1.506-1.506a1.336 1.336 0 00-1.887 0l-.943.943a6.894 6.894 0 00-.463-.192V17.22c0-.736-.598-1.334-1.334-1.334h-2.13c-.736 0-1.334.598-1.334 1.334v1.333a6.912 6.912 0 00-.463.192l-.943-.943a1.333 1.333 0 00-1.887 0l-1.506 1.506c-.52.52-.52 1.367 0 1.887l.943.943a6.26 6.26 0 00-.192.463H17.22c-.736 0-1.335.598-1.335 1.334v2.13c0 .736.599 1.335 1.335 1.335h1.333c.058.156.122.311.192.462l-.943.943c-.52.52-.52 1.367 0 1.887zm.843-4.757H17.35v-1.87h1.295c.563 0 1.067-.354 1.255-.883.06-.17.131-.34.208-.502a1.334 1.334 0 00-.262-1.513l-.916-.915 1.322-1.322.915.916a1.334 1.334 0 001.513.262c.162-.077.331-.147.502-.208.529-.188.884-.692.884-1.255V17.35h1.869v1.295c0 .563.355 1.067.883 1.255.17.06.34.131.503.208a1.334 1.334 0 001.512-.262l.916-.916 1.321 1.322-.915.915a1.334 1.334 0 00-.263 1.513c.077.163.147.332.208.502.188.529.693.884 1.255.884h1.295v1.869h-1.295c-.562 0-1.067.355-1.255.883-.06.17-.13.34-.208.503a1.334 1.334 0 00.263 1.512l.915.916-1.321 1.321-.916-.916a1.335 1.335 0 00-1.513-.262 5.334 5.334 0 01-.502.208 1.334 1.334 0 00-.883 1.255v1.295h-1.87v-1.295c0-.562-.354-1.067-.883-1.255-.17-.06-.34-.13-.502-.208a1.335 1.335 0 00-1.513.262l-.915.916-1.322-1.322.916-.915a1.335 1.335 0 00.262-1.513 5.38 5.38 0 01-.208-.502 1.334 1.334 0 00-1.255-.883z" fill="#EA374C"/><path d="M25 28.91A3.914 3.914 0 0028.91 25 3.914 3.914 0 0025 21.09 3.914 3.914 0 0021.09 25 3.914 3.914 0 0025 28.91zm0-6.354A2.447 2.447 0 0127.444 25 2.447 2.447 0 0125 27.444 2.447 2.447 0 0122.556 25 2.447 2.447 0 0125 22.556zM9.201 18.402c5.087 0 9.201-4.134 9.201-9.2C18.402 4.127 14.274 0 9.201 0S0 4.128 0 9.201c0 5.07 4.125 9.201 9.201 9.201zm4.903-3.221A7.709 7.709 0 019.2 16.937a7.71 7.71 0 01-4.903-1.756 2.527 2.527 0 012.526-2.57h4.754a2.527 2.527 0 012.526 2.57zM9.2 1.465c4.266 0 7.736 3.47 7.736 7.736a7.696 7.696 0 01-1.575 4.672 3.996 3.996 0 00-3.784-2.727H6.824a3.996 3.996 0 00-3.784 2.727A7.696 7.696 0 011.465 9.2c0-4.266 3.47-7.736 7.736-7.736zm31.599 30.133c-5.074 0-9.201 4.127-9.201 9.201 0 5.071 4.12 9.201 9.201 9.201C45.854 50 50 45.89 50 40.799c0-5.074-4.128-9.201-9.201-9.201zm4.903 15.18a7.718 7.718 0 01-9.806 0 2.527 2.527 0 012.526-2.569h4.754a2.527 2.527 0 012.526 2.57zm1.258-1.307a3.996 3.996 0 00-3.784-2.727h-4.754a3.996 3.996 0 00-3.784 2.727 7.695 7.695 0 01-1.575-4.672c0-4.266 3.47-7.736 7.736-7.736s7.736 3.47 7.736 7.736a7.696 7.696 0 01-1.575 4.672z" fill="#EA374C"/><path d="M11.733 8.885c1.4-1.4 1.4-3.665 0-5.064a3.579 3.579 0 00-5.064 0 3.579 3.579 0 000 5.064c1.4 1.4 3.664 1.4 5.064 0zM7.705 4.857a2.115 2.115 0 110 2.992 2.115 2.115 0 010-2.992zM6.669 40.483a3.585 3.585 0 005.064 0 3.585 3.585 0 000-5.064 3.585 3.585 0 00-5.064 0 3.585 3.585 0 000 5.064zm1.036-4.029a2.118 2.118 0 012.992 0 2.118 2.118 0 010 2.993 2.118 2.118 0 01-2.992 0 2.118 2.118 0 010-2.993zM38.267 3.82a3.585 3.585 0 000 5.065 3.585 3.585 0 005.064 0c1.4-1.4 1.4-3.665 0-5.064a3.585 3.585 0 00-5.064 0zm4.028 4.029a2.118 2.118 0 01-2.992 0 2.118 2.118 0 010-2.992 2.115 2.115 0 112.992 2.992zm1.035 27.57a3.585 3.585 0 00-5.063 0 3.585 3.585 0 000 5.064 3.585 3.585 0 005.064 0 3.585 3.585 0 000-5.064zm-1.035 4.028a2.118 2.118 0 01-2.992 0 2.119 2.119 0 010-2.993 2.119 2.119 0 012.992 0 2.118 2.118 0 010 2.993zM29.608 9.933a.732.732 0 100-1.464h-9.216a.732.732 0 100 1.464h9.216zm-9.216 30.134a.732.732 0 100 1.465h9.217a.732.732 0 100-1.465H20.39zM9.933 29.609v-9.217a.732.732 0 10-1.464 0v9.217a.732.732 0 101.464 0zm31.598 0v-9.217a.732.732 0 10-1.465 0v9.217a.732.732 0 101.465 0z" fill="#EA374C"/><path d="M48.39 7.708a.732.732 0 001.438-.28C48.988 3.123 45.19 0 40.8 0c-5.074 0-9.201 4.128-9.201 9.201 0 5.098 4.144 9.201 9.201 9.201a9.213 9.213 0 008.996-7.263.732.732 0 10-1.433-.307 7.646 7.646 0 01-1.403 3.038 3.996 3.996 0 00-3.783-2.724h-4.754a3.996 3.996 0 00-3.784 2.727A7.695 7.695 0 0133.063 9.2c0-4.266 3.47-7.736 7.736-7.736a7.746 7.746 0 017.592 6.243zm-9.968 4.903h4.754a2.528 2.528 0 012.526 2.525v.036a7.733 7.733 0 01-4.903 1.765c-1.726 0-3.47-.58-4.903-1.756a2.527 2.527 0 012.526-2.57zM9.201 50c5.078 0 9.201-4.13 9.201-9.201 0-4.35-3.089-8.142-7.345-9.014a.733.733 0 00-.294 1.435c3.578.733 6.174 3.92 6.174 7.579a7.695 7.695 0 01-1.575 4.672 3.996 3.996 0 00-3.784-2.727H6.824A3.996 3.996 0 003.04 45.47a7.696 7.696 0 01-1.575-4.672c0-3.658 2.596-6.846 6.174-7.579a.733.733 0 00-.294-1.435C3.089 32.657 0 36.448 0 40.8 0 45.864 4.112 50 9.201 50zm-2.377-5.791h4.754a2.527 2.527 0 012.526 2.57 7.72 7.72 0 01-9.806 0 2.527 2.527 0 012.526-2.57z" fill="#EA374C"/></svg>