<svg width="50" height="50" fill="none" xmlns="http://www.w3.org/2000/svg"><path d="M12.873 10.678a4.96 4.96 0 00-3.578-1.511h-.257a4.96 4.96 0 00-3.574 1.51 4.583 4.583 0 00-1.293 3.399l.097 2.243a4.79 4.79 0 004.867 4.514h.063a4.79 4.79 0 004.867-4.514l.102-2.243a4.584 4.584 0 00-1.294-3.398zM12.4 16.25a3.128 3.128 0 01-3.202 2.917h-.063a3.128 3.128 0 01-3.202-2.917l-.029-.68a7.522 7.522 0 004.357-1.636 3.721 3.721 0 002.173 1.524l-.034.792zm-1.045-3.94a.833.833 0 00-.667-.71.826.826 0 00-.885.4c-.01.018-1.045 1.654-3.963 1.904a2.939 2.939 0 01.827-2.07 3.295 3.295 0 012.371-1h.257a3.295 3.295 0 012.372 1c.486.506.774 1.17.813 1.871a1.972 1.972 0 01-1.125-1.394zm34.018 18.367a4.96 4.96 0 00-3.578-1.51h-.257a4.96 4.96 0 00-3.574 1.51 4.583 4.583 0 00-1.293 3.399l.097 2.243a4.79 4.79 0 004.867 4.514h.063a4.79 4.79 0 004.867-4.514l.102-2.243a4.584 4.584 0 00-1.294-3.399zM45 34.008l-.1 2.242a3.128 3.128 0 01-3.202 2.916h-.063a3.128 3.128 0 01-3.202-2.916l-.1-2.246a2.94 2.94 0 01.834-2.17 3.294 3.294 0 012.371-1h.257a3.294 3.294 0 012.372 1A2.94 2.94 0 0145 34.008z" fill="#EA374C"/><path d="M25.743 12.12a2.307 2.307 0 00-3.207 0l-9.304 9.303a.834.834 0 01-.59.244H4.168A4.172 4.172 0 000 25.833V37.5a2.5 2.5 0 003.333 2.358v.975c0 .46.373.834.834.834h10c.46 0 .833-.373.833-.834V27.322a.84.84 0 01.223-.569l10.574-11.372a2.307 2.307 0 00-.054-3.262zm-1.136 2.096l-.009.008L14 25.62a2.5 2.5 0 00-.667 1.703V40H5V27.5a.833.833 0 00-1.667 0v10a.833.833 0 01-1.666 0V25.833a2.5 2.5 0 012.5-2.5h8.476c.663.002 1.3-.261 1.768-.732l9.303-9.303a.657.657 0 01.905 0 .65.65 0 01-.012.918z" fill="#EA374C"/><path d="M9.167 24.167a.833.833 0 00-.834.833v10A.833.833 0 0010 35V25a.833.833 0 00-.833-.833zm17.869 6.511a4.959 4.959 0 00-3.574-1.511h-.257a4.96 4.96 0 00-3.574 1.51 4.583 4.583 0 00-1.294 3.399l.098 2.243a4.79 4.79 0 004.867 4.514h.063a4.79 4.79 0 004.867-4.514l.097-2.243a4.583 4.583 0 00-1.293-3.398zm-.37 3.33l-.1 2.242a3.128 3.128 0 01-3.201 2.917h-.063A3.128 3.128 0 0120.1 36.25l-.1-2.246a2.942 2.942 0 01.833-2.17 3.294 3.294 0 012.372-1h.257a3.294 3.294 0 012.371 1c.566.579.867 1.366.834 2.174zm.974 7.659h-8.612A4.032 4.032 0 0015 45.694v3.473a.833.833 0 101.667 0v-3.473a2.363 2.363 0 012.36-2.36h8.612A2.363 2.363 0 0130 45.693v3.473a.833.833 0 101.667 0v-3.473a4.032 4.032 0 00-4.028-4.027zm18.332 0h-8.611a4.032 4.032 0 00-4.028 4.027v3.473a.833.833 0 101.667 0v-3.473a2.363 2.363 0 012.36-2.36h8.612a2.363 2.363 0 012.361 2.36v3.473a.833.833 0 101.667 0v-3.473a4.032 4.032 0 00-4.028-4.027zM47.542 0h-29.25a2.483 2.483 0 00-2.459 2.5V15a.833.833 0 001.667 0V5h30.833v20a.814.814 0 01-.791.833H19.104a.833.833 0 000 1.667h28.438A2.483 2.483 0 0050 25V2.5A2.483 2.483 0 0047.542 0zm.791 3.333H17.5V2.5a.814.814 0 01.792-.833h29.25a.814.814 0 01.791.833v.833z" fill="#EA374C"/><path d="M45.833 10.625a.833.833 0 00-.833.833v11.875a.833.833 0 001.667 0V11.458a.833.833 0 00-.834-.833zM42.5 15.833a.833.833 0 00-.833.834v6.666a.833.833 0 001.666 0v-6.666a.833.833 0 00-.833-.834zm-3.333-1.666a.833.833 0 00-.834.833v8.333a.833.833 0 001.667 0V15a.833.833 0 00-.833-.833zm-3.334 4.999A.833.833 0 0035 20v3.333a.833.833 0 001.667 0V20a.833.833 0 00-.834-.834z" fill="#EA374C"/><path d="M46.296 6.807a.834.834 0 00-1.156.23l-2.845 4.267-2.628-1.97a.833.833 0 00-1.25.294l-3.245 6.49L32 18.5a.833.833 0 001 1.333l3.333-2.5a.841.841 0 00.25-.294l2.886-5.773 2.531 1.9a.833.833 0 001.193-.204l3.334-5a.833.833 0 00-.231-1.155zM30 6.667H20a.833.833 0 000 1.666h10a.833.833 0 000-1.667zm5 0h-1.667a.833.833 0 000 1.666H35a.833.833 0 000-1.667z" fill="#EA374C"/></svg>