<svg width="50" height="50" fill="none" xmlns="http://www.w3.org/2000/svg"><path d="M35.833 28.333C43.667 28.333 50 22 50 14.167 50 6.333 43.667 0 35.833 0A14.153 14.153 0 0022.81 8.579a9.534 9.534 0 00-2.059-.246c-6 0-10.833 5.25-10.833 11.667v16.842A31.57 31.57 0 004.167 39l-2 1A3.887 3.887 0 000 43.5v5.667c0 .5.333.833.833.833h40c.25 0 .667-.083.834-.25a.756.756 0 00.25-.583V43.5c0-1.5-.834-2.833-2.167-3.5l-2-1a33.117 33.117 0 00-6.25-2.277v-9.064c1.365.438 2.821.674 4.333.674zM12.667 38.75l5.25 7.667-6.834-4.25 1.584-3.417zm17.916 3.417l-6.833 4.166L29 38.75l1.583 3.417zm-9.75 5.533l-6.87-9.962c.63-.081 1.254-.144 1.87-.188v.783c0 .5.334.834.834.834.5 0 .833-.334.833-.834v-4.166a6.787 6.787 0 006.667 0v4.166c0 .5.333.834.833.834.5 0 .833-.334.833-.834v-.783c.617.044 1.241.107 1.87.188l-6.87 9.962zm0-14.367a5.194 5.194 0 01-2.01-.404 5.961 5.961 0 01-1.49-.93.938.938 0 00-.201-.154c-1.802-1.618-2.965-4.415-2.965-7.678v-3.5c1.083-.25 1.833-.917 2.416-2 .584 1.25 1.5 2.166 3.417 2.166h3.327c.126.237.258.47.397.698.965 1.607 2.233 2.957 3.693 4.052-.5 4.5-3.167 7.75-6.584 7.75zm15-31.666c6.917 0 12.5 5.583 12.5 12.5 0 6.916-5.583 12.5-12.5 12.5-2.52 0-4.864-.743-6.825-2.02a.992.992 0 00-.175-.147c-1.75-1.25-3.25-2.917-4.166-4.833a1.05 1.05 0 00-.198-.279 12.482 12.482 0 01-1.136-5.221c0-6.917 5.584-12.5 12.5-12.5zM11.667 20c0-5.5 4.083-10 9.166-10 .497 0 .911.082 1.406.165a16.94 16.94 0 00-.112.402c-.292 1.028-.43 2.147-.455 3.227v.015a15.9 15.9 0 00.003.827 14.541 14.541 0 00.028.542l.002.037c.012.165.028.329.045.492l.004.034a14.1 14.1 0 00.819 3.426h-2.49c-1.666 0-2-.917-2.5-3.417v-.083C17.5 15.25 17.167 15 16.75 15c-.416 0-.75.25-.833.667-.5 2.916-1.75 3.416-2.667 3.5-.417.083-.75.416-.75.833v4.167c0 3.69 1.284 6.844 3.333 8.78v2.97c-1.047 0-2.146.154-3.256.341a1.606 1.606 0 00-.16-.008c-.05.017-.101.038-.15.062l-.6.105V20zm-10 23.5c0-.833.5-1.667 1.25-2.083.583-.334 1.25-.667 1.916-1a28.965 28.965 0 015.767-2.164.664.664 0 00.4-.003l.064-.013-1.814 3.93c-.167.416 0 .833.333 1.083l8.26 5.083h-6.176v-1.666c0-.5-.334-.834-.834-.834-.5 0-.833.334-.833.834v1.666H1.667V43.5zm37.083-2.083c.75.416 1.25 1.25 1.25 2.083v4.833h-8.333v-1.666c0-.5-.334-.834-.834-.834-.5 0-.833.334-.833.834v1.666h-6.177l8.26-5.083c.334-.25.5-.667.334-1.083l-1.814-3.93.064.013h.166c.066 0 .13 0 .186-.01a29 29 0 015.815 2.177c.583.333 1.25.666 1.916 1zM30 36.333a37.848 37.848 0 00-4-.488v-3.057c1.502-1.49 2.58-3.645 3.007-6.202.324.179.654.345.993.498v9.25z" fill="#EA374C"/><path d="M28.75 14.583l6.583 6.584c.5.583 1.084 1 1.667 1.333 1 .583 2 .833 2.917.833 1.333 0 2.583-.583 3.666-1.583l.834-.833c.583-.667.75-1.667.333-2.5-.667-1.334-2.917-2.667-3.167-2.834-.5-.333-1.083-.416-1.583-.25-.417.084-.667.334-.917.667s-.583.75-.666.833c-.5.334-.834.334-1.334-.166L33.417 13c-.5-.5-.5-.833-.167-1.333.083-.084.5-.5.833-.75.334-.25.584-.5.667-.917.167-.5.083-1.083-.25-1.583-.167-.25-1.5-2.5-2.833-3.167-.834-.5-1.834-.333-2.5.333l-.834.834c-1.75 1.75-2.083 3.833-1.083 6.083.333.75.833 1.417 1.5 2.083zm.667-6.916l.833-.834c.083-.083.25-.166.333-.166.084 0 .167 0 .25.083.75.333 1.667 1.75 2.167 2.5.083.167.083.25.083.25L33 9.583c-1 .834-1.083 1-1.167 1.084-.833 1.25-.666 2.5.334 3.5l3.583 3.666c1.083 1 2.333 1.167 3.5.334.083-.084.25-.167 1.083-1.167l.084-.083a.63.63 0 01.333.083c.75.5 2.166 1.5 2.5 2.167.083.166.083.333-.084.5l-.833.833c-1.416 1.333-2.833 1.583-4.583.583-.5-.25-.917-.583-1.333-1L29.833 13.5c-.5-.583-.916-1.083-1.166-1.667-.75-1.583-.5-2.916.75-4.166z" fill="#EA374C"/></svg>