<svg width="11" height="14" fill="none" xmlns="http://www.w3.org/2000/svg"><path d="M1.163 4.052V5.46H1.07C.48 5.46 0 5.94 0 6.53v5.89c0 .589.48 1.069 1.07 1.069h8.218c.59 0 1.07-.48 1.07-1.07V6.527c0-.59-.48-1.07-1.07-1.07h-.027V4.05A4.053 4.053 0 005.21 0a4.058 4.058 0 00-4.048 4.052zm4.65 5.683c-.083.06-.105.118-.105.215.003.432.003.862.003 1.295a.46.46 0 01-.243.436.505.505 0 01-.755-.436v-.003c0-.432 0-.865.003-1.298 0-.088-.02-.146-.097-.204a.987.987 0 01-.325-1.215c.19-.422.656-.67 1.094-.582.488.1.827.49.833.979a.956.956 0 01-.408.813zM2.935 4.052a2.279 2.279 0 012.277-2.277 2.279 2.279 0 012.276 2.277V5.46H2.935V4.052z" fill="#FEFEFE"/></svg>